solid ascii
facet normal 0.2124733328819275 0.9209432601928711 -0.32667797803878784
outer loop
vertex -14.158968925476074 213.72116088867188 1471.8468017578125
vertex -14.400656700134277 213.77220153808594 1471.83349609375
vertex -14.292872428894043 215.75563049316406 1477.4951171875
endloop
endfacet
facet normal 0.21247349679470062 0.9209432601928711 -0.32667794823646545
outer loop
vertex -14.158968925476074 213.72116088867188 1471.8468017578125
vertex -14.292872428894043 215.75563049316406 1477.4951171875
vertex -14.05118465423584 215.70458984375 1477.5084228515625
endloop
endfacet
facet normal 0.5701267123222351 0.7719066739082336 -0.2812750041484833
outer loop
vertex -14.400656700134277 213.77220153808594 1471.83349609375
vertex -14.603838920593262 213.90652465820312 1471.790283203125
vertex -14.292872428894043 215.75563049316406 1477.4951171875
endloop
endfacet
facet normal 0.57001131772995 0.7719849944114685 -0.2812941074371338
outer loop
vertex -14.603838920593262 213.90652465820312 1471.790283203125
vertex -14.496055603027344 215.88995361328125 1477.4520263671875
vertex -14.292872428894043 215.75563049316406 1477.4951171875
endloop
endfacet
facet normal 0.21247337758541107 0.9209433794021606 -0.32667794823646545
outer loop
vertex -14.05118465423584 215.70458984375 1477.5084228515625
vertex -14.292872428894043 215.75563049316406 1477.4951171875
vertex -13.943401336669922 217.68801879882812 1483.1700439453125
endloop
endfacet
facet normal 0.21231572329998016 0.920978844165802 -0.32668033242225647
outer loop
vertex -14.292872428894043 215.75563049316406 1477.4951171875
vertex -14.185089111328125 217.7390594482422 1483.1568603515625
vertex -13.943401336669922 217.68801879882812 1483.1700439453125
endloop
endfacet
facet normal -0.1776854544878006 0.9297944903373718 -0.3223510682582855
outer loop
vertex -13.915569305419922 213.76119995117188 1471.828125
vertex -14.158968925476074 213.72116088867188 1471.8468017578125
vertex -13.807785034179688 215.74462890625 1477.48974609375
endloop
endfacet
facet normal -0.1776854693889618 0.9297944903373718 -0.32235103845596313
outer loop
vertex -14.158968925476074 213.72116088867188 1471.8468017578125
vertex -14.05118465423584 215.70458984375 1477.5084228515625
vertex -13.807785034179688 215.74462890625 1477.48974609375
endloop
endfacet
facet normal 0.8410645127296448 0.5053194165229797 -0.19303558766841888
outer loop
vertex -14.603838920593262 213.90652465820312 1471.790283203125
vertex -14.737581253051758 214.1037139892578 1471.7237548828125
vertex -14.62979793548584 216.08714294433594 1477.385498046875
endloop
endfacet
facet normal 0.8410645127296448 0.5053195357322693 -0.19303563237190247
outer loop
vertex -14.603838920593262 213.90652465820312 1471.790283203125
vertex -14.62979793548584 216.08714294433594 1477.385498046875
vertex -14.496055603027344 215.88995361328125 1477.4520263671875
endloop
endfacet
facet normal 0.5700109004974365 0.7719832062721252 -0.2812996506690979
outer loop
vertex -14.292872428894043 215.75563049316406 1477.4951171875
vertex -14.496055603027344 215.88995361328125 1477.4520263671875
vertex -14.38827133178711 217.87338256835938 1483.1136474609375
endloop
endfacet
facet normal 0.5701271295547485 0.7719083428382874 -0.28126949071884155
outer loop
vertex -14.292872428894043 215.75563049316406 1477.4951171875
vertex -14.38827133178711 217.87338256835938 1483.1136474609375
vertex -14.185089111328125 217.7390594482422 1483.1568603515625
endloop
endfacet
facet normal 0.2123158574104309 0.9209766387939453 -0.3266865909099579
outer loop
vertex -13.943401336669922 217.68801879882812 1483.1700439453125
vertex -14.185089111328125 217.7390594482422 1483.1568603515625
vertex -14.077305793762207 219.7224884033203 1488.8184814453125
endloop
endfacet
facet normal 0.21247327327728271 0.9209455251693726 -0.32667165994644165
outer loop
vertex -13.943401336669922 217.68801879882812 1483.1700439453125
vertex -14.077305793762207 219.7224884033203 1488.8184814453125
vertex -13.835618019104004 219.67144775390625 1488.831787109375
endloop
endfacet
facet normal -0.1776854544878006 0.9297944903373718 -0.3223510980606079
outer loop
vertex -13.807785034179688 215.74462890625 1477.48974609375
vertex -14.05118465423584 215.70458984375 1477.5084228515625
vertex -13.943401336669922 217.68801879882812 1483.1700439453125
endloop
endfacet
facet normal -0.17747212946414948 0.929832398891449 -0.32235902547836304
outer loop
vertex -13.807785034179688 215.74462890625 1477.48974609375
vertex -13.943401336669922 217.68801879882812 1483.1700439453125
vertex -13.70000171661377 217.72804260253906 1483.1514892578125
endloop
endfacet
facet normal -0.5406100153923035 0.7971198558807373 -0.2689620852470398
outer loop
vertex -13.707512855529785 213.88619995117188 1471.7803955078125
vertex -13.915569305419922 213.76119995117188 1471.828125
vertex -13.807785034179688 215.74462890625 1477.48974609375
endloop
endfacet
facet normal -0.5406097769737244 0.7971200942993164 -0.26896214485168457
outer loop
vertex -13.707512855529785 213.88619995117188 1471.7803955078125
vertex -13.807785034179688 215.74462890625 1477.48974609375
vertex -13.59972858428955 215.86962890625 1477.4420166015625
endloop
endfacet
facet normal 0.9839310050010681 0.16183580458164215 -0.07542573660612106
outer loop
vertex -14.737581253051758 214.1037139892578 1471.7237548828125
vertex -14.781523704528809 214.33372497558594 1471.64404296875
vertex -14.62979793548584 216.08714294433594 1477.385498046875
endloop
endfacet
facet normal 0.9839375019073486 0.16180069744586945 -0.07541520148515701
outer loop
vertex -14.781523704528809 214.33372497558594 1471.64404296875
vertex -14.67374038696289 216.31715393066406 1477.3056640625
vertex -14.62979793548584 216.08714294433594 1477.385498046875
endloop
endfacet
facet normal 0.841064453125 0.5053180456161499 -0.1930394172668457
outer loop
vertex -14.496055603027344 215.88995361328125 1477.4520263671875
vertex -14.62979793548584 216.08714294433594 1477.385498046875
vertex -14.38827133178711 217.87338256835938 1483.1136474609375
endloop
endfacet
facet normal 0.8410626649856567 0.5053207278251648 -0.1930401474237442
outer loop
vertex -14.62979793548584 216.08714294433594 1477.385498046875
vertex -14.522014617919922 218.07057189941406 1483.047119140625
vertex -14.38827133178711 217.87338256835938 1483.1136474609375
endloop
endfacet
facet normal 0.5701267123222351 0.7719066739082336 -0.2812749445438385
outer loop
vertex -14.185089111328125 217.7390594482422 1483.1568603515625
vertex -14.38827133178711 217.87338256835938 1483.1136474609375
vertex -14.077305793762207 219.7224884033203 1488.8184814453125
endloop
endfacet
facet normal 0.5701266527175903 0.7719066739082336 -0.2812749445438385
outer loop
vertex -14.38827133178711 217.87338256835938 1483.1136474609375
vertex -14.280488014221191 219.8568115234375 1488.7752685546875
vertex -14.077305793762207 219.7224884033203 1488.8184814453125
endloop
endfacet
facet normal 0.21247336268424988 0.9209432601928711 -0.32667797803878784
outer loop
vertex -13.835618019104004 219.67144775390625 1488.831787109375
vertex -14.077305793762207 219.7224884033203 1488.8184814453125
vertex -13.72783374786377 221.65487670898438 1494.493408203125
endloop
endfacet
facet normal 0.21241791546344757 0.9209558367729187 -0.3266788423061371
outer loop
vertex -14.077305793762207 219.7224884033203 1488.8184814453125
vertex -13.969521522521973 221.70590209960938 1494.4801025390625
vertex -13.72783374786377 221.65487670898438 1494.493408203125
endloop
endfacet
facet normal -0.17747248709201813 0.9298294186592102 -0.322367399930954
outer loop
vertex -13.70000171661377 217.72804260253906 1483.1514892578125
vertex -13.943401336669922 217.68801879882812 1483.1700439453125
vertex -13.592218399047852 219.7114715576172 1488.8131103515625
endloop
endfacet
facet normal -0.17762918770313263 0.9298057556152344 -0.3223491907119751
outer loop
vertex -13.943401336669922 217.68801879882812 1483.1700439453125
vertex -13.835618019104004 219.67144775390625 1488.831787109375
vertex -13.592218399047852 219.7114715576172 1488.8131103515625
endloop
endfacet
facet normal -0.5406100153923035 0.7971198558807373 -0.26896217465400696
outer loop
vertex -13.59972858428955 215.86962890625 1477.4420166015625
vertex -13.807785034179688 215.74462890625 1477.48974609375
vertex -13.491945266723633 217.85305786132812 1483.1036376953125
endloop
endfacet
facet normal -0.540763258934021 0.7970303297042847 -0.2689199447631836
outer loop
vertex -13.807785034179688 215.74462890625 1477.48974609375
vertex -13.70000171661377 217.72804260253906 1483.1514892578125
vertex -13.491945266723633 217.85305786132812 1483.1036376953125
endloop
endfacet
facet normal -0.8213523626327515 0.54304039478302 -0.17460615932941437
outer loop
vertex -13.566474914550781 214.0771484375 1471.7108154296875
vertex -13.707512855529785 213.88619995117188 1471.7803955078125
vertex -13.458691596984863 216.06057739257812 1477.3724365234375
endloop
endfacet
facet normal -0.8213542103767395 0.5430381298065186 -0.17460517585277557
outer loop
vertex -13.707512855529785 213.88619995117188 1471.7803955078125
vertex -13.59972858428955 215.86962890625 1477.4420166015625
vertex -13.458691596984863 216.06057739257812 1477.3724365234375
endloop
endfacet
facet normal 0.9770126342773438 -0.2063128501176834 0.05367741361260414
outer loop
vertex -14.781523704528809 214.33372497558594 1471.64404296875
vertex -14.72897720336914 214.56153869628906 1471.563232421875
vertex -14.621193885803223 216.5449676513672 1477.224853515625
endloop
endfacet
facet normal 0.9770127534866333 -0.2063128501176834 0.053677406162023544
outer loop
vertex -14.781523704528809 214.33372497558594 1471.64404296875
vertex -14.621193885803223 216.5449676513672 1477.224853515625
vertex -14.67374038696289 216.31715393066406 1477.3056640625
endloop
endfacet
facet normal 0.9839375019073486 0.16180117428302765 -0.07541373372077942
outer loop
vertex -14.62979793548584 216.08714294433594 1477.385498046875
vertex -14.67374038696289 216.31715393066406 1477.3056640625
vertex -14.565957069396973 218.3005828857422 1482.9674072265625
endloop
endfacet
facet normal 0.9839309453964233 0.16183531284332275 -0.07542719691991806
outer loop
vertex -14.62979793548584 216.08714294433594 1477.385498046875
vertex -14.565957069396973 218.3005828857422 1482.9674072265625
vertex -14.522014617919922 218.07057189941406 1483.047119140625
endloop
endfacet
facet normal 0.8410626649856567 0.50532066822052 -0.19304028153419495
outer loop
vertex -14.38827133178711 217.87338256835938 1483.1136474609375
vertex -14.522014617919922 218.07057189941406 1483.047119140625
vertex -14.414230346679688 220.0540008544922 1488.708740234375
endloop
endfacet
facet normal 0.841064453125 0.5053181648254395 -0.19303931295871735
outer loop
vertex -14.38827133178711 217.87338256835938 1483.1136474609375
vertex -14.414230346679688 220.0540008544922 1488.708740234375
vertex -14.280488014221191 219.8568115234375 1488.7752685546875
endloop
endfacet
facet normal 0.5701268315315247 0.7719085812568665 -0.28126955032348633
outer loop
vertex -14.077305793762207 219.7224884033203 1488.8184814453125
vertex -14.280488014221191 219.8568115234375 1488.7752685546875
vertex -14.172704696655273 221.84024047851562 1494.43701171875
endloop
endfacet
facet normal 0.5700500011444092 0.77195805311203 -0.2812895178794861
outer loop
vertex -14.077305793762207 219.7224884033203 1488.8184814453125
vertex -14.172704696655273 221.84024047851562 1494.43701171875
vertex -13.969521522521973 221.70590209960938 1494.4801025390625
endloop
endfacet
facet normal 0.21241797506809235 0.9209572672843933 -0.3266746997833252
outer loop
vertex -13.72783374786377 221.65487670898438 1494.493408203125
vertex -13.969521522521973 221.70590209960938 1494.4801025390625
vertex -13.861738204956055 223.6893310546875 1500.141845703125
endloop
endfacet
facet normal 0.2122601568698883 0.9209882616996765 -0.3266896605491638
outer loop
vertex -13.72783374786377 221.65487670898438 1494.493408203125
vertex -13.861738204956055 223.6893310546875 1500.141845703125
vertex -13.620050430297852 223.6383056640625 1500.155029296875
endloop
endfacet
facet normal -0.1776290088891983 0.9298036694526672 -0.32235535979270935
outer loop
vertex -13.592218399047852 219.7114715576172 1488.8131103515625
vertex -13.835618019104004 219.67144775390625 1488.831787109375
vertex -13.72783374786377 221.65487670898438 1494.493408203125
endloop
endfacet
facet normal -0.1776287853717804 0.9298037886619568 -0.3223554193973541
outer loop
vertex -13.592218399047852 219.7114715576172 1488.8131103515625
vertex -13.72783374786377 221.65487670898438 1494.493408203125
vertex -13.484434127807617 221.6949005126953 1494.4747314453125
endloop
endfacet
facet normal -0.5407630205154419 0.7970279455184937 -0.26892703771591187
outer loop
vertex -13.491945266723633 217.85305786132812 1483.1036376953125
vertex -13.70000171661377 217.72804260253906 1483.1514892578125
vertex -13.592218399047852 219.7114715576172 1488.8131103515625
endloop
endfacet
facet normal -0.5406512022018433 0.7970969080924988 -0.2689475417137146
outer loop
vertex -13.491945266723633 217.85305786132812 1483.1036376953125
vertex -13.592218399047852 219.7114715576172 1488.8131103515625
vertex -13.384161949157715 219.83648681640625 1488.765380859375
endloop
endfacet
facet normal -0.8213542103767395 0.5430379509925842 -0.17460528016090393
outer loop
vertex -13.458691596984863 216.06057739257812 1477.3724365234375
vertex -13.59972858428955 215.86962890625 1477.4420166015625
vertex -13.491945266723633 217.85305786132812 1483.1036376953125
endloop
endfacet
facet normal -0.821352481842041 0.5430402755737305 -0.17460596561431885
outer loop
vertex -13.458691596984863 216.06057739257812 1477.3724365234375
vertex -13.491945266723633 217.85305786132812 1483.1036376953125
vertex -13.350907325744629 218.04400634765625 1483.0340576171875
endloop
endfacet
facet normal -0.9770127534866333 0.2063128501176834 -0.05367741361260414
outer loop
vertex -13.513928413391113 214.30496215820312 1471.6300048828125
vertex -13.566474914550781 214.0771484375 1471.7108154296875
vertex -13.458691596984863 216.06057739257812 1477.3724365234375
endloop
endfacet
facet normal -0.9770118594169617 0.20631635189056396 -0.05367850139737129
outer loop
vertex -13.513928413391113 214.30496215820312 1471.6300048828125
vertex -13.458691596984863 216.06057739257812 1477.3724365234375
vertex -13.406144142150879 216.28839111328125 1477.2916259765625
endloop
endfacet
facet normal 0.8213523626327515 -0.54304039478302 0.17460615932941437
outer loop
vertex -14.72897720336914 214.56153869628906 1471.563232421875
vertex -14.587939262390137 214.7524871826172 1471.49365234375
vertex -14.621193885803223 216.5449676513672 1477.224853515625
endloop
endfacet
facet normal 0.821352481842041 -0.5430402159690857 0.1746060997247696
outer loop
vertex -14.587939262390137 214.7524871826172 1471.49365234375
vertex -14.480155944824219 216.7359161376953 1477.1552734375
vertex -14.621193885803223 216.5449676513672 1477.224853515625
endloop
endfacet
facet normal 0.9770126938819885 -0.20631319284439087 0.053676385432481766
outer loop
vertex -14.67374038696289 216.31715393066406 1477.3056640625
vertex -14.621193885803223 216.5449676513672 1477.224853515625
vertex -14.565957069396973 218.3005828857422 1482.9674072265625
endloop
endfacet
facet normal 0.9770117998123169 -0.206316739320755 0.053677476942539215
outer loop
vertex -14.621193885803223 216.5449676513672 1477.224853515625
vertex -14.513409614562988 218.5283966064453 1482.8865966796875
vertex -14.565957069396973 218.3005828857422 1482.9674072265625
endloop
endfacet
facet normal 0.9839308857917786 0.16183523833751678 -0.0754273310303688
outer loop
vertex -14.522014617919922 218.07057189941406 1483.047119140625
vertex -14.565957069396973 218.3005828857422 1482.9674072265625
vertex -14.414230346679688 220.0540008544922 1488.708740234375
endloop
endfacet
facet normal 0.9839309453964233 0.161835178732872 -0.07542730122804642
outer loop
vertex -14.565957069396973 218.3005828857422 1482.9674072265625
vertex -14.458172798156738 220.2840118408203 1488.6290283203125
vertex -14.414230346679688 220.0540008544922 1488.708740234375
endloop
endfacet
facet normal 0.8410645127296448 0.5053194761276245 -0.19303560256958008
outer loop
vertex -14.280488014221191 219.8568115234375 1488.7752685546875
vertex -14.414230346679688 220.0540008544922 1488.708740234375
vertex -14.172704696655273 221.84024047851562 1494.43701171875
endloop
endfacet
facet normal 0.8411160111427307 0.5052422285079956 -0.19301368296146393
outer loop
vertex -14.414230346679688 220.0540008544922 1488.708740234375
vertex -14.30644702911377 222.0374298095703 1494.370361328125
vertex -14.172704696655273 221.84024047851562 1494.43701171875
endloop
endfacet
facet normal 0.5700501799583435 0.7719592452049255 -0.2812858521938324
outer loop
vertex -13.969521522521973 221.70590209960938 1494.4801025390625
vertex -14.172704696655273 221.84024047851562 1494.43701171875
vertex -13.861738204956055 223.6893310546875 1500.141845703125
endloop
endfacet
facet normal 0.5701659917831421 0.7718807458877563 -0.2812666893005371
outer loop
vertex -14.172704696655273 221.84024047851562 1494.43701171875
vertex -14.064920425415039 223.82366943359375 1500.0986328125
vertex -13.861738204956055 223.6893310546875 1500.141845703125
endloop
endfacet
facet normal 0.212260439991951 0.9209904074668884 -0.32668337225914
outer loop
vertex -13.620050430297852 223.6383056640625 1500.155029296875
vertex -13.861738204956055 223.6893310546875 1500.141845703125
vertex -13.512267112731934 225.62173461914062 1505.8167724609375
endloop
endfacet
facet normal 0.21241773664951324 0.9209550023078918 -0.3266809582710266
outer loop
vertex -13.861738204956055 223.6893310546875 1500.141845703125
vertex -13.753954887390137 225.67276000976562 1505.803466796875
vertex -13.512267112731934 225.62173461914062 1505.8167724609375
endloop
endfacet
facet normal -0.17762887477874756 0.9298058748245239 -0.3223491907119751
outer loop
vertex -13.484434127807617 221.6949005126953 1494.4747314453125
vertex -13.72783374786377 221.65487670898438 1494.493408203125
vertex -13.3766508102417 223.67832946777344 1500.136474609375
endloop
endfacet
facet normal -0.1774728000164032 0.9298293590545654 -0.322367399930954
outer loop
vertex -13.72783374786377 221.65487670898438 1494.493408203125
vertex -13.620050430297852 223.6383056640625 1500.155029296875
vertex -13.3766508102417 223.67832946777344 1500.136474609375
endloop
endfacet
facet normal -0.5406514406204224 0.7970950603485107 -0.2689526081085205
outer loop
vertex -13.384161949157715 219.83648681640625 1488.765380859375
vertex -13.592218399047852 219.7114715576172 1488.8131103515625
vertex -13.27637767791748 221.81991577148438 1494.427001953125
endloop
endfacet
facet normal -0.5406513214111328 0.7970951199531555 -0.2689526081085205
outer loop
vertex -13.592218399047852 219.7114715576172 1488.8131103515625
vertex -13.484434127807617 221.6949005126953 1494.4747314453125
vertex -13.27637767791748 221.81991577148438 1494.427001953125
endloop
endfacet
facet normal -0.8213523626327515 0.5430415868759155 -0.17460280656814575
outer loop
vertex -13.350907325744629 218.04400634765625 1483.0340576171875
vertex -13.491945266723633 217.85305786132812 1483.1036376953125
vertex -13.243124008178711 220.02743530273438 1488.69580078125
endloop
endfacet
facet normal -0.8213522434234619 0.5430418848991394 -0.17460289597511292
outer loop
vertex -13.491945266723633 217.85305786132812 1483.1036376953125
vertex -13.384161949157715 219.83648681640625 1488.765380859375
vertex -13.243124008178711 220.02743530273438 1488.69580078125
endloop
endfacet
facet normal -0.9770118594169617 0.20631630718708038 -0.05367864668369293
outer loop
vertex -13.406144142150879 216.28839111328125 1477.2916259765625
vertex -13.458691596984863 216.06057739257812 1477.3724365234375
vertex -13.298360824584961 218.27182006835938 1482.9532470703125
endloop
endfacet
facet normal -0.9770127534866333 0.206312894821167 -0.0536772757768631
outer loop
vertex -13.458691596984863 216.06057739257812 1477.3724365234375
vertex -13.350907325744629 218.04400634765625 1483.0340576171875
vertex -13.298360824584961 218.27182006835938 1482.9532470703125
endloop
endfacet
facet normal -0.9839316010475159 -0.16183176636695862 0.07542596012353897
outer loop
vertex -13.557869911193848 214.53497314453125 1471.55029296875
vertex -13.513928413391113 214.30496215820312 1471.6300048828125
vertex -13.45008659362793 216.51840209960938 1477.2119140625
endloop
endfacet
facet normal -0.9839309453964233 -0.16183525323867798 0.07542734593153
outer loop
vertex -13.513928413391113 214.30496215820312 1471.6300048828125
vertex -13.406144142150879 216.28839111328125 1477.2916259765625
vertex -13.45008659362793 216.51840209960938 1477.2119140625
endloop
endfacet
facet normal 0.5406515002250671 -0.7970950603485107 0.26895269751548767
outer loop
vertex -14.587939262390137 214.7524871826172 1471.49365234375
vertex -14.3798828125 214.87750244140625 1471.4459228515625
vertex -14.272099494934082 216.86093139648438 1477.1075439453125
endloop
endfacet
facet normal 0.5406513810157776 -0.7970951199531555 0.26895269751548767
outer loop
vertex -14.587939262390137 214.7524871826172 1471.49365234375
vertex -14.272099494934082 216.86093139648438 1477.1075439453125
vertex -14.480155944824219 216.7359161376953 1477.1552734375
endloop
endfacet
facet normal 0.8213523626327515 -0.5430415868759155 0.17460280656814575
outer loop
vertex -14.621193885803223 216.5449676513672 1477.224853515625
vertex -14.480155944824219 216.7359161376953 1477.1552734375
vertex -14.3723726272583 218.71934509277344 1482.8170166015625
endloop
endfacet
facet normal 0.8213539719581604 -0.5430394411087036 0.17460186779499054
outer loop
vertex -14.621193885803223 216.5449676513672 1477.224853515625
vertex -14.3723726272583 218.71934509277344 1482.8170166015625
vertex -14.513409614562988 218.5283966064453 1482.8865966796875
endloop
endfacet
facet normal 0.9770118594169617 -0.20631630718708038 0.05367864668369293
outer loop
vertex -14.565957069396973 218.3005828857422 1482.9674072265625
vertex -14.513409614562988 218.5283966064453 1482.8865966796875
vertex -14.40562629699707 220.51182556152344 1488.5482177734375
endloop
endfacet
facet normal 0.9770127534866333 -0.206312894821167 0.0536772757768631
outer loop
vertex -14.565957069396973 218.3005828857422 1482.9674072265625
vertex -14.40562629699707 220.51182556152344 1488.5482177734375
vertex -14.458172798156738 220.2840118408203 1488.6290283203125
endloop
endfacet
facet normal 0.9839308857917786 0.16183528304100037 -0.07542718946933746
outer loop
vertex -14.414230346679688 220.0540008544922 1488.708740234375
vertex -14.458172798156738 220.2840118408203 1488.6290283203125
vertex -14.35038948059082 222.26744079589844 1494.2906494140625
endloop
endfacet
facet normal 0.9839309453964233 0.16183531284332275 -0.07542719691991806
outer loop
vertex -14.414230346679688 220.0540008544922 1488.708740234375
vertex -14.35038948059082 222.26744079589844 1494.2906494140625
vertex -14.30644702911377 222.0374298095703 1494.370361328125
endloop
endfacet
facet normal 0.8411160111427307 0.5052435398101807 -0.19300995767116547
outer loop
vertex -14.172704696655273 221.84024047851562 1494.43701171875
vertex -14.30644702911377 222.0374298095703 1494.370361328125
vertex -14.198663711547852 224.02085876464844 1500.0321044921875
endloop
endfacet
facet normal 0.8410626649856567 0.50532066822052 -0.19304029643535614
outer loop
vertex -14.172704696655273 221.84024047851562 1494.43701171875
vertex -14.198663711547852 224.02085876464844 1500.0321044921875
vertex -14.064920425415039 223.82366943359375 1500.0986328125
endloop
endfacet
facet normal 0.570165753364563 0.7718808054924011 -0.28126659989356995
outer loop
vertex -13.861738204956055 223.6893310546875 1500.141845703125
vertex -14.064920425415039 223.82366943359375 1500.0986328125
vertex -13.957137107849121 225.80709838867188 1505.76025390625
endloop
endfacet
facet normal 0.5701655149459839 0.7718809843063354 -0.2812667191028595
outer loop
vertex -13.861738204956055 223.6893310546875 1500.141845703125
vertex -13.957137107849121 225.80709838867188 1505.76025390625
vertex -13.753954887390137 225.67276000976562 1505.803466796875
endloop
endfacet
facet normal 0.2124178558588028 0.9209550023078918 -0.3266810178756714
outer loop
vertex -13.512267112731934 225.62173461914062 1505.8167724609375
vertex -13.753954887390137 225.67276000976562 1505.803466796875
vertex -13.646170616149902 227.65618896484375 1511.465087890625
endloop
endfacet
facet normal 0.21241773664951324 0.9209550023078918 -0.3266810178756714
outer loop
vertex -13.512267112731934 225.62173461914062 1505.8167724609375
vertex -13.646170616149902 227.65618896484375 1511.465087890625
vertex -13.4044828414917 227.60516357421875 1511.4783935546875
endloop
endfacet
facet normal -0.17747236788272858 0.9298315644264221 -0.32236117124557495
outer loop
vertex -13.3766508102417 223.67832946777344 1500.136474609375
vertex -13.620050430297852 223.6383056640625 1500.155029296875
vertex -13.512267112731934 225.62173461914062 1505.8167724609375
endloop
endfacet
facet normal -0.1776287853717804 0.9298037886619568 -0.3223554491996765
outer loop
vertex -13.3766508102417 223.67832946777344 1500.136474609375
vertex -13.512267112731934 225.62173461914062 1505.8167724609375
vertex -13.268867492675781 225.66175842285156 1505.798095703125
endloop
endfacet
facet normal -0.5406513214111328 0.7970967888832092 -0.2689475119113922
outer loop
vertex -13.27637767791748 221.81991577148438 1494.427001953125
vertex -13.484434127807617 221.6949005126953 1494.4747314453125
vertex -13.3766508102417 223.67832946777344 1500.136474609375
endloop
endfacet
facet normal -0.5407629609107971 0.7970279455184937 -0.26892706751823425
outer loop
vertex -13.27637767791748 221.81991577148438 1494.427001953125
vertex -13.3766508102417 223.67832946777344 1500.136474609375
vertex -13.168594360351562 223.8033447265625 1500.088623046875
endloop
endfacet
facet normal -0.8213523626327515 0.5430404543876648 -0.174606055021286
outer loop
vertex -13.243124008178711 220.02743530273438 1488.69580078125
vertex -13.384161949157715 219.83648681640625 1488.765380859375
vertex -13.27637767791748 221.81991577148438 1494.427001953125
endloop
endfacet
facet normal -0.821354329586029 0.5430377721786499 -0.17460522055625916
outer loop
vertex -13.243124008178711 220.02743530273438 1488.69580078125
vertex -13.27637767791748 221.81991577148438 1494.427001953125
vertex -13.135340690612793 222.0108642578125 1494.357421875
endloop
endfacet
facet normal -0.9770126938819885 0.20631320774555206 -0.053676389157772064
outer loop
vertex -13.298360824584961 218.27182006835938 1482.9532470703125
vertex -13.350907325744629 218.04400634765625 1483.0340576171875
vertex -13.243124008178711 220.02743530273438 1488.69580078125
endloop
endfacet
facet normal -0.9770126342773438 0.20631320774555206 -0.053676385432481766
outer loop
vertex -13.298360824584961 218.27182006835938 1482.9532470703125
vertex -13.243124008178711 220.02743530273438 1488.69580078125
vertex -13.190577507019043 220.2552490234375 1488.614990234375
endloop
endfacet
facet normal -0.9839308857917786 -0.16183529794216156 0.07542718946933746
outer loop
vertex -13.45008659362793 216.51840209960938 1477.2119140625
vertex -13.406144142150879 216.28839111328125 1477.2916259765625
vertex -13.298360824584961 218.27182006835938 1482.9532470703125
endloop
endfacet
facet normal -0.9839309453964233 -0.1618352234363556 0.07542715966701508
outer loop
vertex -13.45008659362793 216.51840209960938 1477.2119140625
vertex -13.298360824584961 218.27182006835938 1482.9532470703125
vertex -13.342303276062012 218.5018310546875 1482.87353515625
endloop
endfacet
facet normal -0.8410626649856567 -0.50532066822052 0.1930401474237442
outer loop
vertex -13.69161319732666 214.73216247558594 1471.4837646484375
vertex -13.557869911193848 214.53497314453125 1471.55029296875
vertex -13.45008659362793 216.51840209960938 1477.2119140625
endloop
endfacet
facet normal -0.8410626649856567 -0.5053207278251648 0.1930401474237442
outer loop
vertex -13.69161319732666 214.73216247558594 1471.4837646484375
vertex -13.45008659362793 216.51840209960938 1477.2119140625
vertex -13.583829879760742 216.71559143066406 1477.1453857421875
endloop
endfacet
facet normal 0.1776290088891983 -0.9298036694526672 0.3223554193973541
outer loop
vertex -14.3798828125 214.87750244140625 1471.4459228515625
vertex -14.136483192443848 214.9175262451172 1471.42724609375
vertex -14.272099494934082 216.86093139648438 1477.1075439453125
endloop
endfacet
facet normal 0.1776287853717804 -0.9298037886619568 0.3223554491996765
outer loop
vertex -14.136483192443848 214.9175262451172 1471.42724609375
vertex -14.02869987487793 216.9009552001953 1477.0888671875
vertex -14.272099494934082 216.86093139648438 1477.1075439453125
endloop
endfacet
facet normal 0.540651261806488 -0.7970967888832092 0.2689475119113922
outer loop
vertex -14.480155944824219 216.7359161376953 1477.1552734375
vertex -14.272099494934082 216.86093139648438 1477.1075439453125
vertex -14.3723726272583 218.71934509277344 1482.8170166015625
endloop
endfacet
facet normal 0.5407629609107971 -0.7970279455184937 0.26892706751823425
outer loop
vertex -14.272099494934082 216.86093139648438 1477.1075439453125
vertex -14.164316177368164 218.8443603515625 1482.7691650390625
vertex -14.3723726272583 218.71934509277344 1482.8170166015625
endloop
endfacet
facet normal 0.8213542103767395 -0.5430379509925842 0.17460528016090393
outer loop
vertex -14.513409614562988 218.5283966064453 1482.8865966796875
vertex -14.3723726272583 218.71934509277344 1482.8170166015625
vertex -14.40562629699707 220.51182556152344 1488.5482177734375
endloop
endfacet
facet normal 0.821352481842041 -0.5430402755737305 0.17460596561431885
outer loop
vertex -14.3723726272583 218.71934509277344 1482.8170166015625
vertex -14.264588356018066 220.70277404785156 1488.4786376953125
vertex -14.40562629699707 220.51182556152344 1488.5482177734375
endloop
endfacet
facet normal 0.9770126342773438 -0.20631283521652222 0.05367741361260414
outer loop
vertex -14.458172798156738 220.2840118408203 1488.6290283203125
vertex -14.40562629699707 220.51182556152344 1488.5482177734375
vertex -14.35038948059082 222.26744079589844 1494.2906494140625
endloop
endfacet
facet normal 0.9770127534866333 -0.20631283521652222 0.05367741361260414
outer loop
vertex -14.40562629699707 220.51182556152344 1488.5482177734375
vertex -14.297842979431152 222.49525451660156 1494.2098388671875
vertex -14.35038948059082 222.26744079589844 1494.2906494140625
endloop
endfacet
facet normal 0.9839310050010681 0.16183580458164215 -0.07542573660612106
outer loop
vertex -14.30644702911377 222.0374298095703 1494.370361328125
vertex -14.35038948059082 222.26744079589844 1494.2906494140625
vertex -14.198663711547852 224.02085876464844 1500.0321044921875
endloop
endfacet
facet normal 0.9839309453964233 0.16183586418628693 -0.07542577385902405
outer loop
vertex -14.35038948059082 222.26744079589844 1494.2906494140625
vertex -14.242606163024902 224.25086975097656 1499.952392578125
vertex -14.198663711547852 224.02085876464844 1500.0321044921875
endloop
endfacet
facet normal 0.8410626649856567 0.50532066822052 -0.19304011762142181
outer loop
vertex -14.064920425415039 223.82366943359375 1500.0986328125
vertex -14.198663711547852 224.02085876464844 1500.0321044921875
vertex -13.957137107849121 225.80709838867188 1505.76025390625
endloop
endfacet
facet normal 0.8410643935203552 0.5053180456161499 -0.1930394172668457
outer loop
vertex -14.198663711547852 224.02085876464844 1500.0321044921875
vertex -14.090879440307617 226.00428771972656 1505.6937255859375
vertex -13.957137107849121 225.80709838867188 1505.76025390625
endloop
endfacet
facet normal 0.5701658129692078 0.7718808054924011 -0.2812667191028595
outer loop
vertex -13.753954887390137 225.67276000976562 1505.803466796875
vertex -13.957137107849121 225.80709838867188 1505.76025390625
vertex -13.646170616149902 227.65618896484375 1511.465087890625
endloop
endfacet
facet normal 0.570164144039154 0.7718819379806519 -0.281266987323761
outer loop
vertex -13.957137107849121 225.80709838867188 1505.76025390625
vertex -13.849353790283203 227.79052734375 1511.421875
vertex -13.646170616149902 227.65618896484375 1511.465087890625
endloop
endfacet
facet normal 0.2124178558588028 0.9209550023078918 -0.326680988073349
outer loop
vertex -13.4044828414917 227.60516357421875 1511.4783935546875
vertex -13.646170616149902 227.65618896484375 1511.465087890625
vertex -13.296699523925781 229.58859252929688 1517.1400146484375
endloop
endfacet
facet normal 0.21225996315479279 0.9209905862808228 -0.3266834020614624
outer loop
vertex -13.646170616149902 227.65618896484375 1511.465087890625
vertex -13.538387298583984 229.63961791992188 1517.1268310546875
vertex -13.296699523925781 229.58859252929688 1517.1400146484375
endloop
endfacet
facet normal -0.1776290088891983 0.9298036694526672 -0.32235535979270935
outer loop
vertex -13.268867492675781 225.66175842285156 1505.798095703125
vertex -13.512267112731934 225.62173461914062 1505.8167724609375
vertex -13.161083221435547 227.6451873779297 1511.459716796875
endloop
endfacet
facet normal -0.17762939631938934 0.9298036098480225 -0.32235532999038696
outer loop
vertex -13.512267112731934 225.62173461914062 1505.8167724609375
vertex -13.4044828414917 227.60516357421875 1511.4783935546875
vertex -13.161083221435547 227.6451873779297 1511.459716796875
endloop
endfacet
facet normal -0.5407629013061523 0.7970297336578369 -0.2689218819141388
outer loop
vertex -13.168594360351562 223.8033447265625 1500.088623046875
vertex -13.3766508102417 223.67832946777344 1500.136474609375
vertex -13.060811042785645 225.78677368164062 1505.7503662109375
endloop
endfacet
facet normal -0.5406513810157776 0.7970951199531555 -0.26895269751548767
outer loop
vertex -13.3766508102417 223.67832946777344 1500.136474609375
vertex -13.268867492675781 225.66175842285156 1505.798095703125
vertex -13.060811042785645 225.78677368164062 1505.7503662109375
endloop
endfacet
facet normal -0.8213542103767395 0.543038010597229 -0.17460516095161438
outer loop
vertex -13.135340690612793 222.0108642578125 1494.357421875
vertex -13.27637767791748 221.81991577148438 1494.427001953125
vertex -13.027556419372559 223.99429321289062 1500.01904296875
endloop
endfacet
facet normal -0.8213523030281067 0.5430405139923096 -0.17460618913173676
outer loop
vertex -13.27637767791748 221.81991577148438 1494.427001953125
vertex -13.168594360351562 223.8033447265625 1500.088623046875
vertex -13.027556419372559 223.99429321289062 1500.01904296875
endloop
endfacet
facet normal -0.9770126342773438 0.206312894821167 -0.0536772683262825
outer loop
vertex -13.190577507019043 220.2552490234375 1488.614990234375
vertex -13.243124008178711 220.02743530273438 1488.69580078125
vertex -13.082793235778809 222.23867797851562 1494.276611328125
endloop
endfacet
facet normal -0.9770118594169617 0.2063162922859192 -0.053678642958402634
outer loop
vertex -13.243124008178711 220.02743530273438 1488.69580078125
vertex -13.135340690612793 222.0108642578125 1494.357421875
vertex -13.082793235778809 222.23867797851562 1494.276611328125
endloop
endfacet
facet normal -0.9839308857917786 -0.16183523833751678 0.0754273310303688
outer loop
vertex -13.342303276062012 218.5018310546875 1482.87353515625
vertex -13.298360824584961 218.27182006835938 1482.9532470703125
vertex -13.234519004821777 220.48526000976562 1488.53515625
endloop
endfacet
facet normal -0.9839382171630859 -0.16179774701595306 0.07541254162788391
outer loop
vertex -13.298360824584961 218.27182006835938 1482.9532470703125
vertex -13.190577507019043 220.2552490234375 1488.614990234375
vertex -13.234519004821777 220.48526000976562 1488.53515625
endloop
endfacet
facet normal -0.8410627245903015 -0.50532066822052 0.19304028153419495
outer loop
vertex -13.583829879760742 216.71559143066406 1477.1453857421875
vertex -13.45008659362793 216.51840209960938 1477.2119140625
vertex -13.476045608520508 218.6990203857422 1482.8070068359375
endloop
endfacet
facet normal -0.841064453125 -0.5053181648254395 0.19303931295871735
outer loop
vertex -13.45008659362793 216.51840209960938 1477.2119140625
vertex -13.342303276062012 218.5018310546875 1482.87353515625
vertex -13.476045608520508 218.6990203857422 1482.8070068359375
endloop
endfacet
facet normal -0.5701658129692078 -0.7718808054924011 0.28126659989356995
outer loop
vertex -13.894795417785645 214.8665008544922 1471.4405517578125
vertex -13.69161319732666 214.73216247558594 1471.4837646484375
vertex -13.787012100219727 216.8499298095703 1477.1021728515625
endloop
endfacet
facet normal -0.5701655149459839 -0.7718809843063354 0.2812667191028595
outer loop
vertex -13.69161319732666 214.73216247558594 1471.4837646484375
vertex -13.583829879760742 216.71559143066406 1477.1453857421875
vertex -13.787012100219727 216.8499298095703 1477.1021728515625
endloop
endfacet
facet normal -0.2124178558588028 -0.9209550023078918 0.3266809582710266
outer loop
vertex -14.136483192443848 214.9175262451172 1471.42724609375
vertex -13.894795417785645 214.8665008544922 1471.4405517578125
vertex -13.787012100219727 216.8499298095703 1477.1021728515625
endloop
endfacet
facet normal -0.21241773664951324 -0.9209550023078918 0.3266809582710266
outer loop
vertex -14.136483192443848 214.9175262451172 1471.42724609375
vertex -13.787012100219727 216.8499298095703 1477.1021728515625
vertex -14.02869987487793 216.9009552001953 1477.0888671875
endloop
endfacet
facet normal 0.17762887477874756 -0.9298058748245239 0.3223491907119751
outer loop
vertex -14.272099494934082 216.86093139648438 1477.1075439453125
vertex -14.02869987487793 216.9009552001953 1477.0888671875
vertex -13.920916557312012 218.88438415527344 1482.7506103515625
endloop
endfacet
facet normal 0.1774728000164032 -0.9298293590545654 0.322367399930954
outer loop
vertex -14.272099494934082 216.86093139648438 1477.1075439453125
vertex -13.920916557312012 218.88438415527344 1482.7506103515625
vertex -14.164316177368164 218.8443603515625 1482.7691650390625
endloop
endfacet
facet normal 0.5407629013061523 -0.7970297336578369 0.26892179250717163
outer loop
vertex -14.3723726272583 218.71934509277344 1482.8170166015625
vertex -14.164316177368164 218.8443603515625 1482.7691650390625
vertex -14.05653190612793 220.82778930664062 1488.430908203125
endloop
endfacet
facet normal 0.5406513214111328 -0.7970951199531555 0.2689526081085205
outer loop
vertex -14.3723726272583 218.71934509277344 1482.8170166015625
vertex -14.05653190612793 220.82778930664062 1488.430908203125
vertex -14.264588356018066 220.70277404785156 1488.4786376953125
endloop
endfacet
facet normal 0.821352481842041 -0.54304039478302 0.17460615932941437
outer loop
vertex -14.40562629699707 220.51182556152344 1488.5482177734375
vertex -14.264588356018066 220.70277404785156 1488.4786376953125
vertex -14.156805038452148 222.6862030029297 1494.1402587890625
endloop
endfacet
facet normal 0.8213523030281067 -0.5430405139923096 0.17460618913173676
outer loop
vertex -14.40562629699707 220.51182556152344 1488.5482177734375
vertex -14.156805038452148 222.6862030029297 1494.1402587890625
vertex -14.297842979431152 222.49525451660156 1494.2098388671875
endloop
endfacet
facet normal 0.9770126342773438 -0.20631325244903564 0.05367623269557953
outer loop
vertex -14.35038948059082 222.26744079589844 1494.2906494140625
vertex -14.297842979431152 222.49525451660156 1494.2098388671875
vertex -14.190058708190918 224.4786834716797 1499.87158203125
endloop
endfacet
facet normal 0.9770119190216064 -0.20631669461727142 0.053677622228860855
outer loop
vertex -14.35038948059082 222.26744079589844 1494.2906494140625
vertex -14.190058708190918 224.4786834716797 1499.87158203125
vertex -14.242606163024902 224.25086975097656 1499.952392578125
endloop
endfacet
facet normal 0.9839308857917786 0.16183523833751678 -0.0754273310303688
outer loop
vertex -14.198663711547852 224.02085876464844 1500.0321044921875
vertex -14.242606163024902 224.25086975097656 1499.952392578125
vertex -14.134821891784668 226.2342987060547 1505.614013671875
endloop
endfacet
facet normal 0.9839309453964233 0.16183525323867798 -0.07542734593153
outer loop
vertex -14.198663711547852 224.02085876464844 1500.0321044921875
vertex -14.134821891784668 226.2342987060547 1505.614013671875
vertex -14.090879440307617 226.00428771972656 1505.6937255859375
endloop
endfacet
facet normal 0.841064453125 0.5053181052207947 -0.19303928315639496
outer loop
vertex -13.957137107849121 225.80709838867188 1505.76025390625
vertex -14.090879440307617 226.00428771972656 1505.6937255859375
vertex -13.9830961227417 227.9877166748047 1511.3553466796875
endloop
endfacet
facet normal 0.841064453125 0.5053181648254395 -0.19303931295871735
outer loop
vertex -13.957137107849121 225.80709838867188 1505.76025390625
vertex -13.9830961227417 227.9877166748047 1511.3553466796875
vertex -13.849353790283203 227.79052734375 1511.421875
endloop
endfacet
facet normal 0.5701640844345093 0.7718839049339294 -0.28126171231269836
outer loop
vertex -13.646170616149902 227.65618896484375 1511.465087890625
vertex -13.849353790283203 227.79052734375 1511.421875
vertex -13.741569519042969 229.77395629882812 1517.0836181640625
endloop
endfacet
facet normal 0.5701659917831421 0.7718826532363892 -0.28126126527786255
outer loop
vertex -13.646170616149902 227.65618896484375 1511.465087890625
vertex -13.741569519042969 229.77395629882812 1517.0836181640625
vertex -13.538387298583984 229.63961791992188 1517.1268310546875
endloop
endfacet
facet normal 0.21226035058498383 0.9209882616996765 -0.32668960094451904
outer loop
vertex -13.296699523925781 229.58859252929688 1517.1400146484375
vertex -13.538387298583984 229.63961791992188 1517.1268310546875
vertex -13.430603981018066 231.623046875 1522.7884521484375
endloop
endfacet
facet normal 0.21241752803325653 0.9209573268890381 -0.32667475938796997
outer loop
vertex -13.296699523925781 229.58859252929688 1517.1400146484375
vertex -13.430603981018066 231.623046875 1522.7884521484375
vertex -13.188916206359863 231.572021484375 1522.8017578125
endloop
endfacet
facet normal -0.1776290088891983 0.9298036694526672 -0.32235538959503174
outer loop
vertex -13.161083221435547 227.6451873779297 1511.459716796875
vertex -13.4044828414917 227.60516357421875 1511.4783935546875
vertex -13.296699523925781 229.58859252929688 1517.1400146484375
endloop
endfacet
facet normal -0.17747199535369873 0.9298316240310669 -0.3223612606525421
outer loop
vertex -13.161083221435547 227.6451873779297 1511.459716796875
vertex -13.296699523925781 229.58859252929688 1517.1400146484375
vertex -13.053299903869629 229.6286163330078 1517.1214599609375
endloop
endfacet
facet normal -0.5406514406204224 0.7970950603485107 -0.2689525783061981
outer loop
vertex -13.060811042785645 225.78677368164062 1505.7503662109375
vertex -13.268867492675781 225.66175842285156 1505.798095703125
vertex -13.161083221435547 227.6451873779297 1511.459716796875
endloop
endfacet
facet normal -0.5406513214111328 0.7970951199531555 -0.2689526379108429
outer loop
vertex -13.060811042785645 225.78677368164062 1505.7503662109375
vertex -13.161083221435547 227.6451873779297 1511.459716796875
vertex -12.95302677154541 227.77020263671875 1511.4119873046875
endloop
endfacet
facet normal -0.8213523626327515 0.5430415868759155 -0.17460282146930695
outer loop
vertex -13.027556419372559 223.99429321289062 1500.01904296875
vertex -13.168594360351562 223.8033447265625 1500.088623046875
vertex -13.060811042785645 225.78677368164062 1505.7503662109375
endloop
endfacet
facet normal -0.8213523626327515 0.5430415272712708 -0.17460279166698456
outer loop
vertex -13.027556419372559 223.99429321289062 1500.01904296875
vertex -13.060811042785645 225.78677368164062 1505.7503662109375
vertex -12.91977310180664 225.97772216796875 1505.6807861328125
endloop
endfacet
facet normal -0.9770118594169617 0.20631632208824158 -0.053678497672080994
outer loop
vertex -13.082793235778809 222.23867797851562 1494.276611328125
vertex -13.135340690612793 222.0108642578125 1494.357421875
vertex -13.027556419372559 223.99429321289062 1500.01904296875
endloop
endfacet
facet normal -0.9770127534866333 0.20631283521652222 -0.05367741361260414
outer loop
vertex -13.082793235778809 222.23867797851562 1494.276611328125
vertex -13.027556419372559 223.99429321289062 1500.01904296875
vertex -12.97500991821289 224.22210693359375 1499.938232421875
endloop
endfacet
facet normal -0.9839382171630859 -0.16179709136486053 0.07541410624980927
outer loop
vertex -13.234519004821777 220.48526000976562 1488.53515625
vertex -13.190577507019043 220.2552490234375 1488.614990234375
vertex -13.082793235778809 222.23867797851562 1494.276611328125
endloop
endfacet
facet normal -0.9839309453964233 -0.16183586418628693 0.07542577385902405
outer loop
vertex -13.234519004821777 220.48526000976562 1488.53515625
vertex -13.082793235778809 222.23867797851562 1494.276611328125
vertex -13.12673568725586 222.46868896484375 1494.1968994140625
endloop
endfacet
facet normal -0.841064453125 -0.5053180456161499 0.1930394172668457
outer loop
vertex -13.476045608520508 218.6990203857422 1482.8070068359375
vertex -13.342303276062012 218.5018310546875 1482.87353515625
vertex -13.234519004821777 220.48526000976562 1488.53515625
endloop
endfacet
facet normal -0.8410626649856567 -0.5053207278251648 0.1930401474237442
outer loop
vertex -13.476045608520508 218.6990203857422 1482.8070068359375
vertex -13.234519004821777 220.48526000976562 1488.53515625
vertex -13.36826229095459 220.6824493408203 1488.4686279296875
endloop
endfacet
facet normal -0.5701658725738525 -0.7718808054924011 0.2812667489051819
outer loop
vertex -13.787012100219727 216.8499298095703 1477.1021728515625
vertex -13.583829879760742 216.71559143066406 1477.1453857421875
vertex -13.476045608520508 218.6990203857422 1482.8070068359375
endloop
endfacet
facet normal -0.5701252222061157 -0.7719084024429321 0.28127342462539673
outer loop
vertex -13.787012100219727 216.8499298095703 1477.1021728515625
vertex -13.476045608520508 218.6990203857422 1482.8070068359375
vertex -13.679228782653809 218.83334350585938 1482.7637939453125
endloop
endfacet
facet normal -0.21241797506809235 -0.9209572672843933 0.3266747295856476
outer loop
vertex -14.02869987487793 216.9009552001953 1477.0888671875
vertex -13.787012100219727 216.8499298095703 1477.1021728515625
vertex -13.920916557312012 218.88438415527344 1482.7506103515625
endloop
endfacet
facet normal -0.21231609582901 -0.9209772944450378 0.3266843855381012
outer loop
vertex -13.787012100219727 216.8499298095703 1477.1021728515625
vertex -13.679228782653809 218.83334350585938 1482.7637939453125
vertex -13.920916557312012 218.88438415527344 1482.7506103515625
endloop
endfacet
facet normal 0.17747236788272858 -0.9298315644264221 0.32236117124557495
outer loop
vertex -14.164316177368164 218.8443603515625 1482.7691650390625
vertex -13.920916557312012 218.88438415527344 1482.7506103515625
vertex -14.05653190612793 220.82778930664062 1488.430908203125
endloop
endfacet
facet normal 0.1776287853717804 -0.9298037886619568 0.3223554193973541
outer loop
vertex -13.920916557312012 218.88438415527344 1482.7506103515625
vertex -13.813132286071777 220.86781311035156 1488.4122314453125
vertex -14.05653190612793 220.82778930664062 1488.430908203125
endloop
endfacet
facet normal 0.5406513810157776 -0.797095000743866 0.2689526677131653
outer loop
vertex -14.264588356018066 220.70277404785156 1488.4786376953125
vertex -14.05653190612793 220.82778930664062 1488.430908203125
vertex -14.156805038452148 222.6862030029297 1494.1402587890625
endloop
endfacet
facet normal 0.5406513214111328 -0.7970951199531555 0.26895269751548767
outer loop
vertex -14.05653190612793 220.82778930664062 1488.430908203125
vertex -13.948748588562012 222.81121826171875 1494.092529296875
vertex -14.156805038452148 222.6862030029297 1494.1402587890625
endloop
endfacet
facet normal 0.8213523626327515 -0.5430416464805603 0.1746026873588562
outer loop
vertex -14.297842979431152 222.49525451660156 1494.2098388671875
vertex -14.156805038452148 222.6862030029297 1494.1402587890625
vertex -14.190058708190918 224.4786834716797 1499.87158203125
endloop
endfacet
facet normal 0.8213542699813843 -0.5430391430854797 0.17460192739963531
outer loop
vertex -14.156805038452148 222.6862030029297 1494.1402587890625
vertex -14.04902172088623 224.6696319580078 1499.802001953125
vertex -14.190058708190918 224.4786834716797 1499.87158203125
endloop
endfacet
facet normal 0.9770118594169617 -0.20631636679172516 0.05367850139737129
outer loop
vertex -14.242606163024902 224.25086975097656 1499.952392578125
vertex -14.190058708190918 224.4786834716797 1499.87158203125
vertex -14.134821891784668 226.2342987060547 1505.614013671875
endloop
endfacet
facet normal 0.9770127534866333 -0.20631283521652222 0.05367741361260414
outer loop
vertex -14.190058708190918 224.4786834716797 1499.87158203125
vertex -14.082275390625 226.4621124267578 1505.533203125
vertex -14.134821891784668 226.2342987060547 1505.614013671875
endloop
endfacet
facet normal 0.9839308857917786 0.16183529794216156 -0.07542718201875687
outer loop
vertex -14.090879440307617 226.00428771972656 1505.6937255859375
vertex -14.134821891784668 226.2342987060547 1505.614013671875
vertex -13.9830961227417 227.9877166748047 1511.3553466796875
endloop
endfacet
facet normal 0.9839292168617249 0.1618446558713913 -0.0754299908876419
outer loop
vertex -14.134821891784668 226.2342987060547 1505.614013671875
vertex -14.02703857421875 228.21771240234375 1511.275634765625
vertex -13.9830961227417 227.9877166748047 1511.3553466796875
endloop
endfacet
facet normal 0.841064453125 0.505319356918335 -0.19303570687770844
outer loop
vertex -13.849353790283203 227.79052734375 1511.421875
vertex -13.9830961227417 227.9877166748047 1511.3553466796875
vertex -13.741569519042969 229.77395629882812 1517.0836181640625
endloop
endfacet
facet normal 0.8410629034042358 0.5053218007087708 -0.19303636252880096
outer loop
vertex -13.9830961227417 227.9877166748047 1511.3553466796875
vertex -13.875312805175781 229.9711456298828 1517.01708984375
vertex -13.741569519042969 229.77395629882812 1517.0836181640625
endloop
endfacet
facet normal 0.5701658129692078 0.7718808054924011 -0.28126659989356995
outer loop
vertex -13.538387298583984 229.63961791992188 1517.1268310546875
vertex -13.741569519042969 229.77395629882812 1517.0836181640625
vertex -13.430603981018066 231.623046875 1522.7884521484375
endloop
endfacet
facet normal 0.5701659321784973 0.7718807458877563 -0.28126659989356995
outer loop
vertex -13.741569519042969 229.77395629882812 1517.0836181640625
vertex -13.63378620147705 231.75738525390625 1522.7452392578125
vertex -13.430603981018066 231.623046875 1522.7884521484375
endloop
endfacet
facet normal 0.21241790056228638 0.9209558367729187 -0.3266788125038147
outer loop
vertex -13.188916206359863 231.572021484375 1522.8017578125
vertex -13.430603981018066 231.623046875 1522.7884521484375
vertex -13.081131935119629 233.55543518066406 1528.46337890625
endloop
endfacet
facet normal 0.21247287094593048 0.9209433794021606 -0.32667797803878784
outer loop
vertex -13.430603981018066 231.623046875 1522.7884521484375
vertex -13.322819709777832 233.60647583007812 1528.4500732421875
vertex -13.081131935119629 233.55543518066406 1528.46337890625
endloop
endfacet
facet normal -0.17747248709201813 0.9298294186592102 -0.322367399930954
outer loop
vertex -13.053299903869629 229.6286163330078 1517.1214599609375
vertex -13.296699523925781 229.58859252929688 1517.1400146484375
vertex -12.945516586303711 231.61204528808594 1522.7830810546875
endloop
endfacet
facet normal -0.17762918770313263 0.9298057556152344 -0.3223491907119751
outer loop
vertex -13.296699523925781 229.58859252929688 1517.1400146484375
vertex -13.188916206359863 231.572021484375 1522.8017578125
vertex -12.945516586303711 231.61204528808594 1522.7830810546875
endloop
endfacet
facet normal -0.5406513810157776 0.797095000743866 -0.2689526677131653
outer loop
vertex -12.95302677154541 227.77020263671875 1511.4119873046875
vertex -13.161083221435547 227.6451873779297 1511.459716796875
vertex -12.845243453979492 229.75363159179688 1517.0736083984375
endloop
endfacet
facet normal -0.5407628417015076 0.7970297336578369 -0.2689218819141388
outer loop
vertex -13.161083221435547 227.6451873779297 1511.459716796875
vertex -13.053299903869629 229.6286163330078 1517.1214599609375
vertex -12.845243453979492 229.75363159179688 1517.0736083984375
endloop
endfacet
facet normal -0.8213523626327515 0.54304039478302 -0.17460615932941437
outer loop
vertex -12.91977310180664 225.97772216796875 1505.6807861328125
vertex -13.060811042785645 225.78677368164062 1505.7503662109375
vertex -12.811989784240723 227.96115112304688 1511.3424072265625
endloop
endfacet
facet normal -0.8213542103767395 0.5430381298065186 -0.17460517585277557
outer loop
vertex -13.060811042785645 225.78677368164062 1505.7503662109375
vertex -12.95302677154541 227.77020263671875 1511.4119873046875
vertex -12.811989784240723 227.96115112304688 1511.3424072265625
endloop
endfacet
facet normal -0.9770126938819885 0.20631319284439087 -0.053676385432481766
outer loop
vertex -12.97500991821289 224.22210693359375 1499.938232421875
vertex -13.027556419372559 223.99429321289062 1500.01904296875
vertex -12.867226600646973 226.20553588867188 1505.5999755859375
endloop
endfacet
facet normal -0.9770126938819885 0.20631320774555206 -0.05367637798190117
outer loop
vertex -13.027556419372559 223.99429321289062 1500.01904296875
vertex -12.91977310180664 225.97772216796875 1505.6807861328125
vertex -12.867226600646973 226.20553588867188 1505.5999755859375
endloop
endfacet
facet normal -0.9839308857917786 -0.16183529794216156 0.07542718201875687
outer loop
vertex -13.12673568725586 222.46868896484375 1494.1968994140625
vertex -13.082793235778809 222.23867797851562 1494.276611328125
vertex -13.018952369689941 224.45211791992188 1499.8585205078125
endloop
endfacet
facet normal -0.9839309453964233 -0.16183531284332275 0.07542719691991806
outer loop
vertex -13.082793235778809 222.23867797851562 1494.276611328125
vertex -12.97500991821289 224.22210693359375 1499.938232421875
vertex -13.018952369689941 224.45211791992188 1499.8585205078125
endloop
endfacet
facet normal -0.8410627245903015 -0.5053220391273499 0.19303643703460693
outer loop
vertex -13.36826229095459 220.6824493408203 1488.4686279296875
vertex -13.234519004821777 220.48526000976562 1488.53515625
vertex -13.260478973388672 222.66587829589844 1494.13037109375
endloop
endfacet
facet normal -0.8410627245903015 -0.5053220987319946 0.1930364966392517
outer loop
vertex -13.234519004821777 220.48526000976562 1488.53515625
vertex -13.12673568725586 222.46868896484375 1494.1968994140625
vertex -13.260478973388672 222.66587829589844 1494.13037109375
endloop
endfacet
facet normal -0.5701249837875366 -0.7719097137451172 0.28126999735832214
outer loop
vertex -13.679228782653809 218.83334350585938 1482.7637939453125
vertex -13.476045608520508 218.6990203857422 1482.8070068359375
vertex -13.571444511413574 220.8167724609375 1488.425537109375
endloop
endfacet
facet normal -0.5700130462646484 -0.7719818353652954 0.28129908442497253
outer loop
vertex -13.476045608520508 218.6990203857422 1482.8070068359375
vertex -13.36826229095459 220.6824493408203 1488.4686279296875
vertex -13.571444511413574 220.8167724609375 1488.425537109375
endloop
endfacet
facet normal -0.21231599152088165 -0.9209787845611572 0.32668036222457886
outer loop
vertex -13.920916557312012 218.88438415527344 1482.7506103515625
vertex -13.679228782653809 218.83334350585938 1482.7637939453125
vertex -13.571444511413574 220.8167724609375 1488.425537109375
endloop
endfacet
facet normal -0.21247287094593048 -0.9209433794021606 0.32667797803878784
outer loop
vertex -13.920916557312012 218.88438415527344 1482.7506103515625
vertex -13.571444511413574 220.8167724609375 1488.425537109375
vertex -13.813132286071777 220.86781311035156 1488.4122314453125
endloop
endfacet
facet normal 0.1776290088891983 -0.9298036694526672 0.3223554193973541
outer loop
vertex -14.05653190612793 220.82778930664062 1488.430908203125
vertex -13.813132286071777 220.86781311035156 1488.4122314453125
vertex -13.70534896850586 222.8512420654297 1494.0738525390625
endloop
endfacet
facet normal 0.17762939631938934 -0.9298036098480225 0.32235538959503174
outer loop
vertex -14.05653190612793 220.82778930664062 1488.430908203125
vertex -13.70534896850586 222.8512420654297 1494.0738525390625
vertex -13.948748588562012 222.81121826171875 1494.092529296875
endloop
endfacet
facet normal 0.5406514406204224 -0.7970957159996033 0.26895076036453247
outer loop
vertex -14.156805038452148 222.6862030029297 1494.1402587890625
vertex -13.948748588562012 222.81121826171875 1494.092529296875
vertex -13.840965270996094 224.7946319580078 1499.754150390625
endloop
endfacet
facet normal 0.5407218337059021 -0.7970545291900635 0.2689313292503357
outer loop
vertex -14.156805038452148 222.6862030029297 1494.1402587890625
vertex -13.840965270996094 224.7946319580078 1499.754150390625
vertex -14.04902172088623 224.6696319580078 1499.802001953125
endloop
endfacet
facet normal 0.8213542699813843 -0.543038010597229 0.17460516095161438
outer loop
vertex -14.190058708190918 224.4786834716797 1499.87158203125
vertex -14.04902172088623 224.6696319580078 1499.802001953125
vertex -13.941237449645996 226.65306091308594 1505.463623046875
endloop
endfacet
facet normal 0.8213523030281067 -0.5430405139923096 0.17460618913173676
outer loop
vertex -14.190058708190918 224.4786834716797 1499.87158203125
vertex -13.941237449645996 226.65306091308594 1505.463623046875
vertex -14.082275390625 226.4621124267578 1505.533203125
endloop
endfacet
facet normal 0.9770126342773438 -0.2063128501176834 0.05367741361260414
outer loop
vertex -14.134821891784668 226.2342987060547 1505.614013671875
vertex -14.082275390625 226.4621124267578 1505.533203125
vertex -13.974492073059082 228.44554138183594 1511.19482421875
endloop
endfacet
facet normal 0.9770153760910034 -0.20630133152008057 0.05367276072502136
outer loop
vertex -14.134821891784668 226.2342987060547 1505.614013671875
vertex -13.974492073059082 228.44554138183594 1511.19482421875
vertex -14.02703857421875 228.21771240234375 1511.275634765625
endloop
endfacet
facet normal 0.9839292168617249 0.16184508800506592 -0.07542896270751953
outer loop
vertex -13.9830961227417 227.9877166748047 1511.3553466796875
vertex -14.02703857421875 228.21771240234375 1511.275634765625
vertex -13.919255256652832 230.20114135742188 1516.9373779296875
endloop
endfacet
facet normal 0.9839292168617249 0.16184508800506592 -0.07542896270751953
outer loop
vertex -13.9830961227417 227.9877166748047 1511.3553466796875
vertex -13.919255256652832 230.20114135742188 1516.9373779296875
vertex -13.875312805175781 229.9711456298828 1517.01708984375
endloop
endfacet
facet normal 0.8410627841949463 0.5053210854530334 -0.19303908944129944
outer loop
vertex -13.741569519042969 229.77395629882812 1517.0836181640625
vertex -13.875312805175781 229.9711456298828 1517.01708984375
vertex -13.767528533935547 231.95455932617188 1522.6787109375
endloop
endfacet
facet normal 0.841047465801239 0.5053430795669556 -0.19304771721363068
outer loop
vertex -13.741569519042969 229.77395629882812 1517.0836181640625
vertex -13.767528533935547 231.95455932617188 1522.6787109375
vertex -13.63378620147705 231.75738525390625 1522.7452392578125
endloop
endfacet
facet normal 0.570165753364563 0.7718808054924011 -0.28126659989356995
outer loop
vertex -13.430603981018066 231.623046875 1522.7884521484375
vertex -13.63378620147705 231.75738525390625 1522.7452392578125
vertex -13.526002883911133 233.74081420898438 1528.4068603515625
endloop
endfacet
facet normal 0.5701636672019958 0.771882176399231 -0.2812671661376953
outer loop
vertex -13.430603981018066 231.623046875 1522.7884521484375
vertex -13.526002883911133 233.74081420898438 1528.4068603515625
vertex -13.322819709777832 233.60647583007812 1528.4500732421875
endloop
endfacet
facet normal -0.17762897908687592 0.9298045039176941 -0.32235315442085266
outer loop
vertex -12.945516586303711 231.61204528808594 1522.7830810546875
vertex -13.188916206359863 231.572021484375 1522.8017578125
vertex -13.081131935119629 233.55543518066406 1528.46337890625
endloop
endfacet
facet normal -0.1776854693889618 0.9297944903373718 -0.3223510980606079
outer loop
vertex -12.945516586303711 231.61204528808594 1522.7830810546875
vertex -13.081131935119629 233.55543518066406 1528.46337890625
vertex -12.837732315063477 233.59547424316406 1528.4447021484375
endloop
endfacet
facet normal -0.5407630205154419 0.7970279455184937 -0.26892703771591187
outer loop
vertex -12.845243453979492 229.75363159179688 1517.0736083984375
vertex -13.053299903869629 229.6286163330078 1517.1214599609375
vertex -12.945516586303711 231.61204528808594 1522.7830810546875
endloop
endfacet
facet normal -0.5406098961830139 0.7971222400665283 -0.2689550518989563
outer loop
vertex -12.845243453979492 229.75363159179688 1517.0736083984375
vertex -12.945516586303711 231.61204528808594 1522.7830810546875
vertex -12.737460136413574 231.73704528808594 1522.7353515625
endloop
endfacet
facet normal -0.8213542103767395 0.5430379509925842 -0.17460528016090393
outer loop
vertex -12.811989784240723 227.96115112304688 1511.3424072265625
vertex -12.95302677154541 227.77020263671875 1511.4119873046875
vertex -12.845243453979492 229.75363159179688 1517.0736083984375
endloop
endfacet
facet normal -0.821352481842041 0.5430402755737305 -0.17460596561431885
outer loop
vertex -12.811989784240723 227.96115112304688 1511.3424072265625
vertex -12.845243453979492 229.75363159179688 1517.0736083984375
vertex -12.704205513000488 229.944580078125 1517.0040283203125
endloop
endfacet
facet normal -0.9770127534866333 0.2063128501176834 -0.05367741361260414
outer loop
vertex -12.867226600646973 226.20553588867188 1505.5999755859375
vertex -12.91977310180664 225.97772216796875 1505.6807861328125
vertex -12.811989784240723 227.96115112304688 1511.3424072265625
endloop
endfacet
facet normal -0.9770118594169617 0.20631635189056396 -0.05367850139737129
outer loop
vertex -12.867226600646973 226.20553588867188 1505.5999755859375
vertex -12.811989784240723 227.96115112304688 1511.3424072265625
vertex -12.759442329406738 228.18896484375 1511.2615966796875
endloop
endfacet
facet normal -0.9839310050010681 -0.16183580458164215 0.07542573660612106
outer loop
vertex -13.018952369689941 224.45211791992188 1499.8585205078125
vertex -12.97500991821289 224.22210693359375 1499.938232421875
vertex -12.867226600646973 226.20553588867188 1505.5999755859375
endloop
endfacet
facet normal -0.9839382171630859 -0.16179710626602173 0.07541412860155106
outer loop
vertex -13.018952369689941 224.45211791992188 1499.8585205078125
vertex -12.867226600646973 226.20553588867188 1505.5999755859375
vertex -12.911168098449707 226.435546875 1505.5201416015625
endloop
endfacet
facet normal -0.8410626649856567 -0.50532066822052 0.1930401474237442
outer loop
vertex -13.260478973388672 222.66587829589844 1494.13037109375
vertex -13.12673568725586 222.46868896484375 1494.1968994140625
vertex -13.018952369689941 224.45211791992188 1499.8585205078125
endloop
endfacet
facet normal -0.8410643935203552 -0.5053180456161499 0.1930394172668457
outer loop
vertex -13.260478973388672 222.66587829589844 1494.13037109375
vertex -13.018952369689941 224.45211791992188 1499.8585205078125
vertex -13.152694702148438 224.64930725097656 1499.7919921875
endloop
endfacet
facet normal -0.5700128674507141 -0.7719839811325073 0.2812938094139099
outer loop
vertex -13.571444511413574 220.8167724609375 1488.425537109375
vertex -13.36826229095459 220.6824493408203 1488.4686279296875
vertex -13.260478973388672 222.66587829589844 1494.13037109375
endloop
endfacet
facet normal -0.5701266527175903 -0.7719066739082336 0.2812749445438385
outer loop
vertex -13.571444511413574 220.8167724609375 1488.425537109375
vertex -13.260478973388672 222.66587829589844 1494.13037109375
vertex -13.463661193847656 222.80020141601562 1494.087158203125
endloop
endfacet
facet normal -0.21247337758541107 -0.9209433794021606 0.32667794823646545
outer loop
vertex -13.813132286071777 220.86781311035156 1488.4122314453125
vertex -13.571444511413574 220.8167724609375 1488.425537109375
vertex -13.70534896850586 222.8512420654297 1494.0738525390625
endloop
endfacet
facet normal -0.21247349679470062 -0.9209432601928711 0.32667791843414307
outer loop
vertex -13.571444511413574 220.8167724609375 1488.425537109375
vertex -13.463661193847656 222.80020141601562 1494.087158203125
vertex -13.70534896850586 222.8512420654297 1494.0738525390625
endloop
endfacet
facet normal 0.17762894928455353 -0.9298044443130493 0.32235315442085266
outer loop
vertex -13.948748588562012 222.81121826171875 1494.092529296875
vertex -13.70534896850586 222.8512420654297 1494.0738525390625
vertex -13.840965270996094 224.7946319580078 1499.754150390625
endloop
endfacet
facet normal 0.17752869427204132 -0.9298223257064819 0.3223569095134735
outer loop
vertex -13.70534896850586 222.8512420654297 1494.0738525390625
vertex -13.597565650939941 224.8346710205078 1499.735595703125
vertex -13.840965270996094 224.7946319580078 1499.754150390625
endloop
endfacet
facet normal 0.5407217144966125 -0.7970528602600098 0.26893648505210876
outer loop
vertex -14.04902172088623 224.6696319580078 1499.802001953125
vertex -13.840965270996094 224.7946319580078 1499.754150390625
vertex -13.941237449645996 226.65306091308594 1505.463623046875
endloop
endfacet
facet normal 0.5406096577644348 -0.7971218824386597 0.2689569890499115
outer loop
vertex -13.840965270996094 224.7946319580078 1499.754150390625
vertex -13.73318099975586 226.77806091308594 1505.4158935546875
vertex -13.941237449645996 226.65306091308594 1505.463623046875
endloop
endfacet
facet normal 0.8213523626327515 -0.54304039478302 0.17460615932941437
outer loop
vertex -14.082275390625 226.4621124267578 1505.533203125
vertex -13.941237449645996 226.65306091308594 1505.463623046875
vertex -13.974492073059082 228.44554138183594 1511.19482421875
endloop
endfacet
facet normal 0.821352481842041 -0.5430402159690857 0.1746060997247696
outer loop
vertex -13.941237449645996 226.65306091308594 1505.463623046875
vertex -13.833454132080078 228.63648986816406 1511.125244140625
vertex -13.974492073059082 228.44554138183594 1511.19482421875
endloop
endfacet
facet normal 0.9770153164863586 -0.2063014656305313 0.05367223173379898
outer loop
vertex -14.02703857421875 228.21771240234375 1511.275634765625
vertex -13.974492073059082 228.44554138183594 1511.19482421875
vertex -13.919255256652832 230.20114135742188 1516.9373779296875
endloop
endfacet
facet normal 0.9770144820213318 -0.2063051015138626 0.053673334419727325
outer loop
vertex -13.974492073059082 228.44554138183594 1511.19482421875
vertex -13.866707801818848 230.42897033691406 1516.8565673828125
vertex -13.919255256652832 230.20114135742188 1516.9373779296875
endloop
endfacet
facet normal 0.9839291572570801 0.1618446409702301 -0.07543015480041504
outer loop
vertex -13.875312805175781 229.9711456298828 1517.01708984375
vertex -13.919255256652832 230.20114135742188 1516.9373779296875
vertex -13.767528533935547 231.95455932617188 1522.6787109375
endloop
endfacet
facet normal 0.9839309453964233 0.161835178732872 -0.07542730122804642
outer loop
vertex -13.919255256652832 230.20114135742188 1516.9373779296875
vertex -13.811470985412598 232.1845703125 1522.5989990234375
vertex -13.767528533935547 231.95455932617188 1522.6787109375
endloop
endfacet
facet normal 0.8410476446151733 0.5053430199623108 -0.1930476725101471
outer loop
vertex -13.63378620147705 231.75738525390625 1522.7452392578125
vertex -13.767528533935547 231.95455932617188 1522.6787109375
vertex -13.526002883911133 233.74081420898438 1528.4068603515625
endloop
endfacet
facet normal 0.8410477042198181 0.5053428411483765 -0.19304761290550232
outer loop
vertex -13.767528533935547 231.95455932617188 1522.6787109375
vertex -13.659745216369629 233.93798828125 1528.34033203125
vertex -13.526002883911133 233.74081420898438 1528.4068603515625
endloop
endfacet
facet normal -0.5406100153923035 0.7971198558807373 -0.2689620852470398
outer loop
vertex -12.737460136413574 231.73704528808594 1522.7353515625
vertex -12.945516586303711 231.61204528808594 1522.7830810546875
vertex -12.62967586517334 233.72047424316406 1528.39697265625
endloop
endfacet
facet normal -0.5406101942062378 0.7971197366714478 -0.268962025642395
outer loop
vertex -12.945516586303711 231.61204528808594 1522.7830810546875
vertex -12.837732315063477 233.59547424316406 1528.4447021484375
vertex -12.62967586517334 233.72047424316406 1528.39697265625
endloop
endfacet
facet normal -0.8213523626327515 0.5430415868759155 -0.17460280656814575
outer loop
vertex -12.704205513000488 229.944580078125 1517.0040283203125
vertex -12.845243453979492 229.75363159179688 1517.0736083984375
vertex -12.59642219543457 231.92800903320312 1522.665771484375
endloop
endfacet
facet normal -0.82137131690979 0.543016254901886 -0.17459210753440857
outer loop
vertex -12.845243453979492 229.75363159179688 1517.0736083984375
vertex -12.737460136413574 231.73704528808594 1522.7353515625
vertex -12.59642219543457 231.92800903320312 1522.665771484375
endloop
endfacet
facet normal -0.9770118594169617 0.20631630718708038 -0.05367864668369293
outer loop
vertex -12.759442329406738 228.18896484375 1511.2615966796875
vertex -12.811989784240723 227.96115112304688 1511.3424072265625
vertex -12.65165901184082 230.17239379882812 1516.9232177734375
endloop
endfacet
facet normal -0.9770127534866333 0.206312894821167 -0.0536772757768631
outer loop
vertex -12.811989784240723 227.96115112304688 1511.3424072265625
vertex -12.704205513000488 229.944580078125 1517.0040283203125
vertex -12.65165901184082 230.17239379882812 1516.9232177734375
endloop
endfacet
facet normal -0.9839382767677307 -0.1617976576089859 0.07541250437498093
outer loop
vertex -12.911168098449707 226.435546875 1505.5201416015625
vertex -12.867226600646973 226.20553588867188 1505.5999755859375
vertex -12.803384780883789 228.41897583007812 1511.181884765625
endloop
endfacet
facet normal -0.9839309453964233 -0.16183525323867798 0.07542734593153
outer loop
vertex -12.867226600646973 226.20553588867188 1505.5999755859375
vertex -12.759442329406738 228.18896484375 1511.2615966796875
vertex -12.803384780883789 228.41897583007812 1511.181884765625
endloop
endfacet
facet normal -0.841064453125 -0.5053181052207947 0.19303928315639496
outer loop
vertex -13.152694702148438 224.64930725097656 1499.7919921875
vertex -13.018952369689941 224.45211791992188 1499.8585205078125
vertex -13.04491138458252 226.6327362060547 1505.45361328125
endloop
endfacet
facet normal -0.8410626649856567 -0.50532066822052 0.19304029643535614
outer loop
vertex -13.018952369689941 224.45211791992188 1499.8585205078125
vertex -12.911168098449707 226.435546875 1505.5201416015625
vertex -13.04491138458252 226.6327362060547 1505.45361328125
endloop
endfacet
facet normal -0.5701267123222351 -0.7719066739082336 0.2812749445438385
outer loop
vertex -13.463661193847656 222.80020141601562 1494.087158203125
vertex -13.260478973388672 222.66587829589844 1494.13037109375
vertex -13.355877876281738 224.78363037109375 1499.748779296875
endloop
endfacet
facet normal -0.5701248645782471 -0.7719079256057739 0.2812754213809967
outer loop
vertex -13.260478973388672 222.66587829589844 1494.13037109375
vertex -13.152694702148438 224.64930725097656 1499.7919921875
vertex -13.355877876281738 224.78363037109375 1499.748779296875
endloop
endfacet
facet normal -0.21247337758541107 -0.9209433794021606 0.32667794823646545
outer loop
vertex -13.70534896850586 222.8512420654297 1494.0738525390625
vertex -13.463661193847656 222.80020141601562 1494.087158203125
vertex -13.355877876281738 224.78363037109375 1499.748779296875
endloop
endfacet
facet normal -0.21231572329998016 -0.920978844165802 0.32668033242225647
outer loop
vertex -13.70534896850586 222.8512420654297 1494.0738525390625
vertex -13.355877876281738 224.78363037109375 1499.748779296875
vertex -13.597565650939941 224.8346710205078 1499.735595703125
endloop
endfacet
facet normal 0.17752893269062042 -0.92982017993927 0.3223630487918854
outer loop
vertex -13.840965270996094 224.7946319580078 1499.754150390625
vertex -13.597565650939941 224.8346710205078 1499.735595703125
vertex -13.489781379699707 226.81809997558594 1505.397216796875
endloop
endfacet
facet normal 0.17768527567386627 -0.9297966361045837 0.3223448693752289
outer loop
vertex -13.840965270996094 224.7946319580078 1499.754150390625
vertex -13.489781379699707 226.81809997558594 1505.397216796875
vertex -13.73318099975586 226.77806091308594 1505.4158935546875
endloop
endfacet
facet normal 0.5406100749969482 -0.7971198558807373 0.26896217465400696
outer loop
vertex -13.941237449645996 226.65306091308594 1505.463623046875
vertex -13.73318099975586 226.77806091308594 1505.4158935546875
vertex -13.625397682189941 228.76148986816406 1511.0775146484375
endloop
endfacet
facet normal 0.5406102538108826 -0.7971197366714478 0.2689621150493622
outer loop
vertex -13.941237449645996 226.65306091308594 1505.463623046875
vertex -13.625397682189941 228.76148986816406 1511.0775146484375
vertex -13.833454132080078 228.63648986816406 1511.125244140625
endloop
endfacet
facet normal 0.8213523626327515 -0.5430415868759155 0.17460280656814575
outer loop
vertex -13.974492073059082 228.44554138183594 1511.19482421875
vertex -13.833454132080078 228.63648986816406 1511.125244140625
vertex -13.72567081451416 230.6199188232422 1516.7869873046875
endloop
endfacet
facet normal 0.8213539719581604 -0.5430394411087036 0.17460186779499054
outer loop
vertex -13.974492073059082 228.44554138183594 1511.19482421875
vertex -13.72567081451416 230.6199188232422 1516.7869873046875
vertex -13.866707801818848 230.42897033691406 1516.8565673828125
endloop
endfacet
facet normal 0.9770146012306213 -0.20630457997322083 0.05367449298501015
outer loop
vertex -13.919255256652832 230.20114135742188 1516.9373779296875
vertex -13.866707801818848 230.42897033691406 1516.8565673828125
vertex -13.75892448425293 232.4123992919922 1522.5181884765625
endloop
endfacet
facet normal 0.9770153164863586 -0.2063012272119522 0.05367312580347061
outer loop
vertex -13.919255256652832 230.20114135742188 1516.9373779296875
vertex -13.75892448425293 232.4123992919922 1522.5181884765625
vertex -13.811470985412598 232.1845703125 1522.5989990234375
endloop
endfacet
facet normal 0.9839308857917786 0.16183528304100037 -0.07542718946933746
outer loop
vertex -13.767528533935547 231.95455932617188 1522.6787109375
vertex -13.811470985412598 232.1845703125 1522.5989990234375
vertex -13.70368766784668 234.16799926757812 1528.2606201171875
endloop
endfacet
facet normal 0.9839309453964233 0.16183531284332275 -0.07542719691991806
outer loop
vertex -13.767528533935547 231.95455932617188 1522.6787109375
vertex -13.70368766784668 234.16799926757812 1528.2606201171875
vertex -13.659745216369629 233.93798828125 1528.34033203125
endloop
endfacet
facet normal -0.8213714957237244 0.5430145859718323 -0.1745966225862503
outer loop
vertex -12.59642219543457 231.92800903320312 1522.665771484375
vertex -12.737460136413574 231.73704528808594 1522.7353515625
vertex -12.62967586517334 233.72047424316406 1528.39697265625
endloop
endfacet
facet normal -0.82135409116745 0.5430384874343872 -0.17460399866104126
outer loop
vertex -12.59642219543457 231.92800903320312 1522.665771484375
vertex -12.62967586517334 233.72047424316406 1528.39697265625
vertex -12.488638877868652 233.9114227294922 1528.327392578125
endloop
endfacet
facet normal -0.9770126938819885 0.20631320774555206 -0.053676389157772064
outer loop
vertex -12.65165901184082 230.17239379882812 1516.9232177734375
vertex -12.704205513000488 229.944580078125 1517.0040283203125
vertex -12.59642219543457 231.92800903320312 1522.665771484375
endloop
endfacet
facet normal -0.9770126342773438 0.20631320774555206 -0.053676385432481766
outer loop
vertex -12.65165901184082 230.17239379882812 1516.9232177734375
vertex -12.59642219543457 231.92800903320312 1522.665771484375
vertex -12.543875694274902 232.15582275390625 1522.5849609375
endloop
endfacet
facet normal -0.9839308857917786 -0.16183529794216156 0.07542718946933746
outer loop
vertex -12.803384780883789 228.41897583007812 1511.181884765625
vertex -12.759442329406738 228.18896484375 1511.2615966796875
vertex -12.65165901184082 230.17239379882812 1516.9232177734375
endloop
endfacet
facet normal -0.9839309453964233 -0.1618352234363556 0.07542715966701508
outer loop
vertex -12.803384780883789 228.41897583007812 1511.181884765625
vertex -12.65165901184082 230.17239379882812 1516.9232177734375
vertex -12.695601463317871 230.40240478515625 1516.843505859375
endloop
endfacet
facet normal -0.8410627841949463 -0.5053220391273499 0.19303645193576813
outer loop
vertex -13.04491138458252 226.6327362060547 1505.45361328125
vertex -12.911168098449707 226.435546875 1505.5201416015625
vertex -12.803384780883789 228.41897583007812 1511.181884765625
endloop
endfacet
facet normal -0.8410459756851196 -0.5053471326828003 0.19304360449314117
outer loop
vertex -13.04491138458252 226.6327362060547 1505.45361328125
vertex -12.803384780883789 228.41897583007812 1511.181884765625
vertex -12.937128067016602 228.61614990234375 1511.1153564453125
endloop
endfacet
facet normal -0.5701249241828918 -0.7719079256057739 0.28127533197402954
outer loop
vertex -13.355877876281738 224.78363037109375 1499.748779296875
vertex -13.152694702148438 224.64930725097656 1499.7919921875
vertex -13.04491138458252 226.6327362060547 1505.45361328125
endloop
endfacet
facet normal -0.5700131058692932 -0.7719837427139282 0.2812938392162323
outer loop
vertex -13.355877876281738 224.78363037109375 1499.748779296875
vertex -13.04491138458252 226.6327362060547 1505.45361328125
vertex -13.248093605041504 226.76705932617188 1505.4105224609375
endloop
endfacet
facet normal -0.2123158574104309 -0.9209765195846558 0.32668665051460266
outer loop
vertex -13.597565650939941 224.8346710205078 1499.735595703125
vertex -13.355877876281738 224.78363037109375 1499.748779296875
vertex -13.489781379699707 226.81809997558594 1505.397216796875
endloop
endfacet
facet normal -0.21247327327728271 -0.9209455251693726 0.32667168974876404
outer loop
vertex -13.355877876281738 224.78363037109375 1499.748779296875
vertex -13.248093605041504 226.76705932617188 1505.4105224609375
vertex -13.489781379699707 226.81809997558594 1505.397216796875
endloop
endfacet
facet normal 0.1776854544878006 -0.9297944903373718 0.3223510980606079
outer loop
vertex -13.73318099975586 226.77806091308594 1505.4158935546875
vertex -13.489781379699707 226.81809997558594 1505.397216796875
vertex -13.625397682189941 228.76148986816406 1511.0775146484375
endloop
endfacet
facet normal 0.1776854693889618 -0.9297944903373718 0.3223510980606079
outer loop
vertex -13.489781379699707 226.81809997558594 1505.397216796875
vertex -13.381998062133789 228.80152893066406 1511.058837890625
vertex -13.625397682189941 228.76148986816406 1511.0775146484375
endloop
endfacet
facet normal 0.5406099557876587 -0.7971217036247253 0.2689569890499115
outer loop
vertex -13.833454132080078 228.63648986816406 1511.125244140625
vertex -13.625397682189941 228.76148986816406 1511.0775146484375
vertex -13.72567081451416 230.6199188232422 1516.7869873046875
endloop
endfacet
facet normal 0.5407214164733887 -0.7970529198646545 0.2689365744590759
outer loop
vertex -13.625397682189941 228.76148986816406 1511.0775146484375
vertex -13.517614364624023 230.7449188232422 1516.7391357421875
vertex -13.72567081451416 230.6199188232422 1516.7869873046875
endloop
endfacet
facet normal 0.8213542103767395 -0.5430379509925842 0.17460528016090393
outer loop
vertex -13.866707801818848 230.42897033691406 1516.8565673828125
vertex -13.72567081451416 230.6199188232422 1516.7869873046875
vertex -13.75892448425293 232.4123992919922 1522.5181884765625
endloop
endfacet
facet normal 0.821352481842041 -0.5430402755737305 0.17460596561431885
outer loop
vertex -13.72567081451416 230.6199188232422 1516.7869873046875
vertex -13.617886543273926 232.6033477783203 1522.4486083984375
vertex -13.75892448425293 232.4123992919922 1522.5181884765625
endloop
endfacet
facet normal 0.9770153760910034 -0.20630112290382385 0.053673263639211655
outer loop
vertex -13.811470985412598 232.1845703125 1522.5989990234375
vertex -13.75892448425293 232.4123992919922 1522.5181884765625
vertex -13.70368766784668 234.16799926757812 1528.2606201171875
endloop
endfacet
facet normal 0.9770154356956482 -0.20630106329917908 0.05367324873805046
outer loop
vertex -13.75892448425293 232.4123992919922 1522.5181884765625
vertex -13.651141166687012 234.3958282470703 1528.1798095703125
vertex -13.70368766784668 234.16799926757812 1528.2606201171875
endloop
endfacet
facet normal -0.9770126342773438 0.206312894821167 -0.0536772683262825
outer loop
vertex -12.543875694274902 232.15582275390625 1522.5849609375
vertex -12.59642219543457 231.92800903320312 1522.665771484375
vertex -12.436091423034668 234.13925170898438 1528.24658203125
endloop
endfacet
facet normal -0.9770144820213318 0.20630477368831635 -0.05367400124669075
outer loop
vertex -12.59642219543457 231.92800903320312 1522.665771484375
vertex -12.488638877868652 233.9114227294922 1528.327392578125
vertex -12.436091423034668 234.13925170898438 1528.24658203125
endloop
endfacet
facet normal -0.9839308857917786 -0.16183523833751678 0.0754273310303688
outer loop
vertex -12.695601463317871 230.40240478515625 1516.843505859375
vertex -12.65165901184082 230.17239379882812 1516.9232177734375
vertex -12.587817192077637 232.38583374023438 1522.505126953125
endloop
endfacet
facet normal -0.9839382171630859 -0.16179774701595306 0.07541254162788391
outer loop
vertex -12.65165901184082 230.17239379882812 1516.9232177734375
vertex -12.543875694274902 232.15582275390625 1522.5849609375
vertex -12.587817192077637 232.38583374023438 1522.505126953125
endloop
endfacet
facet normal -0.8410457968711853 -0.5053455233573914 0.1930486559867859
outer loop
vertex -12.937128067016602 228.61614990234375 1511.1153564453125
vertex -12.803384780883789 228.41897583007812 1511.181884765625
vertex -12.829343795776367 230.59957885742188 1516.7769775390625
endloop
endfacet
facet normal -0.841047465801239 -0.5053430795669556 0.19304771721363068
outer loop
vertex -12.803384780883789 228.41897583007812 1511.181884765625
vertex -12.695601463317871 230.40240478515625 1516.843505859375
vertex -12.829343795776367 230.59957885742188 1516.7769775390625
endloop
endfacet
facet normal -0.5700127482414246 -0.7719820737838745 0.2812992036342621
outer loop
vertex -13.248093605041504 226.76705932617188 1505.4105224609375
vertex -13.04491138458252 226.6327362060547 1505.45361328125
vertex -13.140310287475586 228.75048828125 1511.0721435546875
endloop
endfacet
facet normal -0.5701658725738525 -0.7718833684921265 0.2812594175338745
outer loop
vertex -13.04491138458252 226.6327362060547 1505.45361328125
vertex -12.937128067016602 228.61614990234375 1511.1153564453125
vertex -13.140310287475586 228.75048828125 1511.0721435546875
endloop
endfacet
facet normal -0.21247337758541107 -0.9209433794021606 0.32667794823646545
outer loop
vertex -13.489781379699707 226.81809997558594 1505.397216796875
vertex -13.248093605041504 226.76705932617188 1505.4105224609375
vertex -13.140310287475586 228.75048828125 1511.0721435546875
endloop
endfacet
facet normal -0.21247288584709167 -0.9209434390068054 0.32667797803878784
outer loop
vertex -13.489781379699707 226.81809997558594 1505.397216796875
vertex -13.140310287475586 228.75048828125 1511.0721435546875
vertex -13.381998062133789 228.80152893066406 1511.058837890625
endloop
endfacet
facet normal 0.1776854544878006 -0.9297944903373718 0.3223510980606079
outer loop
vertex -13.625397682189941 228.76148986816406 1511.0775146484375
vertex -13.381998062133789 228.80152893066406 1511.058837890625
vertex -13.274214744567871 230.7849578857422 1516.720458984375
endloop
endfacet
facet normal 0.1776854544878006 -0.929794430732727 0.3223510980606079
outer loop
vertex -13.625397682189941 228.76148986816406 1511.0775146484375
vertex -13.274214744567871 230.7849578857422 1516.720458984375
vertex -13.517614364624023 230.7449188232422 1516.7391357421875
endloop
endfacet
facet normal 0.540721595287323 -0.797054648399353 0.2689313292503357
outer loop
vertex -13.72567081451416 230.6199188232422 1516.7869873046875
vertex -13.517614364624023 230.7449188232422 1516.7391357421875
vertex -13.409830093383789 232.7283477783203 1522.40087890625
endloop
endfacet
facet normal 0.5406101942062378 -0.7971197366714478 0.268962025642395
outer loop
vertex -13.72567081451416 230.6199188232422 1516.7869873046875
vertex -13.409830093383789 232.7283477783203 1522.40087890625
vertex -13.617886543273926 232.6033477783203 1522.4486083984375
endloop
endfacet
facet normal 0.821352481842041 -0.54304039478302 0.17460615932941437
outer loop
vertex -13.75892448425293 232.4123992919922 1522.5181884765625
vertex -13.617886543273926 232.6033477783203 1522.4486083984375
vertex -13.510103225708008 234.58677673339844 1528.1102294921875
endloop
endfacet
facet normal 0.8213523030281067 -0.5430405139923096 0.17460618913173676
outer loop
vertex -13.75892448425293 232.4123992919922 1522.5181884765625
vertex -13.510103225708008 234.58677673339844 1528.1102294921875
vertex -13.651141166687012 234.3958282470703 1528.1798095703125
endloop
endfacet
facet normal -0.9839382171630859 -0.16179709136486053 0.07541410624980927
outer loop
vertex -12.587817192077637 232.38583374023438 1522.505126953125
vertex -12.543875694274902 232.15582275390625 1522.5849609375
vertex -12.436091423034668 234.13925170898438 1528.24658203125
endloop
endfacet
facet normal -0.9839309453964233 -0.16183586418628693 0.07542577385902405
outer loop
vertex -12.587817192077637 232.38583374023438 1522.505126953125
vertex -12.436091423034668 234.13925170898438 1528.24658203125
vertex -12.480033874511719 234.3692626953125 1528.1668701171875
endloop
endfacet
facet normal -0.8410475850105286 -0.5053429007530212 0.19304777681827545
outer loop
vertex -12.829343795776367 230.59957885742188 1516.7769775390625
vertex -12.695601463317871 230.40240478515625 1516.843505859375
vertex -12.587817192077637 232.38583374023438 1522.505126953125
endloop
endfacet
facet normal -0.8410459160804749 -0.5053454041481018 0.19304849207401276
outer loop
vertex -12.829343795776367 230.59957885742188 1516.7769775390625
vertex -12.587817192077637 232.38583374023438 1522.505126953125
vertex -12.72156047821045 232.5830078125 1522.4385986328125
endloop
endfacet
facet normal -0.5701658725738525 -0.7718808054924011 0.2812667489051819
outer loop
vertex -13.140310287475586 228.75048828125 1511.0721435546875
vertex -12.937128067016602 228.61614990234375 1511.1153564453125
vertex -12.829343795776367 230.59957885742188 1516.7769775390625
endloop
endfacet
facet normal -0.570164144039154 -0.7718819379806519 0.281266987323761
outer loop
vertex -13.140310287475586 228.75048828125 1511.0721435546875
vertex -12.829343795776367 230.59957885742188 1516.7769775390625
vertex -13.032526969909668 230.73391723632812 1516.7337646484375
endloop
endfacet
facet normal -0.21247337758541107 -0.9209433794021606 0.32667794823646545
outer loop
vertex -13.381998062133789 228.80152893066406 1511.058837890625
vertex -13.140310287475586 228.75048828125 1511.0721435546875
vertex -13.274214744567871 230.7849578857422 1516.720458984375
endloop
endfacet
facet normal -0.21247349679470062 -0.9209432601928711 0.32667791843414307
outer loop
vertex -13.140310287475586 228.75048828125 1511.0721435546875
vertex -13.032526969909668 230.73391723632812 1516.7337646484375
vertex -13.274214744567871 230.7849578857422 1516.720458984375
endloop
endfacet
facet normal 0.17768532037734985 -0.9297966361045837 0.3223448395729065
outer loop
vertex -13.517614364624023 230.7449188232422 1516.7391357421875
vertex -13.274214744567871 230.7849578857422 1516.720458984375
vertex -13.409830093383789 232.7283477783203 1522.40087890625
endloop
endfacet
facet normal 0.17768526077270508 -0.9297966361045837 0.3223448693752289
outer loop
vertex -13.274214744567871 230.7849578857422 1516.720458984375
vertex -13.166430473327637 232.7683868408203 1522.3822021484375
vertex -13.409830093383789 232.7283477783203 1522.40087890625
endloop
endfacet
facet normal 0.5406100153923035 -0.7971198558807373 0.26896217465400696
outer loop
vertex -13.617886543273926 232.6033477783203 1522.4486083984375
vertex -13.409830093383789 232.7283477783203 1522.40087890625
vertex -13.510103225708008 234.58677673339844 1528.1102294921875
endloop
endfacet
facet normal 0.5406097769737244 -0.7971200942993164 0.26896223425865173
outer loop
vertex -13.409830093383789 232.7283477783203 1522.40087890625
vertex -13.302046775817871 234.71177673339844 1528.0625
vertex -13.510103225708008 234.58677673339844 1528.1102294921875
endloop
endfacet
facet normal -0.8410458564758301 -0.5053468346595764 0.19304481148719788
outer loop
vertex -12.72156047821045 232.5830078125 1522.4385986328125
vertex -12.587817192077637 232.38583374023438 1522.505126953125
vertex -12.613777160644531 234.56643676757812 1528.100341796875
endloop
endfacet
facet normal -0.8410458564758301 -0.5053470730781555 0.19304493069648743
outer loop
vertex -12.587817192077637 232.38583374023438 1522.505126953125
vertex -12.480033874511719 234.3692626953125 1528.1668701171875
vertex -12.613777160644531 234.56643676757812 1528.100341796875
endloop
endfacet
facet normal -0.570164144039154 -0.7718839049339294 0.28126171231269836
outer loop
vertex -13.032526969909668 230.73391723632812 1516.7337646484375
vertex -12.829343795776367 230.59957885742188 1516.7769775390625
vertex -12.924742698669434 232.71734619140625 1522.3955078125
endloop
endfacet
facet normal -0.570051908493042 -0.7719561457633972 0.28129085898399353
outer loop
vertex -12.829343795776367 230.59957885742188 1516.7769775390625
vertex -12.72156047821045 232.5830078125 1522.4385986328125
vertex -12.924742698669434 232.71734619140625 1522.3955078125
endloop
endfacet
facet normal -0.21247348189353943 -0.920945405960083 0.32667168974876404
outer loop
vertex -13.274214744567871 230.7849578857422 1516.720458984375
vertex -13.032526969909668 230.73391723632812 1516.7337646484375
vertex -12.924742698669434 232.71734619140625 1522.3955078125
endloop
endfacet
facet normal -0.21247327327728271 -0.9209455251693726 0.32667168974876404
outer loop
vertex -13.274214744567871 230.7849578857422 1516.720458984375
vertex -12.924742698669434 232.71734619140625 1522.3955078125
vertex -13.166430473327637 232.7683868408203 1522.3822021484375
endloop
endfacet
facet normal 0.1776854544878006 -0.9297944903373718 0.3223510980606079
outer loop
vertex -13.409830093383789 232.7283477783203 1522.40087890625
vertex -13.166430473327637 232.7683868408203 1522.3822021484375
vertex -13.058647155761719 234.75181579589844 1528.0438232421875
endloop
endfacet
facet normal 0.1776854544878006 -0.929794430732727 0.3223510980606079
outer loop
vertex -13.409830093383789 232.7283477783203 1522.40087890625
vertex -13.058647155761719 234.75181579589844 1528.0438232421875
vertex -13.302046775817871 234.71177673339844 1528.0625
endloop
endfacet
facet normal -0.5700519680976868 -0.7719581127166748 0.28128546476364136
outer loop
vertex -12.924742698669434 232.71734619140625 1522.3955078125
vertex -12.72156047821045 232.5830078125 1522.4385986328125
vertex -12.613777160644531 234.56643676757812 1528.100341796875
endloop
endfacet
facet normal -0.5701659321784973 -0.7718807458877563 0.28126659989356995
outer loop
vertex -12.924742698669434 232.71734619140625 1522.3955078125
vertex -12.613777160644531 234.56643676757812 1528.100341796875
vertex -12.816959381103516 234.70077514648438 1528.05712890625
endloop
endfacet
facet normal -0.21247337758541107 -0.9209433794021606 0.32667794823646545
outer loop
vertex -13.166430473327637 232.7683868408203 1522.3822021484375
vertex -12.924742698669434 232.71734619140625 1522.3955078125
vertex -13.058647155761719 234.75181579589844 1528.0438232421875
endloop
endfacet
facet normal -0.21247349679470062 -0.9209432601928711 0.32667791843414307
outer loop
vertex -12.924742698669434 232.71734619140625 1522.3955078125
vertex -12.816959381103516 234.70077514648438 1528.05712890625
vertex -13.058647155761719 234.75181579589844 1528.0438232421875
endloop
endfacet
endsolid