solid ascii
facet normal 0.3731922209262848 0.8733234405517578 -0.3131030797958374
outer loop
vertex -14.247997283935547 215.18528747558594 1475.99853515625
vertex -14.371811866760254 215.2330322265625 1475.984130859375
vertex -14.243300437927246 215.271728515625 1476.2452392578125
endloop
endfacet
facet normal 0.9842551350593567 -0.17182320356369019 0.04145467281341553
outer loop
vertex -14.71679973602295 215.8230743408203 1475.783935546875
vertex -14.671099662780762 216.35633850097656 1476.9091796875
vertex -14.689854621887207 216.31893920898438 1477.199462890625
endloop
endfacet
facet normal 0.3730996549129486 0.8733593225479126 -0.3131139278411865
outer loop
vertex -14.225748062133789 215.59471130371094 1477.167236328125
vertex -14.344865798950195 215.7288818359375 1477.3995361328125
vertex -14.221051216125488 215.68115234375 1477.4139404296875
endloop
endfacet
facet normal 0.5655532479286194 0.7749112844467163 -0.2822447419166565
outer loop
vertex -14.468880653381348 215.80992126464844 1477.37353515625
vertex -14.344865798950195 215.7288818359375 1477.3995361328125
vertex -14.495826721191406 215.31405639648438 1475.9581298828125
endloop
endfacet
facet normal 0.5654885768890381 0.774956226348877 -0.28225091099739075
outer loop
vertex -14.495826721191406 215.31405639648438 1475.9581298828125
vertex -14.344865798950195 215.7288818359375 1477.3995361328125
vertex -14.371811866760254 215.2330322265625 1475.984130859375
endloop
endfacet
facet normal 0.9842575788497925 -0.17180903255939484 0.0414566695690155
outer loop
vertex -14.689854621887207 216.31893920898438 1477.199462890625
vertex -14.671099662780762 216.35633850097656 1476.9091796875
vertex -14.666407585144043 216.44268798828125 1477.1556396484375
endloop
endfacet
facet normal 0.9842520952224731 -0.1718389093875885 0.04146343097090721
outer loop
vertex -14.693353652954102 215.9468231201172 1475.740234375
vertex -14.688660621643066 216.03317260742188 1475.9866943359375
vertex -14.71679973602295 215.8230743408203 1475.783935546875
endloop
endfacet
facet normal 0.9989607334136963 0.03360641375184059 -0.030791396275162697
outer loop
vertex -14.71679973602295 215.8230743408203 1475.783935546875
vertex -14.683549880981445 216.1770782470703 1477.2490234375
vertex -14.710495948791504 215.68121337890625 1475.8336181640625
endloop
endfacet
facet normal 0.9989594221115112 0.033636994659900665 -0.03079875372350216
outer loop
vertex -14.689854621887207 216.31893920898438 1477.199462890625
vertex -14.683549880981445 216.1770782470703 1477.2490234375
vertex -14.71679973602295 215.8230743408203 1475.783935546875
endloop
endfacet
facet normal 0.9625694155693054 0.2495526522397995 -0.10575194656848907
outer loop
vertex -14.710495948791504 215.68121337890625 1475.8336181640625
vertex -14.6428804397583 216.04017639160156 1477.296142578125
vertex -14.66982650756836 215.5443115234375 1475.8807373046875
endloop
endfacet
facet normal 0.9625694751739502 0.2495526671409607 -0.10575195401906967
outer loop
vertex -14.683549880981445 216.1770782470703 1477.2490234375
vertex -14.6428804397583 216.04017639160156 1477.296142578125
vertex -14.710495948791504 215.68121337890625 1475.8336181640625
endloop
endfacet
facet normal 0.8746361136436462 0.45208147168159485 -0.1750258058309555
outer loop
vertex -14.66982650756836 215.5443115234375 1475.8807373046875
vertex -14.570023536682129 215.91555786132812 1477.33837890625
vertex -14.596969604492188 215.41970825195312 1475.9229736328125
endloop
endfacet
facet normal 0.8746582269668579 0.45204195380210876 -0.17501725256443024
outer loop
vertex -14.6428804397583 216.04017639160156 1477.296142578125
vertex -14.570023536682129 215.91555786132812 1477.33837890625
vertex -14.66982650756836 215.5443115234375 1475.8807373046875
endloop
endfacet
facet normal 0.74000084400177 0.6302586793899536 -0.23488909006118774
outer loop
vertex -14.596969604492188 215.41970825195312 1475.9229736328125
vertex -14.468880653381348 215.80992126464844 1477.37353515625
vertex -14.495826721191406 215.31405639648438 1475.9581298828125
endloop
endfacet
facet normal 0.7399579286575317 0.6303056478500366 -0.23489795625209808
outer loop
vertex -14.570023536682129 215.91555786132812 1477.33837890625
vertex -14.468880653381348 215.80992126464844 1477.37353515625
vertex -14.596969604492188 215.41970825195312 1475.9229736328125
endloop
endfacet
facet normal 0.37321460247039795 0.873336136341095 -0.31304147839546204
outer loop
vertex -14.243300437927246 215.271728515625 1476.2452392578125
vertex -14.344865798950195 215.7288818359375 1477.3995361328125
vertex -14.225748062133789 215.59471130371094 1477.167236328125
endloop
endfacet
facet normal 0.3731028139591217 0.8733748197555542 -0.31306666135787964
outer loop
vertex -14.371811866760254 215.2330322265625 1475.984130859375
vertex -14.344865798950195 215.7288818359375 1477.3995361328125
vertex -14.243300437927246 215.271728515625 1476.2452392578125
endloop
endfacet
facet normal 0.9842525124549866 -0.17183686792850494 0.04146124795079231
outer loop
vertex -14.688660621643066 216.03317260742188 1475.9866943359375
vertex -14.671099662780762 216.35633850097656 1476.9091796875
vertex -14.71679973602295 215.8230743408203 1475.783935546875
endloop
endfacet
endsolid