solid ascii
facet normal 0.018113022670149803 0.33051156997680664 0.9436281323432922
outer loop
vertex -13.84876537322998 216.33465576171875 1479.29736328125
vertex -14.005810737609863 216.9308624267578 1479.091552734375
vertex -14.185123443603516 216.34228515625 1479.3011474609375
endloop
endfacet
facet normal 0.017894217744469643 0.3303737938404083 0.9436805248260498
outer loop
vertex -14.63047981262207 217.10382080078125 1479.0428466796875
vertex -14.651548385620117 216.86541748046875 1479.126708984375
vertex -14.005810737609863 216.9308624267578 1479.091552734375
endloop
endfacet
facet normal 0.017849931493401527 0.3307420015335083 0.9435523748397827
outer loop
vertex -14.651548385620117 216.86541748046875 1479.126708984375
vertex -14.574308395385742 216.63697814941406 1479.205322265625
vertex -14.005810737609863 216.9308624267578 1479.091552734375
endloop
endfacet
facet normal 0.017680108547210693 0.33063140511512756 0.9435943961143494
outer loop
vertex -14.005810737609863 216.9308624267578 1479.091552734375
vertex -14.4105224609375 216.45327758789062 1479.2664794921875
vertex -14.185123443603516 216.34228515625 1479.3011474609375
endloop
endfacet
facet normal 0.01810096763074398 0.33031272888183594 0.9436979293823242
outer loop
vertex -14.574308395385742 216.63697814941406 1479.205322265625
vertex -14.4105224609375 216.45327758789062 1479.2664794921875
vertex -14.005810737609863 216.9308624267578 1479.091552734375
endloop
endfacet
facet normal 0.01766929030418396 0.33040985465049744 0.943672239780426
outer loop
vertex -13.84876537322998 216.33465576171875 1479.29736328125
vertex -13.619379043579102 216.4353485107422 1479.2578125
vertex -14.005810737609863 216.9308624267578 1479.091552734375
endloop
endfacet
facet normal 0.017925258725881577 0.3305870294570923 0.9436053037643433
outer loop
vertex -13.619379043579102 216.4353485107422 1479.2578125
vertex -13.448833465576172 216.61146545410156 1479.19287109375
vertex -14.005810737609863 216.9308624267578 1479.091552734375
endloop
endfacet
facet normal 0.01801292784512043 0.3303816318511963 0.9436755776405334
outer loop
vertex -14.005810737609863 216.9308624267578 1479.091552734375
vertex -13.363080978393555 216.83619689941406 1479.1124267578125
vertex -13.375176429748535 217.07534790039062 1479.0289306640625
endloop
endfacet
facet normal 0.01808527112007141 0.33083727955818176 0.9435144662857056
outer loop
vertex -13.448833465576172 216.61146545410156 1479.19287109375
vertex -13.363080978393555 216.83619689941406 1479.1124267578125
vertex -14.005810737609863 216.9308624267578 1479.091552734375
endloop
endfacet
facet normal 0.017945172265172005 0.33054107427597046 0.9436209797859192
outer loop
vertex -14.005810737609863 216.9308624267578 1479.091552734375
vertex -14.457133293151855 217.37493896484375 1478.944580078125
vertex -14.63047981262207 217.10382080078125 1479.0428466796875
endloop
endfacet
facet normal 0.01792433112859726 0.3307179808616638 0.943559467792511
outer loop
vertex -13.375176429748535 217.07534790039062 1479.0289306640625
vertex -13.538187980651855 217.35409545898438 1478.934326171875
vertex -14.005810737609863 216.9308624267578 1479.091552734375
endloop
endfacet
facet normal 0.017935261130332947 0.33070725202560425 0.9435629844665527
outer loop
vertex -13.538187980651855 217.35409545898438 1478.934326171875
vertex -13.746504783630371 217.4918212890625 1478.8900146484375
vertex -14.005810737609863 216.9308624267578 1479.091552734375
endloop
endfacet
facet normal 0.018208684399724007 0.3305932879447937 0.9435975551605225
outer loop
vertex -13.746504783630371 217.4918212890625 1478.8900146484375
vertex -13.994291305541992 217.5441436767578 1478.87646484375
vertex -14.005810737609863 216.9308624267578 1479.091552734375
endloop
endfacet
facet normal 0.017948092892766 0.3305436968803406 0.9436200261116028
outer loop
vertex -14.005810737609863 216.9308624267578 1479.091552734375
vertex -14.243830680847168 217.5030975341797 1478.8956298828125
vertex -14.457133293151855 217.37493896484375 1478.944580078125
endloop
endfacet
facet normal 0.018091019243001938 0.3305959701538086 0.9435989260673523
outer loop
vertex -13.994291305541992 217.5441436767578 1478.87646484375
vertex -14.243830680847168 217.5030975341797 1478.8956298828125
vertex -14.005810737609863 216.9308624267578 1479.091552734375
endloop
endfacet
facet normal -0.04782257601618767 0.9429637789726257 -0.32944202423095703
outer loop
vertex -14.017287254333496 216.3175811767578 1479.306640625
vertex -13.932355880737305 216.32090759277344 1479.3038330078125
vertex -14.044233322143555 215.82171630859375 1477.8912353515625
endloop
endfacet
facet normal 0.21219629049301147 0.9210037589073181 -0.32668742537498474
outer loop
vertex -14.207372665405273 215.932861328125 1478.1324462890625
vertex -14.128887176513672 215.82887268066406 1477.8902587890625
vertex -14.212069511413574 215.846435546875 1477.8857421875
endloop
endfacet
facet normal -0.047991372644901276 0.9429604411125183 -0.32942745089530945
outer loop
vertex -14.044233322143555 215.82171630859375 1477.8912353515625
vertex -13.932355880737305 216.32090759277344 1479.3038330078125
vertex -13.959301948547363 215.82505798339844 1477.888427734375
endloop
endfacet
facet normal -0.1779366284608841 0.9297546744346619 -0.32232731580734253
outer loop
vertex -13.932355880737305 216.32090759277344 1479.3038330078125
vertex -13.8534574508667 216.24832153320312 1479.0509033203125
vertex -13.959301948547363 215.82505798339844 1477.888427734375
endloop
endfacet
facet normal 0.21203500032424927 0.9210377931594849 -0.3266962468624115
outer loop
vertex -14.185123443603516 216.34228515625 1479.3011474609375
vertex -14.101941108703613 216.32473754882812 1479.3056640625
vertex -14.189820289611816 216.255859375 1479.054443359375
endloop
endfacet
facet normal 0.21204157173633575 0.9210357069969177 -0.32669797539711
outer loop
vertex -14.189820289611816 216.255859375 1479.054443359375
vertex -14.101941108703613 216.32473754882812 1479.3056640625
vertex -14.207372665405273 215.932861328125 1478.1324462890625
endloop
endfacet
facet normal 0.21216370165348053 0.9210070967674255 -0.3266993761062622
outer loop
vertex -14.207372665405273 215.932861328125 1478.1324462890625
vertex -14.101941108703613 216.32473754882812 1479.3056640625
vertex -14.128887176513672 215.82887268066406 1477.8902587890625
endloop
endfacet
facet normal 0.08328063786029816 0.9399856328964233 -0.3308946192264557
outer loop
vertex -14.128887176513672 215.82887268066406 1477.8902587890625
vertex -14.017287254333496 216.3175811767578 1479.306640625
vertex -14.044233322143555 215.82171630859375 1477.8912353515625
endloop
endfacet
facet normal 0.08328063786029816 0.9399856925010681 -0.3308946192264557
outer loop
vertex -14.101941108703613 216.32473754882812 1479.3056640625
vertex -14.017287254333496 216.3175811767578 1479.306640625
vertex -14.128887176513672 215.82887268066406 1477.8902587890625
endloop
endfacet
facet normal -0.17786650359630585 0.9297738075256348 -0.3223109245300293
outer loop
vertex -13.84876537322998 216.33465576171875 1479.29736328125
vertex -13.8534574508667 216.24832153320312 1479.0509033203125
vertex -13.932355880737305 216.32090759277344 1479.3038330078125
endloop
endfacet
facet normal -0.17786750197410583 0.9297557473182678 -0.32236218452453613
outer loop
vertex -13.959301948547363 215.82505798339844 1477.888427734375
vertex -13.87101936340332 215.92515563964844 1478.12841796875
vertex -13.875711441040039 215.83880615234375 1477.8819580078125
endloop
endfacet
facet normal -0.1779681295156479 0.9297502040863037 -0.322322815656662
outer loop
vertex -13.959301948547363 215.82505798339844 1477.888427734375
vertex -13.8534574508667 216.24832153320312 1479.0509033203125
vertex -13.87101936340332 215.92515563964844 1478.12841796875
endloop
endfacet
facet normal -0.961027204990387 0.2661067545413971 -0.07492654025554657
outer loop
vertex -14.189820289611816 216.255859375 1479.054443359375
vertex -14.185123443603516 216.34228515625 1479.3011474609375
vertex -14.14854907989502 216.46234130859375 1479.2584228515625
endloop
endfacet
facet normal -0.9610297679901123 0.2660928964614868 -0.07494247704744339
outer loop
vertex -14.207372665405273 215.932861328125 1478.1324462890625
vertex -14.032756805419922 216.43499755859375 1477.6761474609375
vertex -14.175495147705078 215.9664764404297 1477.843017578125
endloop
endfacet
facet normal -0.9610285758972168 0.26610100269317627 -0.07492849975824356
outer loop
vertex -14.005810737609863 216.9308624267578 1479.091552734375
vertex -14.032756805419922 216.43499755859375 1477.6761474609375
vertex -14.189820289611816 216.255859375 1479.054443359375
endloop
endfacet
facet normal -0.9610293507575989 0.2661007344722748 -0.07492003589868546
outer loop
vertex -14.005810737609863 216.9308624267578 1479.091552734375
vertex -14.189820289611816 216.255859375 1479.054443359375
vertex -14.14854907989502 216.46234130859375 1479.2584228515625
endloop
endfacet
facet normal -0.9610187411308289 0.26613444089889526 -0.0749364122748375
outer loop
vertex -14.212069511413574 215.846435546875 1477.8857421875
vertex -14.207372665405273 215.932861328125 1478.1324462890625
vertex -14.175495147705078 215.9664764404297 1477.843017578125
endloop
endfacet
facet normal -0.9610274434089661 0.26610541343688965 -0.07492779940366745
outer loop
vertex -14.032756805419922 216.43499755859375 1477.6761474609375
vertex -14.207372665405273 215.932861328125 1478.1324462890625
vertex -14.189820289611816 216.255859375 1479.054443359375
endloop
endfacet
facet normal 0.3731931746006012 0.873340368270874 -0.31305497884750366
outer loop
vertex -14.212069511413574 215.846435546875 1477.8857421875
vertex -14.335884094238281 215.89418029785156 1477.871337890625
vertex -14.207372665405273 215.932861328125 1478.1324462890625
endloop
endfacet
facet normal 0.9842593669891357 -0.17180070281028748 0.04144776985049248
outer loop
vertex -14.680871963500977 216.48422241210938 1477.6712646484375
vertex -14.652732849121094 216.69432067871094 1477.8739013671875
vertex -14.653925895690918 216.98007202148438 1479.086669921875
endloop
endfacet
facet normal 0.3731931447982788 0.873340368270874 -0.31305503845214844
outer loop
vertex -14.189820289611816 216.255859375 1479.054443359375
vertex -14.308938026428223 216.39002990722656 1479.2867431640625
vertex -14.185123443603516 216.34228515625 1479.3011474609375
endloop
endfacet
facet normal 0.9989596009254456 0.03363010287284851 -0.03079931065440178
outer loop
vertex -14.680871963500977 216.48422241210938 1477.6712646484375
vertex -14.653925895690918 216.98007202148438 1479.086669921875
vertex -14.674568176269531 216.3423614501953 1477.7208251953125
endloop
endfacet
facet normal 0.5654885768890381 0.774956226348877 -0.28225091099739075
outer loop
vertex -14.432952880859375 216.47105407714844 1479.2607421875
vertex -14.308938026428223 216.39002990722656 1479.2867431640625
vertex -14.335884094238281 215.89418029785156 1477.871337890625
endloop
endfacet
facet normal 0.5654915571212769 0.7749544382095337 -0.28224995732307434
outer loop
vertex -14.459897994995117 215.97520446777344 1477.8453369140625
vertex -14.432952880859375 216.47105407714844 1479.2607421875
vertex -14.335884094238281 215.89418029785156 1477.871337890625
endloop
endfacet
facet normal 0.9842586517333984 -0.17180581390857697 0.04144488647580147
outer loop
vertex -14.653925895690918 216.98007202148438 1479.086669921875
vertex -14.635171890258789 217.01748657226562 1478.79638671875
vertex -14.63047981262207 217.10382080078125 1479.0428466796875
endloop
endfacet
facet normal 0.9842575788497925 -0.17180903255939484 0.0414566695690155
outer loop
vertex -14.657424926757812 216.60797119140625 1477.62744140625
vertex -14.652732849121094 216.69432067871094 1477.8739013671875
vertex -14.680871963500977 216.48422241210938 1477.6712646484375
endloop
endfacet
facet normal 0.9625694155693054 0.24955347180366516 -0.10574954003095627
outer loop
vertex -14.674568176269531 216.3423614501953 1477.7208251953125
vertex -14.647622108459473 216.8382110595703 1479.13623046875
vertex -14.633898735046387 216.20545959472656 1477.7679443359375
endloop
endfacet
facet normal 0.9989596605300903 0.03363009914755821 -0.03079931065440178
outer loop
vertex -14.653925895690918 216.98007202148438 1479.086669921875
vertex -14.647622108459473 216.8382110595703 1479.13623046875
vertex -14.674568176269531 216.3423614501953 1477.7208251953125
endloop
endfacet
facet normal 0.8746583461761475 0.45204347372055054 -0.17501290142536163
outer loop
vertex -14.633898735046387 216.20545959472656 1477.7679443359375
vertex -14.606952667236328 216.70130920410156 1479.183349609375
vertex -14.561041831970215 216.08084106445312 1477.8101806640625
endloop
endfacet
facet normal 0.9625694751739502 0.24955347180366516 -0.10574954003095627
outer loop
vertex -14.647622108459473 216.8382110595703 1479.13623046875
vertex -14.606952667236328 216.70130920410156 1479.183349609375
vertex -14.633898735046387 216.20545959472656 1477.7679443359375
endloop
endfacet
facet normal 0.8747050166130066 0.45196694135665894 -0.17497676610946655
outer loop
vertex -14.606952667236328 216.70130920410156 1479.183349609375
vertex -14.534095764160156 216.5767059326172 1479.2257080078125
vertex -14.561041831970215 216.08084106445312 1477.8101806640625
endloop
endfacet
facet normal 0.7399548292160034 0.6303091645240784 -0.23489859700202942
outer loop
vertex -14.561041831970215 216.08084106445312 1477.8101806640625
vertex -14.432952880859375 216.47105407714844 1479.2607421875
vertex -14.459897994995117 215.97520446777344 1477.8453369140625
endloop
endfacet
facet normal 0.739872932434082 0.6303988695144653 -0.23491549491882324
outer loop
vertex -14.534095764160156 216.5767059326172 1479.2257080078125
vertex -14.432952880859375 216.47105407714844 1479.2607421875
vertex -14.561041831970215 216.08084106445312 1477.8101806640625
endloop
endfacet
facet normal 0.3731897473335266 0.8733410239219666 -0.31305718421936035
outer loop
vertex -14.207372665405273 215.932861328125 1478.1324462890625
vertex -14.308938026428223 216.39002990722656 1479.2867431640625
vertex -14.189820289611816 216.255859375 1479.054443359375
endloop
endfacet
facet normal 0.3731954097747803 0.873339056968689 -0.31305593252182007
outer loop
vertex -14.335884094238281 215.89418029785156 1477.871337890625
vertex -14.308938026428223 216.39002990722656 1479.2867431640625
vertex -14.207372665405273 215.932861328125 1478.1324462890625
endloop
endfacet
facet normal 0.9842604994773865 -0.17179493606090546 0.04144641011953354
outer loop
vertex -14.652732849121094 216.69432067871094 1477.8739013671875
vertex -14.635171890258789 217.01748657226562 1478.79638671875
vertex -14.653925895690918 216.98007202148438 1479.086669921875
endloop
endfacet
facet normal 0.01848682202398777 0.33025068044662476 0.9437121748924255
outer loop
vertex -14.128887176513672 215.82887268066406 1477.8902587890625
vertex -14.175495147705078 215.9664764404297 1477.843017578125
vertex -14.212069511413574 215.846435546875 1477.8857421875
endloop
endfacet
facet normal 0.016992151737213135 0.329807311296463 0.9438953399658203
outer loop
vertex -14.044233322143555 215.82171630859375 1477.8912353515625
vertex -14.175495147705078 215.9664764404297 1477.843017578125
vertex -14.128887176513672 215.82887268066406 1477.8902587890625
endloop
endfacet
facet normal 0.018008433282375336 0.3305903375148773 0.943602442741394
outer loop
vertex -14.175495147705078 215.9664764404297 1477.843017578125
vertex -13.907699584960938 215.9602508544922 1477.840087890625
vertex -14.032756805419922 216.43499755859375 1477.6761474609375
endloop
endfacet
facet normal 0.018717853352427483 0.3302852511405945 0.943695604801178
outer loop
vertex -13.875711441040039 215.83880615234375 1477.8819580078125
vertex -13.907699584960938 215.9602508544922 1477.840087890625
vertex -13.959301948547363 215.82505798339844 1477.888427734375
endloop
endfacet
facet normal 0.018192021176218987 0.3304668962955475 0.943642258644104
outer loop
vertex -13.959301948547363 215.82505798339844 1477.888427734375
vertex -13.907699584960938 215.9602508544922 1477.840087890625
vertex -14.044233322143555 215.82171630859375 1477.8912353515625
endloop
endfacet
facet normal 0.018009161576628685 0.3306276500225067 0.9435895085334778
outer loop
vertex -14.044233322143555 215.82171630859375 1477.8912353515625
vertex -13.907699584960938 215.9602508544922 1477.840087890625
vertex -14.175495147705078 215.9664764404297 1477.843017578125
endloop
endfacet
facet normal 0.01824384182691574 0.3306881785392761 0.9435637593269348
outer loop
vertex -14.680871963500977 216.48422241210938 1477.6712646484375
vertex -14.530186653137207 216.57273864746094 1477.6373291015625
vertex -14.657424926757812 216.60797119140625 1477.62744140625
endloop
endfacet
facet normal 0.018379172310233116 0.33048418164253235 0.9436326026916504
outer loop
vertex -14.674568176269531 216.3423614501953 1477.7208251953125
vertex -14.530186653137207 216.57273864746094 1477.6373291015625
vertex -14.680871963500977 216.48422241210938 1477.6712646484375
endloop
endfacet
facet normal 0.01772196590900421 0.33066967129707336 0.943580150604248
outer loop
vertex -14.032756805419922 216.43499755859375 1477.6761474609375
vertex -14.561041831970215 216.08084106445312 1477.8101806640625
vertex -14.175495147705078 215.9664764404297 1477.843017578125
endloop
endfacet
facet normal 0.017967695370316505 0.3303444981575012 0.9436894059181213
outer loop
vertex -14.633898735046387 216.20545959472656 1477.7679443359375
vertex -14.561041831970215 216.08084106445312 1477.8101806640625
vertex -14.032756805419922 216.43499755859375 1477.6761474609375
endloop
endfacet
facet normal 0.017854131758213043 0.3310737609863281 0.9434359669685364
outer loop
vertex -14.561041831970215 216.08084106445312 1477.8101806640625
vertex -14.459897994995117 215.97520446777344 1477.8453369140625
vertex -14.175495147705078 215.9664764404297 1477.843017578125
endloop
endfacet
facet normal 0.01765654981136322 0.330480694770813 0.943647563457489
outer loop
vertex -14.175495147705078 215.9664764404297 1477.843017578125
vertex -14.335884094238281 215.89418029785156 1477.871337890625
vertex -14.212069511413574 215.846435546875 1477.8857421875
endloop
endfacet
facet normal 0.01782827265560627 0.3301445245742798 0.9437620043754578
outer loop
vertex -14.459897994995117 215.97520446777344 1477.8453369140625
vertex -14.335884094238281 215.89418029785156 1477.871337890625
vertex -14.175495147705078 215.9664764404297 1477.843017578125
endloop
endfacet
facet normal 0.01788710057735443 0.33053019642829895 0.9436259865760803
outer loop
vertex -14.032756805419922 216.43499755859375 1477.6761474609375
vertex -14.530186653137207 216.57273864746094 1477.6373291015625
vertex -14.633898735046387 216.20545959472656 1477.7679443359375
endloop
endfacet
facet normal 0.018643181771039963 0.33033567667007446 0.9436793327331543
outer loop
vertex -14.633898735046387 216.20545959472656 1477.7679443359375
vertex -14.530186653137207 216.57273864746094 1477.6373291015625
vertex -14.674568176269531 216.3423614501953 1477.7208251953125
endloop
endfacet
facet normal -0.01842173933982849 -0.3302314281463623 -0.9437202215194702
outer loop
vertex -14.101941108703613 216.32473754882812 1479.3056640625
vertex -14.185123443603516 216.34228515625 1479.3011474609375
vertex -14.14854907989502 216.46234130859375 1479.2584228515625
endloop
endfacet
facet normal -0.016992151737213135 -0.329807311296463 -0.9438953399658203
outer loop
vertex -14.017287254333496 216.3175811767578 1479.306640625
vertex -14.101941108703613 216.32473754882812 1479.3056640625
vertex -14.14854907989502 216.46234130859375 1479.2584228515625
endloop
endfacet
facet normal -0.018027232959866524 -0.33058518171310425 -0.943604052066803
outer loop
vertex -14.14854907989502 216.46234130859375 1479.2584228515625
vertex -14.005810737609863 216.9308624267578 1479.091552734375
vertex -13.880754470825195 216.4561004638672 1479.2554931640625
endloop
endfacet
facet normal -0.018717829138040543 -0.33028534054756165 -0.9436955451965332
outer loop
vertex -13.84876537322998 216.33465576171875 1479.29736328125
vertex -13.932355880737305 216.32090759277344 1479.3038330078125
vertex -13.880754470825195 216.4561004638672 1479.2554931640625
endloop
endfacet
facet normal -0.018252406269311905 -0.33044615387916565 -0.9436483383178711
outer loop
vertex -13.932355880737305 216.32090759277344 1479.3038330078125
vertex -14.017287254333496 216.3175811767578 1479.306640625
vertex -13.880754470825195 216.4561004638672 1479.2554931640625
endloop
endfacet
facet normal -0.01802835986018181 -0.3306431174278259 -0.9435836672782898
outer loop
vertex -14.017287254333496 216.3175811767578 1479.306640625
vertex -14.14854907989502 216.46234130859375 1479.2584228515625
vertex -13.880754470825195 216.4561004638672 1479.2554931640625
endloop
endfacet
facet normal -0.01824374869465828 -0.33068835735321045 -0.94356369972229
outer loop
vertex -14.653925895690918 216.98007202148438 1479.086669921875
vertex -14.63047981262207 217.10382080078125 1479.0428466796875
vertex -14.503240585327148 217.06858825683594 1479.052734375
endloop
endfacet
facet normal -0.018379172310233116 -0.33048418164253235 -0.9436326026916504
outer loop
vertex -14.647622108459473 216.8382110595703 1479.13623046875
vertex -14.653925895690918 216.98007202148438 1479.086669921875
vertex -14.503240585327148 217.06858825683594 1479.052734375
endloop
endfacet
facet normal -0.017996393144130707 -0.33059370517730713 -0.9436015486717224
outer loop
vertex -14.005810737609863 216.9308624267578 1479.091552734375
vertex -14.14854907989502 216.46234130859375 1479.2584228515625
vertex -14.534095764160156 216.5767059326172 1479.2257080078125
endloop
endfacet
facet normal -0.017655132338404655 -0.3310452401638031 -0.9434497356414795
outer loop
vertex -14.606952667236328 216.70130920410156 1479.183349609375
vertex -14.005810737609863 216.9308624267578 1479.091552734375
vertex -14.534095764160156 216.5767059326172 1479.2257080078125
endloop
endfacet
facet normal -0.017806874588131905 -0.3300139307975769 -0.9438080787658691
outer loop
vertex -14.534095764160156 216.5767059326172 1479.2257080078125
vertex -14.14854907989502 216.46234130859375 1479.2584228515625
vertex -14.432952880859375 216.47105407714844 1479.2607421875
endloop
endfacet
facet normal -0.017642280086874962 -0.33044731616973877 -0.9436595439910889
outer loop
vertex -14.14854907989502 216.46234130859375 1479.2584228515625
vertex -14.185123443603516 216.34228515625 1479.3011474609375
vertex -14.308938026428223 216.39002990722656 1479.2867431640625
endloop
endfacet
facet normal -0.017809806391596794 -0.33011943101882935 -0.9437711834907532
outer loop
vertex -14.432952880859375 216.47105407714844 1479.2607421875
vertex -14.14854907989502 216.46234130859375 1479.2584228515625
vertex -14.308938026428223 216.39002990722656 1479.2867431640625
endloop
endfacet
facet normal -0.01787768304347992 -0.33053261041641235 -0.943625271320343
outer loop
vertex -14.005810737609863 216.9308624267578 1479.091552734375
vertex -14.606952667236328 216.70130920410156 1479.183349609375
vertex -14.503240585327148 217.06858825683594 1479.052734375
endloop
endfacet
facet normal -0.018643181771039963 -0.33033567667007446 -0.9436793327331543
outer loop
vertex -14.606952667236328 216.70130920410156 1479.183349609375
vertex -14.647622108459473 216.8382110595703 1479.13623046875
vertex -14.503240585327148 217.06858825683594 1479.052734375
endloop
endfacet
facet normal -0.9701974987983704 -0.22233489155769348 0.09635379910469055
outer loop
vertex -13.8534574508667 216.24832153320312 1479.0509033203125
vertex -13.84876537322998 216.33465576171875 1479.29736328125
vertex -13.880754470825195 216.4561004638672 1479.2554931640625
endloop
endfacet
facet normal -0.9702057242393494 -0.22229228913784027 0.09636861085891724
outer loop
vertex -13.87101936340332 215.92515563964844 1478.12841796875
vertex -14.032756805419922 216.43499755859375 1477.6761474609375
vertex -13.907699584960938 215.9602508544922 1477.840087890625
endloop
endfacet
facet normal -0.9702051281929016 -0.22230249643325806 0.09635064750909805
outer loop
vertex -14.005810737609863 216.9308624267578 1479.091552734375
vertex -14.032756805419922 216.43499755859375 1477.6761474609375
vertex -13.8534574508667 216.24832153320312 1479.0509033203125
endloop
endfacet
facet normal -0.9702086448669434 -0.22230133414268494 0.09631823003292084
outer loop
vertex -14.005810737609863 216.9308624267578 1479.091552734375
vertex -13.8534574508667 216.24832153320312 1479.0509033203125
vertex -13.880754470825195 216.4561004638672 1479.2554931640625
endloop
endfacet
facet normal -0.970198929309845 -0.2223241925239563 0.0963638424873352
outer loop
vertex -13.875711441040039 215.83880615234375 1477.8819580078125
vertex -13.87101936340332 215.92515563964844 1478.12841796875
vertex -13.907699584960938 215.9602508544922 1477.840087890625
endloop
endfacet
facet normal -0.9702038764953613 -0.2223084568977356 0.09634966403245926
outer loop
vertex -14.032756805419922 216.43499755859375 1477.6761474609375
vertex -13.87101936340332 215.92515563964844 1478.12841796875
vertex -13.8534574508667 216.24832153320312 1479.0509033203125
endloop
endfacet
facet normal -0.9968284964561462 0.07909967005252838 -0.008734664879739285
outer loop
vertex -13.368054389953613 216.80906677246094 1479.1220703125
vertex -13.356393814086914 216.9505157470703 1479.072265625
vertex -13.394999504089355 216.31320190429688 1477.7066650390625
endloop
endfacet
facet normal -0.33983275294303894 0.8895862698554993 -0.30520492792129517
outer loop
vertex -13.87101936340332 215.92515563964844 1478.12841796875
vertex -13.750319480895996 215.88084411621094 1477.8648681640625
vertex -13.875711441040039 215.83880615234375 1477.8819580078125
endloop
endfacet
facet normal -0.9898845553398132 -0.12695981562137604 0.06332212686538696
outer loop
vertex -13.356393814086914 216.9505157470703 1479.072265625
vertex -13.379873275756836 216.98892211914062 1478.7822265625
vertex -13.383339881896973 216.4546661376953 1477.6568603515625
endloop
endfacet
facet normal -0.3398318588733673 0.8896034359931946 -0.3051559031009674
outer loop
vertex -13.84876537322998 216.33465576171875 1479.29736328125
vertex -13.723373413085938 216.37669372558594 1479.2802734375
vertex -13.8534574508667 216.24832153320312 1479.0509033203125
endloop
endfacet
facet normal -0.9968295097351074 0.07908664643764496 -0.008728557266294956
outer loop
vertex -13.394999504089355 216.31320190429688 1477.7066650390625
vertex -13.356393814086914 216.9505157470703 1479.072265625
vertex -13.383339881896973 216.4546661376953 1477.6568603515625
endloop
endfacet
facet normal -0.33979538083076477 0.889609158039093 -0.30517980456352234
outer loop
vertex -13.8534574508667 216.24832153320312 1479.0509033203125
vertex -13.723373413085938 216.37669372558594 1479.2802734375
vertex -13.87101936340332 215.92515563964844 1478.12841796875
endloop
endfacet
facet normal -0.3397772014141083 0.8896145224571228 -0.3051842451095581
outer loop
vertex -13.87101936340332 215.92515563964844 1478.12841796875
vertex -13.723373413085938 216.37669372558594 1479.2802734375
vertex -13.750319480895996 215.88084411621094 1477.8648681640625
endloop
endfacet
facet normal -0.5357605218887329 0.8000134229660034 -0.27007240056991577
outer loop
vertex -13.750319480895996 215.88084411621094 1477.8648681640625
vertex -13.596407890319824 216.45201110839844 1479.25146484375
vertex -13.623353958129883 215.95614624023438 1477.8360595703125
endloop
endfacet
facet normal -0.5358288884162903 0.7999754548072815 -0.27004918456077576
outer loop
vertex -13.723373413085938 216.37669372558594 1479.2802734375
vertex -13.596407890319824 216.45201110839844 1479.25146484375
vertex -13.750319480895996 215.88084411621094 1477.8648681640625
endloop
endfacet
facet normal -0.7154595851898193 0.6635023951530457 -0.2188197374343872
outer loop
vertex -13.623353958129883 215.95614624023438 1477.8360595703125
vertex -13.491362571716309 216.55294799804688 1479.214111328125
vertex -13.518308639526367 216.05709838867188 1477.7987060546875
endloop
endfacet
facet normal -0.7154127359390259 0.6635453701019287 -0.21884281933307648
outer loop
vertex -13.596407890319824 216.45201110839844 1479.25146484375
vertex -13.491362571716309 216.55294799804688 1479.214111328125
vertex -13.623353958129883 215.95614624023438 1477.8360595703125
endloop
endfacet
facet normal -0.8568428158760071 0.4914562702178955 -0.15585632622241974
outer loop
vertex -13.518308639526367 216.05709838867188 1477.7987060546875
vertex -13.413861274719238 216.67413330078125 1479.170166015625
vertex -13.440807342529297 216.17828369140625 1477.7547607421875
endloop
endfacet
facet normal -0.8568428158760071 0.4914562702178955 -0.15585632622241974
outer loop
vertex -13.491362571716309 216.55294799804688 1479.214111328125
vertex -13.413861274719238 216.67413330078125 1479.170166015625
vertex -13.518308639526367 216.05709838867188 1477.7987060546875
endloop
endfacet
facet normal -0.952308714389801 0.29317909479141235 -0.08458152413368225
outer loop
vertex -13.440807342529297 216.17828369140625 1477.7547607421875
vertex -13.368054389953613 216.80906677246094 1479.1220703125
vertex -13.394999504089355 216.31320190429688 1477.7066650390625
endloop
endfacet
facet normal -0.9523195624351501 0.2931481897830963 -0.08456668257713318
outer loop
vertex -13.413861274719238 216.67413330078125 1479.170166015625
vertex -13.368054389953613 216.80906677246094 1479.1220703125
vertex -13.440807342529297 216.17828369140625 1477.7547607421875
endloop
endfacet
facet normal -0.9898847341537476 -0.1269589364528656 0.06332226097583771
outer loop
vertex -13.375176429748535 217.07534790039062 1479.0289306640625
vertex -13.379873275756836 216.98892211914062 1478.7822265625
vertex -13.356393814086914 216.9505157470703 1479.072265625
endloop
endfacet
facet normal -0.9898856282234192 -0.12695232033729553 0.06331995874643326
outer loop
vertex -13.383339881896973 216.4546661376953 1477.6568603515625
vertex -13.397424697875977 216.66592407226562 1477.8602294921875
vertex -13.402121543884277 216.57949829101562 1477.613525390625
endloop
endfacet
facet normal -0.9898861646652222 -0.12694989144802094 0.0633174255490303
outer loop
vertex -13.383339881896973 216.4546661376953 1477.6568603515625
vertex -13.379873275756836 216.98892211914062 1478.7822265625
vertex -13.397424697875977 216.66592407226562 1477.8602294921875
endloop
endfacet
facet normal 0.01813865825533867 0.33043402433395386 0.9436547756195068
outer loop
vertex -13.750319480895996 215.88084411621094 1477.8648681640625
vertex -13.623353958129883 215.95614624023438 1477.8360595703125
vertex -13.907699584960938 215.9602508544922 1477.840087890625
endloop
endfacet
facet normal 0.017957355827093124 0.3301110565662384 0.9437713623046875
outer loop
vertex -13.875711441040039 215.83880615234375 1477.8819580078125
vertex -13.750319480895996 215.88084411621094 1477.8648681640625
vertex -13.907699584960938 215.9602508544922 1477.840087890625
endloop
endfacet
facet normal 0.018053710460662842 0.3306007385253906 0.9435979723930359
outer loop
vertex -13.907699584960938 215.9602508544922 1477.840087890625
vertex -13.518308639526367 216.05709838867188 1477.7987060546875
vertex -14.032756805419922 216.43499755859375 1477.6761474609375
endloop
endfacet
facet normal 0.018137456849217415 0.3303073048591614 0.9436992406845093
outer loop
vertex -13.623353958129883 215.95614624023438 1477.8360595703125
vertex -13.518308639526367 216.05709838867188 1477.7987060546875
vertex -13.907699584960938 215.9602508544922 1477.840087890625
endloop
endfacet
facet normal 0.01806832291185856 0.3306185305118561 0.9435915350914001
outer loop
vertex -13.518308639526367 216.05709838867188 1477.7987060546875
vertex -13.440807342529297 216.17828369140625 1477.7547607421875
vertex -14.032756805419922 216.43499755859375 1477.6761474609375
endloop
endfacet
facet normal 0.0178087055683136 0.3307267129421234 0.9435586333274841
outer loop
vertex -13.383339881896973 216.4546661376953 1477.6568603515625
vertex -13.53075122833252 216.55001831054688 1477.626220703125
vertex -13.394999504089355 216.31320190429688 1477.7066650390625
endloop
endfacet
facet normal 0.017457373440265656 0.3302403688430786 0.9437354207038879
outer loop
vertex -13.402121543884277 216.57949829101562 1477.613525390625
vertex -13.53075122833252 216.55001831054688 1477.626220703125
vertex -13.383339881896973 216.4546661376953 1477.6568603515625
endloop
endfacet
facet normal 0.018083838745951653 0.3306507170200348 0.943579912185669
outer loop
vertex -13.440807342529297 216.17828369140625 1477.7547607421875
vertex -13.53075122833252 216.55001831054688 1477.626220703125
vertex -14.032756805419922 216.43499755859375 1477.6761474609375
endloop
endfacet
facet normal 0.017357878386974335 0.3304983079433441 0.9436469674110413
outer loop
vertex -13.394999504089355 216.31320190429688 1477.7066650390625
vertex -13.53075122833252 216.55001831054688 1477.626220703125
vertex -13.440807342529297 216.17828369140625 1477.7547607421875
endloop
endfacet
facet normal -0.01812056638300419 -0.3304019868373871 -0.9436663389205933
outer loop
vertex -13.723373413085938 216.37669372558594 1479.2802734375
vertex -13.880754470825195 216.4561004638672 1479.2554931640625
vertex -13.596407890319824 216.45201110839844 1479.25146484375
endloop
endfacet
facet normal -0.017957311123609543 -0.33011114597320557 -0.9437713027000427
outer loop
vertex -13.84876537322998 216.33465576171875 1479.29736328125
vertex -13.880754470825195 216.4561004638672 1479.2554931640625
vertex -13.723373413085938 216.37669372558594 1479.2802734375
endloop
endfacet
facet normal -0.018056215718388557 -0.3305917978286743 -0.9436010122299194
outer loop
vertex -13.880754470825195 216.4561004638672 1479.2554931640625
vertex -14.005810737609863 216.9308624267578 1479.091552734375
vertex -13.491362571716309 216.55294799804688 1479.214111328125
endloop
endfacet
facet normal -0.018120242282748222 -0.33036744594573975 -0.9436784386634827
outer loop
vertex -13.596407890319824 216.45201110839844 1479.25146484375
vertex -13.880754470825195 216.4561004638672 1479.2554931640625
vertex -13.491362571716309 216.55294799804688 1479.214111328125
endloop
endfacet
facet normal -0.018075017258524895 -0.3306146562099457 -0.9435926675796509
outer loop
vertex -13.491362571716309 216.55294799804688 1479.214111328125
vertex -14.005810737609863 216.9308624267578 1479.091552734375
vertex -13.413861274719238 216.67413330078125 1479.170166015625
endloop
endfacet
facet normal -0.017862843349575996 -0.33075401186943054 -0.9435479640960693
outer loop
vertex -13.356393814086914 216.9505157470703 1479.072265625
vertex -13.368054389953613 216.80906677246094 1479.1220703125
vertex -13.503805160522461 217.04588317871094 1479.0416259765625
endloop
endfacet
facet normal -0.0174952931702137 -0.33024531602859497 -0.9437329173088074
outer loop
vertex -13.375176429748535 217.07534790039062 1479.0289306640625
vertex -13.356393814086914 216.9505157470703 1479.072265625
vertex -13.503805160522461 217.04588317871094 1479.0416259765625
endloop
endfacet
facet normal -0.018086852505803108 -0.3306392431259155 -0.9435839056968689
outer loop
vertex -13.413861274719238 216.67413330078125 1479.170166015625
vertex -14.005810737609863 216.9308624267578 1479.091552734375
vertex -13.503805160522461 217.04588317871094 1479.0416259765625
endloop
endfacet
facet normal -0.017317285761237144 -0.33047765493392944 -0.9436549544334412
outer loop
vertex -13.368054389953613 216.80906677246094 1479.1220703125
vertex -13.413861274719238 216.67413330078125 1479.170166015625
vertex -13.503805160522461 217.04588317871094 1479.0416259765625
endloop
endfacet
facet normal 0.2758977711200714 0.9054893851280212 -0.3224427402019501
outer loop
vertex -14.032756805419922 216.43499755859375 1477.6761474609375
vertex -14.530186653137207 216.57273864746094 1477.6373291015625
vertex -14.652732849121094 216.69432067871094 1477.8739013671875
endloop
endfacet
facet normal 0.2757953703403473 0.9055176973342896 -0.3224508464336395
outer loop
vertex -14.63047981262207 217.10382080078125 1479.0428466796875
vertex -14.503240585327148 217.06858825683594 1479.052734375
vertex -14.635171890258789 217.01748657226562 1478.79638671875
endloop
endfacet
facet normal 0.2757962942123413 0.9054996967315674 -0.32250064611434937
outer loop
vertex -14.530186653137207 216.57273864746094 1477.6373291015625
vertex -14.657424926757812 216.60797119140625 1477.62744140625
vertex -14.652732849121094 216.69432067871094 1477.8739013671875
endloop
endfacet
facet normal 0.27588972449302673 0.9054849147796631 -0.3224622905254364
outer loop
vertex -14.032756805419922 216.43499755859375 1477.6761474609375
vertex -14.652732849121094 216.69432067871094 1477.8739013671875
vertex -14.635171890258789 217.01748657226562 1478.79638671875
endloop
endfacet
facet normal 0.27586814761161804 0.9054869413375854 -0.32247495651245117
outer loop
vertex -14.005810737609863 216.9308624267578 1479.091552734375
vertex -14.032756805419922 216.43499755859375 1477.6761474609375
vertex -14.635171890258789 217.01748657226562 1478.79638671875
endloop
endfacet
facet normal 0.2758713960647583 0.905483067035675 -0.322483092546463
outer loop
vertex -14.503240585327148 217.06858825683594 1479.052734375
vertex -14.005810737609863 216.9308624267578 1479.091552734375
vertex -14.635171890258789 217.01748657226562 1478.79638671875
endloop
endfacet
facet normal 0.2416532039642334 -0.9172487854957581 0.3166361451148987
outer loop
vertex -14.032756805419922 216.43499755859375 1477.6761474609375
vertex -13.53075122833252 216.55001831054688 1477.626220703125
vertex -13.397424697875977 216.66592407226562 1477.8602294921875
endloop
endfacet
facet normal 0.24138200283050537 -0.9172815680503845 0.3167480528354645
outer loop
vertex -13.375176429748535 217.07534790039062 1479.0289306640625
vertex -13.503805160522461 217.04588317871094 1479.0416259765625
vertex -13.379873275756836 216.98892211914062 1478.7822265625
endloop
endfacet
facet normal 0.24148276448249817 -0.9172585010528564 0.3167380690574646
outer loop
vertex -13.53075122833252 216.55001831054688 1477.626220703125
vertex -13.402121543884277 216.57949829101562 1477.613525390625
vertex -13.397424697875977 216.66592407226562 1477.8602294921875
endloop
endfacet
facet normal 0.24161864817142487 -0.9172263741493225 0.3167272210121155
outer loop
vertex -14.032756805419922 216.43499755859375 1477.6761474609375
vertex -13.397424697875977 216.66592407226562 1477.8602294921875
vertex -13.379873275756836 216.98892211914062 1478.7822265625
endloop
endfacet
facet normal 0.24160370230674744 -0.9172271490097046 0.31673645973205566
outer loop
vertex -14.005810737609863 216.9308624267578 1479.091552734375
vertex -14.032756805419922 216.43499755859375 1477.6761474609375
vertex -13.379873275756836 216.98892211914062 1478.7822265625
endloop
endfacet
facet normal 0.24165742099285126 -0.917171835899353 0.3168555200099945
outer loop
vertex -13.503805160522461 217.04588317871094 1479.0416259765625
vertex -14.005810737609863 216.9308624267578 1479.091552734375
vertex -13.379873275756836 216.98892211914062 1478.7822265625
endloop
endfacet
facet normal -0.7193283438682556 -0.6512179374694824 0.24183055758476257
outer loop
vertex -14.365078926086426 217.28436279296875 1478.9744873046875
vertex -14.457133293151855 217.37493896484375 1478.944580078125
vertex -14.461830139160156 217.28851318359375 1478.6978759765625
endloop
endfacet
facet normal -0.7194427847862244 -0.6511217951774597 0.2417486608028412
outer loop
vertex -14.392024040222168 216.7884979248047 1477.55908203125
vertex -14.032756805419922 216.43499755859375 1477.6761474609375
vertex -14.479382514953613 216.96551513671875 1477.77587890625
endloop
endfacet
facet normal -0.719323992729187 -0.6512089371681213 0.24186761677265167
outer loop
vertex -14.484079360961914 216.8790740966797 1477.5291748046875
vertex -14.392024040222168 216.7884979248047 1477.55908203125
vertex -14.479382514953613 216.96551513671875 1477.77587890625
endloop
endfacet
facet normal -0.7194395661354065 -0.6510797142982483 0.24187159538269043
outer loop
vertex -14.005810737609863 216.9308624267578 1479.091552734375
vertex -14.365078926086426 217.28436279296875 1478.9744873046875
vertex -14.461830139160156 217.28851318359375 1478.6978759765625
endloop
endfacet
facet normal -0.7194199562072754 -0.6511253118515015 0.24180753529071808
outer loop
vertex -14.032756805419922 216.43499755859375 1477.6761474609375
vertex -14.005810737609863 216.9308624267578 1479.091552734375
vertex -14.461830139160156 217.28851318359375 1478.6978759765625
endloop
endfacet
facet normal -0.7194283604621887 -0.6511191725730896 0.24179890751838684
outer loop
vertex -14.479382514953613 216.96551513671875 1477.77587890625
vertex -14.032756805419922 216.43499755859375 1477.6761474609375
vertex -14.461830139160156 217.28851318359375 1478.6978759765625
endloop
endfacet
facet normal 0.6943796277046204 -0.6831822991371155 0.2260507345199585
outer loop
vertex -14.032756805419922 216.43499755859375 1477.6761474609375
vertex -13.660383224487305 216.77203369140625 1477.5509033203125
vertex -13.560441017150879 216.944580078125 1477.765380859375
endloop
endfacet
facet normal 0.6943186521530151 -0.6832109689712524 0.22615081071853638
outer loop
vertex -13.538187980651855 217.35409545898438 1478.934326171875
vertex -13.633438110351562 217.26788330078125 1478.96630859375
vertex -13.542880058288574 217.2677459716797 1478.6878662109375
endloop
endfacet
facet normal 0.694265604019165 -0.6832598447799683 0.2261662483215332
outer loop
vertex -13.660383224487305 216.77203369140625 1477.5509033203125
vertex -13.565134048461914 216.8582305908203 1477.5189208984375
vertex -13.560441017150879 216.944580078125 1477.765380859375
endloop
endfacet
facet normal 0.6943633556365967 -0.6831781268119812 0.22611327469348907
outer loop
vertex -14.032756805419922 216.43499755859375 1477.6761474609375
vertex -13.560441017150879 216.944580078125 1477.765380859375
vertex -13.542880058288574 217.2677459716797 1478.6878662109375
endloop
endfacet
facet normal 0.6943528056144714 -0.683185338973999 0.22612430155277252
outer loop
vertex -14.005810737609863 216.9308624267578 1479.091552734375
vertex -14.032756805419922 216.43499755859375 1477.6761474609375
vertex -13.542880058288574 217.2677459716797 1478.6878662109375
endloop
endfacet
facet normal 0.6943681240081787 -0.6831554174423218 0.22616687417030334
outer loop
vertex -13.633438110351562 217.26788330078125 1478.96630859375
vertex -14.005810737609863 216.9308624267578 1479.091552734375
vertex -13.542880058288574 217.2677459716797 1478.6878662109375
endloop
endfacet
facet normal 0.017940079793334007 0.33070406317710876 0.9435639381408691
outer loop
vertex -14.032756805419922 216.43499755859375 1477.6761474609375
vertex -14.392024040222168 216.7884979248047 1477.55908203125
vertex -14.530186653137207 216.57273864746094 1477.6373291015625
endloop
endfacet
facet normal 0.01778169721364975 0.3297387361526489 0.9439047574996948
outer loop
vertex -14.484079360961914 216.8790740966797 1477.5291748046875
vertex -14.541326522827148 216.81996154785156 1477.5509033203125
vertex -14.392024040222168 216.7884979248047 1477.55908203125
endloop
endfacet
facet normal 0.018070273101329803 0.33062925934791565 0.9435876607894897
outer loop
vertex -14.392024040222168 216.7884979248047 1477.55908203125
vertex -14.58975601196289 216.75436401367188 1477.5748291015625
vertex -14.530186653137207 216.57273864746094 1477.6373291015625
endloop
endfacet
facet normal 0.018031369894742966 0.3308236002922058 0.9435203671455383
outer loop
vertex -14.541326522827148 216.81996154785156 1477.5509033203125
vertex -14.58975601196289 216.75436401367188 1477.5748291015625
vertex -14.392024040222168 216.7884979248047 1477.55908203125
endloop
endfacet
facet normal 0.018356231972575188 0.3310571312904358 0.9434322118759155
outer loop
vertex -14.530186653137207 216.57273864746094 1477.6373291015625
vertex -14.628703117370605 216.68325805664062 1477.6004638671875
vertex -14.657424926757812 216.60797119140625 1477.62744140625
endloop
endfacet
facet normal 0.01767212711274624 0.3305150866508484 0.9436352849006653
outer loop
vertex -14.58975601196289 216.75436401367188 1477.5748291015625
vertex -14.628703117370605 216.68325805664062 1477.6004638671875
vertex -14.530186653137207 216.57273864746094 1477.6373291015625
endloop
endfacet
facet normal 0.01808135211467743 0.3306601345539093 0.9435766935348511
outer loop
vertex -13.53075122833252 216.55001831054688 1477.626220703125
vertex -13.660383224487305 216.77203369140625 1477.5509033203125
vertex -14.032756805419922 216.43499755859375 1477.6761474609375
endloop
endfacet
facet normal 0.017414472997188568 0.3304033577442169 0.94367915391922
outer loop
vertex -13.402121543884277 216.57949829101562 1477.613525390625
vertex -13.428056716918945 216.6561737060547 1477.587158203125
vertex -13.53075122833252 216.55001831054688 1477.626220703125
endloop
endfacet
facet normal 0.01741417683660984 0.3303157687187195 0.9437097907066345
outer loop
vertex -13.53075122833252 216.55001831054688 1477.626220703125
vertex -13.46428108215332 216.72891235351562 1477.5623779296875
vertex -13.660383224487305 216.77203369140625 1477.5509033203125
endloop
endfacet
facet normal 0.017580803483724594 0.3302597999572754 0.9437263607978821
outer loop
vertex -13.428056716918945 216.6561737060547 1477.587158203125
vertex -13.46428108215332 216.72891235351562 1477.5623779296875
vertex -13.53075122833252 216.55001831054688 1477.626220703125
endloop
endfacet
facet normal 0.017818715423345566 0.3304438292980194 0.943657398223877
outer loop
vertex -13.660383224487305 216.77203369140625 1477.5509033203125
vertex -13.510265350341797 216.7967071533203 1477.5394287109375
vertex -13.565134048461914 216.8582305908203 1477.5189208984375
endloop
endfacet
facet normal 0.017653407528996468 0.33130982518196106 0.9433569312095642
outer loop
vertex -13.46428108215332 216.72891235351562 1477.5623779296875
vertex -13.510265350341797 216.7967071533203 1477.5394287109375
vertex -13.660383224487305 216.77203369140625 1477.5509033203125
endloop
endfacet
facet normal 0.01694607175886631 0.3300071954727173 0.9438263177871704
outer loop
vertex -13.667078971862793 216.93995666503906 1477.4923095703125
vertex -13.800349235534668 217.00650024414062 1477.471435546875
vertex -13.660383224487305 216.77203369140625 1477.5509033203125
endloop
endfacet
facet normal 0.018223699182271957 0.330045223236084 0.9437892436981201
outer loop
vertex -13.565134048461914 216.8582305908203 1477.5189208984375
vertex -13.667078971862793 216.93995666503906 1477.4923095703125
vertex -13.660383224487305 216.77203369140625 1477.5509033203125
endloop
endfacet
facet normal 0.01817064732313156 0.33057233691215515 0.9436057806015015
outer loop
vertex -13.660383224487305 216.77203369140625 1477.5509033203125
vertex -13.946063041687012 217.04244995117188 1477.461669921875
vertex -14.032756805419922 216.43499755859375 1477.6761474609375
endloop
endfacet
facet normal 0.018367614597082138 0.3307577073574066 0.9435369372367859
outer loop
vertex -13.800349235534668 217.00650024414062 1477.471435546875
vertex -13.946063041687012 217.04244995117188 1477.461669921875
vertex -13.660383224487305 216.77203369140625 1477.5509033203125
endloop
endfacet
facet normal 0.01772695779800415 0.3305111825466156 0.9436355233192444
outer loop
vertex -14.032756805419922 216.43499755859375 1477.6761474609375
vertex -14.096419334411621 217.04588317871094 1477.46337890625
vertex -14.392024040222168 216.7884979248047 1477.55908203125
endloop
endfacet
facet normal 0.018273230642080307 0.3305586576461792 0.9436084628105164
outer loop
vertex -13.946063041687012 217.04244995117188 1477.461669921875
vertex -14.096419334411621 217.04588317871094 1477.46337890625
vertex -14.032756805419922 216.43499755859375 1477.6761474609375
endloop
endfacet
facet normal 0.017036449164152145 0.3312169313430786 0.9434008002281189
outer loop
vertex -14.096419334411621 217.04588317871094 1477.46337890625
vertex -14.243367195129395 217.01658630371094 1477.476318359375
vertex -14.392024040222168 216.7884979248047 1477.55908203125
endloop
endfacet
facet normal 0.018521692603826523 0.3304087519645691 0.9436562061309814
outer loop
vertex -14.392024040222168 216.7884979248047 1477.55908203125
vertex -14.379043579101562 216.95616149902344 1477.5001220703125
vertex -14.484079360961914 216.8790740966797 1477.5291748046875
endloop
endfacet
facet normal 0.01840471848845482 0.3304175138473511 0.9436553716659546
outer loop
vertex -14.243367195129395 217.01658630371094 1477.476318359375
vertex -14.379043579101562 216.95616149902344 1477.5001220703125
vertex -14.392024040222168 216.7884979248047 1477.55908203125
endloop
endfacet
facet normal -0.01792607083916664 -0.330691397190094 -0.9435685873031616
outer loop
vertex -14.005810737609863 216.9308624267578 1479.091552734375
vertex -14.503240585327148 217.06858825683594 1479.052734375
vertex -14.365078926086426 217.28436279296875 1478.9744873046875
endloop
endfacet
facet normal -0.017739180475473404 -0.3297000527381897 -0.9439189434051514
outer loop
vertex -14.457133293151855 217.37493896484375 1478.944580078125
vertex -14.365078926086426 217.28436279296875 1478.9744873046875
vertex -14.51438045501709 217.31581115722656 1478.96630859375
endloop
endfacet
facet normal -0.01807495206594467 -0.3306059241294861 -0.943595826625824
outer loop
vertex -14.365078926086426 217.28436279296875 1478.9744873046875
vertex -14.503240585327148 217.06858825683594 1479.052734375
vertex -14.562810897827148 217.25022888183594 1478.990234375
endloop
endfacet
facet normal -0.018015675246715546 -0.33090198040008545 -0.9434931874275208
outer loop
vertex -14.51438045501709 217.31581115722656 1478.96630859375
vertex -14.365078926086426 217.28436279296875 1478.9744873046875
vertex -14.562810897827148 217.25022888183594 1478.990234375
endloop
endfacet
facet normal -0.018356047570705414 -0.33105695247650146 -0.9434322118759155
outer loop
vertex -14.503240585327148 217.06858825683594 1479.052734375
vertex -14.63047981262207 217.10382080078125 1479.0428466796875
vertex -14.601757049560547 217.17910766601562 1479.015869140625
endloop
endfacet
facet normal -0.017623284831643105 -0.3304763734340668 -0.9436497092247009
outer loop
vertex -14.562810897827148 217.25022888183594 1478.990234375
vertex -14.503240585327148 217.06858825683594 1479.052734375
vertex -14.601757049560547 217.17910766601562 1479.015869140625
endloop
endfacet
facet normal -0.01807662658393383 -0.3306780755519867 -0.9435704350471497
outer loop
vertex -13.503805160522461 217.04588317871094 1479.0416259765625
vertex -14.005810737609863 216.9308624267578 1479.091552734375
vertex -13.633438110351562 217.26788330078125 1478.96630859375
endloop
endfacet
facet normal -0.01746521145105362 -0.33035969734191895 -0.9436935186386108
outer loop
vertex -13.375176429748535 217.07534790039062 1479.0289306640625
vertex -13.503805160522461 217.04588317871094 1479.0416259765625
vertex -13.401111602783203 217.15203857421875 1479.0025634765625
endloop
endfacet
facet normal -0.01739029586315155 -0.33032384514808655 -0.9437074065208435
outer loop
vertex -13.503805160522461 217.04588317871094 1479.0416259765625
vertex -13.633438110351562 217.26788330078125 1478.96630859375
vertex -13.437335014343262 217.2247772216797 1478.977783203125
endloop
endfacet
facet normal -0.017581067979335785 -0.3302597105503082 -0.9437263011932373
outer loop
vertex -13.401111602783203 217.15203857421875 1479.0025634765625
vertex -13.503805160522461 217.04588317871094 1479.0416259765625
vertex -13.437335014343262 217.2247772216797 1478.977783203125
endloop
endfacet
facet normal -0.017830779775977135 -0.33037999272346497 -0.9436795711517334
outer loop
vertex -13.633438110351562 217.26788330078125 1478.96630859375
vertex -13.538187980651855 217.35409545898438 1478.934326171875
vertex -13.483319282531738 217.2925567626953 1478.954833984375
endloop
endfacet
facet normal -0.017641887068748474 -0.331369549036026 -0.9433361291885376
outer loop
vertex -13.437335014343262 217.2247772216797 1478.977783203125
vertex -13.633438110351562 217.26788330078125 1478.96630859375
vertex -13.483319282531738 217.2925567626953 1478.954833984375
endloop
endfacet
facet normal -0.01698455400764942 -0.33000823855400085 -0.9438252449035645
outer loop
vertex -13.640132904052734 217.43580627441406 1478.90771484375
vertex -13.633438110351562 217.26788330078125 1478.96630859375
vertex -13.77340316772461 217.5023651123047 1478.8868408203125
endloop
endfacet
facet normal -0.018172612413764 -0.33004358410835266 -0.9437907338142395
outer loop
vertex -13.538187980651855 217.35409545898438 1478.934326171875
vertex -13.633438110351562 217.26788330078125 1478.96630859375
vertex -13.640132904052734 217.43580627441406 1478.90771484375
endloop
endfacet
facet normal -0.018186263740062714 -0.330570250749588 -0.9436061382293701
outer loop
vertex -13.633438110351562 217.26788330078125 1478.96630859375
vertex -14.005810737609863 216.9308624267578 1479.091552734375
vertex -13.919116973876953 217.53831481933594 1478.8770751953125
endloop
endfacet
facet normal -0.018361520022153854 -0.3307351768016815 -0.9435449242591858
outer loop
vertex -13.77340316772461 217.5023651123047 1478.8868408203125
vertex -13.633438110351562 217.26788330078125 1478.96630859375
vertex -13.919116973876953 217.53831481933594 1478.8770751953125
endloop
endfacet
facet normal -0.01773587428033352 -0.33051931858062744 -0.9436325430870056
outer loop
vertex -14.005810737609863 216.9308624267578 1479.091552734375
vertex -14.365078926086426 217.28436279296875 1478.9744873046875
vertex -14.069473266601562 217.54173278808594 1478.8787841796875
endloop
endfacet
facet normal -0.01823977567255497 -0.33056309819221497 -0.9436075687408447
outer loop
vertex -13.919116973876953 217.53831481933594 1478.8770751953125
vertex -14.005810737609863 216.9308624267578 1479.091552734375
vertex -14.069473266601562 217.54173278808594 1478.8787841796875
endloop
endfacet
facet normal -0.018098926171660423 -0.3301481008529663 -0.943755567073822
outer loop
vertex -14.069473266601562 217.54173278808594 1478.8787841796875
vertex -14.365078926086426 217.28436279296875 1478.9744873046875
vertex -14.216422080993652 217.512451171875 1478.891845703125
endloop
endfacet
facet normal -0.01852177456021309 -0.33040866255760193 -0.9436562061309814
outer loop
vertex -14.365078926086426 217.28436279296875 1478.9744873046875
vertex -14.457133293151855 217.37493896484375 1478.944580078125
vertex -14.352097511291504 217.4520263671875 1478.91552734375
endloop
endfacet
facet normal -0.017525432631373405 -0.33048325777053833 -0.9436490535736084
outer loop
vertex -14.216422080993652 217.512451171875 1478.891845703125
vertex -14.365078926086426 217.28436279296875 1478.9744873046875
vertex -14.352097511291504 217.4520263671875 1478.91552734375
endloop
endfacet
facet normal 0.9409665465354919 -0.32465660572052 0.09581228345632553
outer loop
vertex -14.635171890258789 217.01748657226562 1478.79638671875
vertex -14.601757049560547 217.17910766601562 1479.015869140625
vertex -14.63047981262207 217.10382080078125 1479.0428466796875
endloop
endfacet
facet normal 0.7398555874824524 -0.6392025947570801 0.2098424881696701
outer loop
vertex -14.541326522827148 216.81996154785156 1477.5509033203125
vertex -14.461830139160156 217.28851318359375 1478.6978759765625
vertex -14.51438045501709 217.31581115722656 1478.96630859375
endloop
endfacet
facet normal 0.9409705400466919 -0.32464101910591125 0.09582682698965073
outer loop
vertex -14.657424926757812 216.60797119140625 1477.62744140625
vertex -14.628703117370605 216.68325805664062 1477.6004638671875
vertex -14.652732849121094 216.69432067871094 1477.8739013671875
endloop
endfacet
facet normal 0.8887922167778015 -0.4375520944595337 0.1363694816827774
outer loop
vertex -14.562810897827148 217.25022888183594 1478.990234375
vertex -14.601757049560547 217.17910766601562 1479.015869140625
vertex -14.58975601196289 216.75436401367188 1477.5748291015625
endloop
endfacet
facet normal 0.8887515664100647 -0.43762773275375366 0.13639144599437714
outer loop
vertex -14.58975601196289 216.75436401367188 1477.5748291015625
vertex -14.601757049560547 217.17910766601562 1479.015869140625
vertex -14.628703117370605 216.68325805664062 1477.6004638671875
endloop
endfacet
facet normal 0.739852249622345 -0.6392064690589905 0.20984229445457458
outer loop
vertex -14.51438045501709 217.31581115722656 1478.96630859375
vertex -14.461830139160156 217.28851318359375 1478.6978759765625
vertex -14.457133293151855 217.37493896484375 1478.944580078125
endloop
endfacet
facet normal 0.7397757768630981 -0.6392737627029419 0.20990681648254395
outer loop
vertex -14.484079360961914 216.8790740966797 1477.5291748046875
vertex -14.479382514953613 216.96551513671875 1477.77587890625
vertex -14.541326522827148 216.81996154785156 1477.5509033203125
endloop
endfacet
facet normal 0.8215001821517944 -0.5428392887115479 0.17453624308109283
outer loop
vertex -14.541326522827148 216.81996154785156 1477.5509033203125
vertex -14.562810897827148 217.25022888183594 1478.990234375
vertex -14.58975601196289 216.75436401367188 1477.5748291015625
endloop
endfacet
facet normal 0.8214392066001892 -0.5429235696792603 0.1745605319738388
outer loop
vertex -14.51438045501709 217.31581115722656 1478.96630859375
vertex -14.562810897827148 217.25022888183594 1478.990234375
vertex -14.541326522827148 216.81996154785156 1477.5509033203125
endloop
endfacet
facet normal 0.9409579038619995 -0.32467690110206604 0.09582848846912384
outer loop
vertex -14.652732849121094 216.69432067871094 1477.8739013671875
vertex -14.601757049560547 217.17910766601562 1479.015869140625
vertex -14.635171890258789 217.01748657226562 1478.79638671875
endloop
endfacet
facet normal 0.9409591555595398 -0.3246738910675049 0.09582716971635818
outer loop
vertex -14.628703117370605 216.68325805664062 1477.6004638671875
vertex -14.601757049560547 217.17910766601562 1479.015869140625
vertex -14.652732849121094 216.69432067871094 1477.8739013671875
endloop
endfacet
facet normal 0.7398473024368286 -0.6392108201980591 0.2098463922739029
outer loop
vertex -14.479382514953613 216.96551513671875 1477.77587890625
vertex -14.461830139160156 217.28851318359375 1478.6978759765625
vertex -14.541326522827148 216.81996154785156 1477.5509033203125
endloop
endfacet
facet normal -0.8410935997962952 -0.5052740573883057 0.1930272877216339
outer loop
vertex -13.437335014343262 217.2247772216797 1478.977783203125
vertex -13.483319282531738 217.2925567626953 1478.954833984375
vertex -13.46428108215332 216.72891235351562 1477.5623779296875
endloop
endfacet
facet normal -0.952292799949646 -0.281913161277771 0.11689038574695587
outer loop
vertex -13.397424697875977 216.66592407226562 1477.8602294921875
vertex -13.428056716918945 216.6561737060547 1477.587158203125
vertex -13.402121543884277 216.57949829101562 1477.613525390625
endloop
endfacet
facet normal -0.8411427140235901 -0.5052036046981812 0.19299809634685516
outer loop
vertex -13.46428108215332 216.72891235351562 1477.5623779296875
vertex -13.483319282531738 217.2925567626953 1478.954833984375
vertex -13.510265350341797 216.7967071533203 1477.5394287109375
endloop
endfacet
facet normal -0.7632365226745605 -0.6051122546195984 0.2265152484178543
outer loop
vertex -13.483319282531738 217.2925567626953 1478.954833984375
vertex -13.542880058288574 217.2677459716797 1478.6878662109375
vertex -13.510265350341797 216.7967071533203 1477.5394287109375
endloop
endfacet
facet normal -0.9523082375526428 -0.281867653131485 0.11687473952770233
outer loop
vertex -13.375176429748535 217.07534790039062 1479.0289306640625
vertex -13.401111602783203 217.15203857421875 1479.0025634765625
vertex -13.379873275756836 216.98892211914062 1478.7822265625
endloop
endfacet
facet normal -0.952309250831604 -0.2818649113178253 0.11687260866165161
outer loop
vertex -13.379873275756836 216.98892211914062 1478.7822265625
vertex -13.401111602783203 217.15203857421875 1479.0025634765625
vertex -13.397424697875977 216.66592407226562 1477.8602294921875
endloop
endfacet
facet normal -0.9522947669029236 -0.2819065451622009 0.11689037084579468
outer loop
vertex -13.397424697875977 216.66592407226562 1477.8602294921875
vertex -13.401111602783203 217.15203857421875 1479.0025634765625
vertex -13.428056716918945 216.6561737060547 1477.587158203125
endloop
endfacet
facet normal -0.9043551087379456 -0.39711424708366394 0.15633955597877502
outer loop
vertex -13.428056716918945 216.6561737060547 1477.587158203125
vertex -13.437335014343262 217.2247772216797 1478.977783203125
vertex -13.46428108215332 216.72891235351562 1477.5623779296875
endloop
endfacet
facet normal -0.9043594598770142 -0.39710575342178345 0.15633605420589447
outer loop
vertex -13.401111602783203 217.15203857421875 1479.0025634765625
vertex -13.437335014343262 217.2247772216797 1478.977783203125
vertex -13.428056716918945 216.6561737060547 1477.587158203125
endloop
endfacet
facet normal -0.7632769346237183 -0.6050598621368408 0.2265193909406662
outer loop
vertex -13.538187980651855 217.35409545898438 1478.934326171875
vertex -13.542880058288574 217.2677459716797 1478.6878662109375
vertex -13.483319282531738 217.2925567626953 1478.954833984375
endloop
endfacet
facet normal -0.7632066607475281 -0.6051376461982727 0.22654825448989868
outer loop
vertex -13.510265350341797 216.7967071533203 1477.5394287109375
vertex -13.560441017150879 216.944580078125 1477.765380859375
vertex -13.565134048461914 216.8582305908203 1477.5189208984375
endloop
endfacet
facet normal -0.7632578611373901 -0.6050891876220703 0.22650520503520966
outer loop
vertex -13.510265350341797 216.7967071533203 1477.5394287109375
vertex -13.542880058288574 217.2677459716797 1478.6878662109375
vertex -13.560441017150879 216.944580078125 1477.765380859375
endloop
endfacet
facet normal 0.6168686151504517 -0.7463815212249756 0.24977558851242065
outer loop
vertex -14.484079360961914 216.8790740966797 1477.5291748046875
vertex -14.379043579101562 216.95616149902344 1477.5001220703125
vertex -14.479382514953613 216.96551513671875 1477.77587890625
endloop
endfacet
facet normal -0.644290566444397 -0.7178619503974915 0.2637496292591095
outer loop
vertex -13.667078971862793 216.93995666503906 1477.4923095703125
vertex -13.542880058288574 217.2677459716797 1478.6878662109375
vertex -13.640132904052734 217.43580627441406 1478.90771484375
endloop
endfacet
facet normal 0.6168678402900696 -0.7463958859443665 0.24973447620868683
outer loop
vertex -14.461830139160156 217.28851318359375 1478.6978759765625
vertex -14.352097511291504 217.4520263671875 1478.91552734375
vertex -14.457133293151855 217.37493896484375 1478.944580078125
endloop
endfacet
facet normal 0.4311595857143402 -0.8540691137313843 0.29097652435302734
outer loop
vertex -14.216422080993652 217.512451171875 1478.891845703125
vertex -14.352097511291504 217.4520263671875 1478.91552734375
vertex -14.243367195129395 217.01658630371094 1477.476318359375
endloop
endfacet
facet normal 0.4313705563545227 -0.8539676070213318 0.29096177220344543
outer loop
vertex -14.243367195129395 217.01658630371094 1477.476318359375
vertex -14.352097511291504 217.4520263671875 1478.91552734375
vertex -14.379043579101562 216.95616149902344 1477.5001220703125
endloop
endfacet
facet normal -0.6442537903785706 -0.7178831100463867 0.2637821137905121
outer loop
vertex -13.640132904052734 217.43580627441406 1478.90771484375
vertex -13.542880058288574 217.2677459716797 1478.6878662109375
vertex -13.538187980651855 217.35409545898438 1478.934326171875
endloop
endfacet
facet normal -0.644316554069519 -0.7178319096565247 0.26376786828041077
outer loop
vertex -13.565134048461914 216.8582305908203 1477.5189208984375
vertex -13.560441017150879 216.944580078125 1477.765380859375
vertex -13.667078971862793 216.93995666503906 1477.4923095703125
endloop
endfacet
facet normal -0.4633277356624603 -0.8335584998130798 0.3008447587490082
outer loop
vertex -13.667078971862793 216.93995666503906 1477.4923095703125
vertex -13.77340316772461 217.5023651123047 1478.8868408203125
vertex -13.800349235534668 217.00650024414062 1477.471435546875
endloop
endfacet
facet normal -0.46340280771255493 -0.8335238695144653 0.3008250594139099
outer loop
vertex -13.640132904052734 217.43580627441406 1478.90771484375
vertex -13.77340316772461 217.5023651123047 1478.8868408203125
vertex -13.667078971862793 216.93995666503906 1477.4923095703125
endloop
endfacet
facet normal -0.24701222777366638 -0.9130381941795349 0.32457101345062256
outer loop
vertex -13.800349235534668 217.00650024414062 1477.471435546875
vertex -13.919116973876953 217.53831481933594 1478.8770751953125
vertex -13.946063041687012 217.04244995117188 1477.461669921875
endloop
endfacet
facet normal -0.24701222777366638 -0.9130381941795349 0.32457101345062256
outer loop
vertex -13.77340316772461 217.5023651123047 1478.8868408203125
vertex -13.919116973876953 217.53831481933594 1478.8770751953125
vertex -13.800349235534668 217.00650024414062 1477.471435546875
endloop
endfacet
facet normal -0.017783252522349358 -0.9435081481933594 0.33087158203125
outer loop
vertex -13.946063041687012 217.04244995117188 1477.461669921875
vertex -14.069473266601562 217.54173278808594 1478.8787841796875
vertex -14.096419334411621 217.04588317871094 1477.46337890625
endloop
endfacet
facet normal -0.017687387764453888 -0.9435071349143982 0.3308795690536499
outer loop
vertex -13.919116973876953 217.53831481933594 1478.8770751953125
vertex -14.069473266601562 217.54173278808594 1478.8787841796875
vertex -13.946063041687012 217.04244995117188 1477.461669921875
endloop
endfacet
facet normal 0.2122521847486496 -0.9235186576843262 0.31947195529937744
outer loop
vertex -14.096419334411621 217.04588317871094 1477.46337890625
vertex -14.216422080993652 217.512451171875 1478.891845703125
vertex -14.243367195129395 217.01658630371094 1477.476318359375
endloop
endfacet
facet normal 0.21241293847560883 -0.9234812259674072 0.3194732367992401
outer loop
vertex -14.069473266601562 217.54173278808594 1478.8787841796875
vertex -14.216422080993652 217.512451171875 1478.891845703125
vertex -14.096419334411621 217.04588317871094 1477.46337890625
endloop
endfacet
facet normal 0.616864025592804 -0.7463979721069336 0.249737948179245
outer loop
vertex -14.479382514953613 216.96551513671875 1477.77587890625
vertex -14.352097511291504 217.4520263671875 1478.91552734375
vertex -14.461830139160156 217.28851318359375 1478.6978759765625
endloop
endfacet
facet normal 0.6168150305747986 -0.7464316487312317 0.249757781624794
outer loop
vertex -14.379043579101562 216.95616149902344 1477.5001220703125
vertex -14.352097511291504 217.4520263671875 1478.91552734375
vertex -14.479382514953613 216.96551513671875 1477.77587890625
endloop
endfacet
facet normal -0.644273579120636 -0.7178763151168823 0.2637518346309662
outer loop
vertex -13.560441017150879 216.944580078125 1477.765380859375
vertex -13.542880058288574 217.2677459716797 1478.6878662109375
vertex -13.667078971862793 216.93995666503906 1477.4923095703125
endloop
endfacet
facet normal -0.01848682202398777 -0.33025068044662476 -0.9437121748924255
outer loop
vertex -14.128887176513672 215.82887268066406 1477.8902587890625
vertex -14.212069511413574 215.846435546875 1477.8857421875
vertex -14.175495147705078 215.9664764404297 1477.843017578125
endloop
endfacet
facet normal -0.016992151737213135 -0.329807311296463 -0.9438953399658203
outer loop
vertex -14.044233322143555 215.82171630859375 1477.8912353515625
vertex -14.128887176513672 215.82887268066406 1477.8902587890625
vertex -14.175495147705078 215.9664764404297 1477.843017578125
endloop
endfacet
facet normal -0.018008433282375336 -0.3305903375148773 -0.943602442741394
outer loop
vertex -14.175495147705078 215.9664764404297 1477.843017578125
vertex -14.032756805419922 216.43499755859375 1477.6761474609375
vertex -13.907699584960938 215.9602508544922 1477.840087890625
endloop
endfacet
facet normal -0.018717853352427483 -0.3302852511405945 -0.943695604801178
outer loop
vertex -13.875711441040039 215.83880615234375 1477.8819580078125
vertex -13.959301948547363 215.82505798339844 1477.888427734375
vertex -13.907699584960938 215.9602508544922 1477.840087890625
endloop
endfacet
facet normal -0.018192021176218987 -0.3304668962955475 -0.943642258644104
outer loop
vertex -13.959301948547363 215.82505798339844 1477.888427734375
vertex -14.044233322143555 215.82171630859375 1477.8912353515625
vertex -13.907699584960938 215.9602508544922 1477.840087890625
endloop
endfacet
facet normal -0.018009161576628685 -0.3306276500225067 -0.9435895085334778
outer loop
vertex -14.044233322143555 215.82171630859375 1477.8912353515625
vertex -14.175495147705078 215.9664764404297 1477.843017578125
vertex -13.907699584960938 215.9602508544922 1477.840087890625
endloop
endfacet
facet normal -0.01824384182691574 -0.3306881785392761 -0.9435637593269348
outer loop
vertex -14.680871963500977 216.48422241210938 1477.6712646484375
vertex -14.657424926757812 216.60797119140625 1477.62744140625
vertex -14.530186653137207 216.57273864746094 1477.6373291015625
endloop
endfacet
facet normal -0.018379172310233116 -0.33048418164253235 -0.9436326026916504
outer loop
vertex -14.674568176269531 216.3423614501953 1477.7208251953125
vertex -14.680871963500977 216.48422241210938 1477.6712646484375
vertex -14.530186653137207 216.57273864746094 1477.6373291015625
endloop
endfacet
facet normal -0.01772196590900421 -0.33066967129707336 -0.943580150604248
outer loop
vertex -14.032756805419922 216.43499755859375 1477.6761474609375
vertex -14.175495147705078 215.9664764404297 1477.843017578125
vertex -14.561041831970215 216.08084106445312 1477.8101806640625
endloop
endfacet
facet normal -0.017967695370316505 -0.3303444981575012 -0.9436894059181213
outer loop
vertex -14.633898735046387 216.20545959472656 1477.7679443359375
vertex -14.032756805419922 216.43499755859375 1477.6761474609375
vertex -14.561041831970215 216.08084106445312 1477.8101806640625
endloop
endfacet
facet normal -0.017854131758213043 -0.3310737609863281 -0.9434359669685364
outer loop
vertex -14.561041831970215 216.08084106445312 1477.8101806640625
vertex -14.175495147705078 215.9664764404297 1477.843017578125
vertex -14.459897994995117 215.97520446777344 1477.8453369140625
endloop
endfacet
facet normal -0.01765654981136322 -0.330480694770813 -0.943647563457489
outer loop
vertex -14.175495147705078 215.9664764404297 1477.843017578125
vertex -14.212069511413574 215.846435546875 1477.8857421875
vertex -14.335884094238281 215.89418029785156 1477.871337890625
endloop
endfacet
facet normal -0.01782827265560627 -0.3301445245742798 -0.9437620043754578
outer loop
vertex -14.459897994995117 215.97520446777344 1477.8453369140625
vertex -14.175495147705078 215.9664764404297 1477.843017578125
vertex -14.335884094238281 215.89418029785156 1477.871337890625
endloop
endfacet
facet normal -0.01788710057735443 -0.33053019642829895 -0.9436259865760803
outer loop
vertex -14.032756805419922 216.43499755859375 1477.6761474609375
vertex -14.633898735046387 216.20545959472656 1477.7679443359375
vertex -14.530186653137207 216.57273864746094 1477.6373291015625
endloop
endfacet
facet normal -0.018643181771039963 -0.33033567667007446 -0.9436793327331543
outer loop
vertex -14.633898735046387 216.20545959472656 1477.7679443359375
vertex -14.674568176269531 216.3423614501953 1477.7208251953125
vertex -14.530186653137207 216.57273864746094 1477.6373291015625
endloop
endfacet
facet normal -0.01813865825533867 -0.33043402433395386 -0.9436547756195068
outer loop
vertex -13.750319480895996 215.88084411621094 1477.8648681640625
vertex -13.907699584960938 215.9602508544922 1477.840087890625
vertex -13.623353958129883 215.95614624023438 1477.8360595703125
endloop
endfacet
facet normal -0.017957355827093124 -0.3301110565662384 -0.9437713623046875
outer loop
vertex -13.875711441040039 215.83880615234375 1477.8819580078125
vertex -13.907699584960938 215.9602508544922 1477.840087890625
vertex -13.750319480895996 215.88084411621094 1477.8648681640625
endloop
endfacet
facet normal -0.018053710460662842 -0.3306007385253906 -0.9435979723930359
outer loop
vertex -13.907699584960938 215.9602508544922 1477.840087890625
vertex -14.032756805419922 216.43499755859375 1477.6761474609375
vertex -13.518308639526367 216.05709838867188 1477.7987060546875
endloop
endfacet
facet normal -0.018137456849217415 -0.3303073048591614 -0.9436992406845093
outer loop
vertex -13.623353958129883 215.95614624023438 1477.8360595703125
vertex -13.907699584960938 215.9602508544922 1477.840087890625
vertex -13.518308639526367 216.05709838867188 1477.7987060546875
endloop
endfacet
facet normal -0.01806832291185856 -0.3306185305118561 -0.9435915350914001
outer loop
vertex -13.518308639526367 216.05709838867188 1477.7987060546875
vertex -14.032756805419922 216.43499755859375 1477.6761474609375
vertex -13.440807342529297 216.17828369140625 1477.7547607421875
endloop
endfacet
facet normal -0.0178087055683136 -0.3307267129421234 -0.9435586333274841
outer loop
vertex -13.383339881896973 216.4546661376953 1477.6568603515625
vertex -13.394999504089355 216.31320190429688 1477.7066650390625
vertex -13.53075122833252 216.55001831054688 1477.626220703125
endloop
endfacet
facet normal -0.017457373440265656 -0.3302403688430786 -0.9437354207038879
outer loop
vertex -13.402121543884277 216.57949829101562 1477.613525390625
vertex -13.383339881896973 216.4546661376953 1477.6568603515625
vertex -13.53075122833252 216.55001831054688 1477.626220703125
endloop
endfacet
facet normal -0.018083838745951653 -0.3306507170200348 -0.943579912185669
outer loop
vertex -13.440807342529297 216.17828369140625 1477.7547607421875
vertex -14.032756805419922 216.43499755859375 1477.6761474609375
vertex -13.53075122833252 216.55001831054688 1477.626220703125
endloop
endfacet
facet normal -0.017357878386974335 -0.3304983079433441 -0.9436469674110413
outer loop
vertex -13.394999504089355 216.31320190429688 1477.7066650390625
vertex -13.440807342529297 216.17828369140625 1477.7547607421875
vertex -13.53075122833252 216.55001831054688 1477.626220703125
endloop
endfacet
facet normal -0.017940079793334007 -0.33070406317710876 -0.9435639381408691
outer loop
vertex -14.032756805419922 216.43499755859375 1477.6761474609375
vertex -14.530186653137207 216.57273864746094 1477.6373291015625
vertex -14.392024040222168 216.7884979248047 1477.55908203125
endloop
endfacet
facet normal -0.01778169721364975 -0.3297387361526489 -0.9439047574996948
outer loop
vertex -14.484079360961914 216.8790740966797 1477.5291748046875
vertex -14.392024040222168 216.7884979248047 1477.55908203125
vertex -14.541326522827148 216.81996154785156 1477.5509033203125
endloop
endfacet
facet normal -0.018070273101329803 -0.33062925934791565 -0.9435876607894897
outer loop
vertex -14.392024040222168 216.7884979248047 1477.55908203125
vertex -14.530186653137207 216.57273864746094 1477.6373291015625
vertex -14.58975601196289 216.75436401367188 1477.5748291015625
endloop
endfacet
facet normal -0.018031369894742966 -0.3308236002922058 -0.9435203671455383
outer loop
vertex -14.541326522827148 216.81996154785156 1477.5509033203125
vertex -14.392024040222168 216.7884979248047 1477.55908203125
vertex -14.58975601196289 216.75436401367188 1477.5748291015625
endloop
endfacet
facet normal -0.018356231972575188 -0.3310571312904358 -0.9434322118759155
outer loop
vertex -14.530186653137207 216.57273864746094 1477.6373291015625
vertex -14.657424926757812 216.60797119140625 1477.62744140625
vertex -14.628703117370605 216.68325805664062 1477.6004638671875
endloop
endfacet
facet normal -0.01767212711274624 -0.3305150866508484 -0.9436352849006653
outer loop
vertex -14.58975601196289 216.75436401367188 1477.5748291015625
vertex -14.530186653137207 216.57273864746094 1477.6373291015625
vertex -14.628703117370605 216.68325805664062 1477.6004638671875
endloop
endfacet
facet normal -0.01808135211467743 -0.3306601345539093 -0.9435766935348511
outer loop
vertex -13.53075122833252 216.55001831054688 1477.626220703125
vertex -14.032756805419922 216.43499755859375 1477.6761474609375
vertex -13.660383224487305 216.77203369140625 1477.5509033203125
endloop
endfacet
facet normal -0.017414472997188568 -0.3304033577442169 -0.94367915391922
outer loop
vertex -13.402121543884277 216.57949829101562 1477.613525390625
vertex -13.53075122833252 216.55001831054688 1477.626220703125
vertex -13.428056716918945 216.6561737060547 1477.587158203125
endloop
endfacet
facet normal -0.01741417683660984 -0.3303157687187195 -0.9437097907066345
outer loop
vertex -13.53075122833252 216.55001831054688 1477.626220703125
vertex -13.660383224487305 216.77203369140625 1477.5509033203125
vertex -13.46428108215332 216.72891235351562 1477.5623779296875
endloop
endfacet
facet normal -0.017580803483724594 -0.3302597999572754 -0.9437263607978821
outer loop
vertex -13.428056716918945 216.6561737060547 1477.587158203125
vertex -13.53075122833252 216.55001831054688 1477.626220703125
vertex -13.46428108215332 216.72891235351562 1477.5623779296875
endloop
endfacet
facet normal -0.017818715423345566 -0.3304438292980194 -0.943657398223877
outer loop
vertex -13.660383224487305 216.77203369140625 1477.5509033203125
vertex -13.565134048461914 216.8582305908203 1477.5189208984375
vertex -13.510265350341797 216.7967071533203 1477.5394287109375
endloop
endfacet
facet normal -0.017653407528996468 -0.33130982518196106 -0.9433569312095642
outer loop
vertex -13.46428108215332 216.72891235351562 1477.5623779296875
vertex -13.660383224487305 216.77203369140625 1477.5509033203125
vertex -13.510265350341797 216.7967071533203 1477.5394287109375
endloop
endfacet
facet normal -0.01694607175886631 -0.3300071954727173 -0.9438263177871704
outer loop
vertex -13.667078971862793 216.93995666503906 1477.4923095703125
vertex -13.660383224487305 216.77203369140625 1477.5509033203125
vertex -13.800349235534668 217.00650024414062 1477.471435546875
endloop
endfacet
facet normal -0.018223699182271957 -0.330045223236084 -0.9437892436981201
outer loop
vertex -13.565134048461914 216.8582305908203 1477.5189208984375
vertex -13.660383224487305 216.77203369140625 1477.5509033203125
vertex -13.667078971862793 216.93995666503906 1477.4923095703125
endloop
endfacet
facet normal -0.01817064732313156 -0.33057233691215515 -0.9436057806015015
outer loop
vertex -13.660383224487305 216.77203369140625 1477.5509033203125
vertex -14.032756805419922 216.43499755859375 1477.6761474609375
vertex -13.946063041687012 217.04244995117188 1477.461669921875
endloop
endfacet
facet normal -0.018367614597082138 -0.3307577073574066 -0.9435369372367859
outer loop
vertex -13.800349235534668 217.00650024414062 1477.471435546875
vertex -13.660383224487305 216.77203369140625 1477.5509033203125
vertex -13.946063041687012 217.04244995117188 1477.461669921875
endloop
endfacet
facet normal -0.01772695779800415 -0.3305111825466156 -0.9436355233192444
outer loop
vertex -14.032756805419922 216.43499755859375 1477.6761474609375
vertex -14.392024040222168 216.7884979248047 1477.55908203125
vertex -14.096419334411621 217.04588317871094 1477.46337890625
endloop
endfacet
facet normal -0.018273230642080307 -0.3305586576461792 -0.9436084628105164
outer loop
vertex -13.946063041687012 217.04244995117188 1477.461669921875
vertex -14.032756805419922 216.43499755859375 1477.6761474609375
vertex -14.096419334411621 217.04588317871094 1477.46337890625
endloop
endfacet
facet normal -0.017036449164152145 -0.3312169313430786 -0.9434008002281189
outer loop
vertex -14.096419334411621 217.04588317871094 1477.46337890625
vertex -14.392024040222168 216.7884979248047 1477.55908203125
vertex -14.243367195129395 217.01658630371094 1477.476318359375
endloop
endfacet
facet normal -0.018521692603826523 -0.3304087519645691 -0.9436562061309814
outer loop
vertex -14.392024040222168 216.7884979248047 1477.55908203125
vertex -14.484079360961914 216.8790740966797 1477.5291748046875
vertex -14.379043579101562 216.95616149902344 1477.5001220703125
endloop
endfacet
facet normal -0.01840471848845482 -0.3304175138473511 -0.9436553716659546
outer loop
vertex -14.243367195129395 217.01658630371094 1477.476318359375
vertex -14.392024040222168 216.7884979248047 1477.55908203125
vertex -14.379043579101562 216.95616149902344 1477.5001220703125
endloop
endfacet
endsolid