solid ascii
facet normal 0.6168678402900696 -0.7463958859443665 0.24973447620868683
outer loop
vertex -14.520007133483887 216.2179412841797 1475.6419677734375
vertex -14.414971351623535 216.29502868652344 1475.6129150390625
vertex -14.515310287475586 216.3043670654297 1475.888671875
endloop
endfacet
facet normal -0.6443749070167542 -0.7177992463111877 0.2637143135070801
outer loop
vertex -13.703006744384766 216.27880859375 1475.60498046875
vertex -13.578807830810547 216.60659790039062 1476.8006591796875
vertex -13.676060676574707 216.77467346191406 1477.0205078125
endloop
endfacet
facet normal 0.6168643236160278 -0.7463976740837097 0.24973754584789276
outer loop
vertex -14.497757911682129 216.6273651123047 1476.8106689453125
vertex -14.388025283813477 216.79087829589844 1477.0283203125
vertex -14.493062019348145 216.7137908935547 1477.057373046875
endloop
endfacet
facet normal 0.43137288093566895 -0.8539693355560303 0.2909533977508545
outer loop
vertex -14.252349853515625 216.85130310058594 1477.0045166015625
vertex -14.388025283813477 216.79087829589844 1477.0283203125
vertex -14.279294967651367 216.35545349121094 1475.589111328125
endloop
endfacet
facet normal 0.4313703775405884 -0.853970468044281 0.29095354676246643
outer loop
vertex -14.279294967651367 216.35545349121094 1475.589111328125
vertex -14.388025283813477 216.79087829589844 1477.0283203125
vertex -14.414971351623535 216.29502868652344 1475.6129150390625
endloop
endfacet
facet normal -0.644316554069519 -0.7178327441215515 0.2637656331062317
outer loop
vertex -13.676060676574707 216.77467346191406 1477.0205078125
vertex -13.578807830810547 216.60659790039062 1476.8006591796875
vertex -13.574115753173828 216.6929473876953 1477.047119140625
endloop
endfacet
facet normal -0.644439160823822 -0.7177489995956421 0.26369422674179077
outer loop
vertex -13.601061820983887 216.1970977783203 1475.6317138671875
vertex -13.596369743347168 216.28343200683594 1475.878173828125
vertex -13.703006744384766 216.27880859375 1475.60498046875
endloop
endfacet
facet normal -0.46311140060424805 -0.8336666226387024 0.30087849497795105
outer loop
vertex -13.703006744384766 216.27880859375 1475.60498046875
vertex -13.809330940246582 216.84121704101562 1476.9996337890625
vertex -13.83627700805664 216.34535217285156 1475.584228515625
endloop
endfacet
facet normal -0.46332815289497375 -0.8335666060447693 0.3008216321468353
outer loop
vertex -13.676060676574707 216.77467346191406 1477.0205078125
vertex -13.809330940246582 216.84121704101562 1476.9996337890625
vertex -13.703006744384766 216.27880859375 1475.60498046875
endloop
endfacet
facet normal -0.24701222777366638 -0.9130381941795349 0.32457101345062256
outer loop
vertex -13.83627700805664 216.34535217285156 1475.584228515625
vertex -13.955044746398926 216.87716674804688 1476.9898681640625
vertex -13.981990814208984 216.3813018798828 1475.574462890625
endloop
endfacet
facet normal -0.24701222777366638 -0.9130381941795349 0.32457101345062256
outer loop
vertex -13.809330940246582 216.84121704101562 1476.9996337890625
vertex -13.955044746398926 216.87716674804688 1476.9898681640625
vertex -13.83627700805664 216.34535217285156 1475.584228515625
endloop
endfacet
facet normal -0.018051709979772568 -0.9435021281242371 0.33087456226348877
outer loop
vertex -13.981990814208984 216.3813018798828 1475.574462890625
vertex -14.105401039123535 216.88058471679688 1476.991455078125
vertex -14.132347106933594 216.38473510742188 1475.5760498046875
endloop
endfacet
facet normal -0.017955848947167397 -0.9435010552406311 0.3308825194835663
outer loop
vertex -13.955044746398926 216.87716674804688 1476.9898681640625
vertex -14.105401039123535 216.88058471679688 1476.991455078125
vertex -13.981990814208984 216.3813018798828 1475.574462890625
endloop
endfacet
facet normal 0.21241424977779388 -0.9234808683395386 0.3194732069969177
outer loop
vertex -14.132347106933594 216.38473510742188 1475.5760498046875
vertex -14.252349853515625 216.85130310058594 1477.0045166015625
vertex -14.279294967651367 216.35545349121094 1475.589111328125
endloop
endfacet
facet normal 0.21241293847560883 -0.9234812259674072 0.3194732367992401
outer loop
vertex -14.105401039123535 216.88058471679688 1476.991455078125
vertex -14.252349853515625 216.85130310058594 1477.0045166015625
vertex -14.132347106933594 216.38473510742188 1475.5760498046875
endloop
endfacet
facet normal 0.616864025592804 -0.7463979721069336 0.249737948179245
outer loop
vertex -14.515310287475586 216.3043670654297 1475.888671875
vertex -14.388025283813477 216.79087829589844 1477.0283203125
vertex -14.497757911682129 216.6273651123047 1476.8106689453125
endloop
endfacet
facet normal 0.6168703436851501 -0.7463934421539307 0.24973531067371368
outer loop
vertex -14.414971351623535 216.29502868652344 1475.6129150390625
vertex -14.388025283813477 216.79087829589844 1477.0283203125
vertex -14.515310287475586 216.3043670654297 1475.888671875
endloop
endfacet
facet normal -0.6444625854492188 -0.717724621295929 0.26370295882225037
outer loop
vertex -13.596369743347168 216.28343200683594 1475.878173828125
vertex -13.578807830810547 216.60659790039062 1476.8006591796875
vertex -13.703006744384766 216.27880859375 1475.60498046875
endloop
endfacet
endsolid