solid ascii
facet normal 0.37310054898262024 0.8733760714530945 -0.3130657374858856
outer loop
vertex -14.28392505645752 214.52415466308594 1474.111328125
vertex -14.407739639282227 214.57188415527344 1474.096923828125
vertex -14.279228210449219 214.61058044433594 1474.3580322265625
endloop
endfacet
facet normal 0.9842488169670105 -0.17185629904270172 0.04146745428442955
outer loop
vertex -14.752728462219238 215.1619415283203 1473.896728515625
vertex -14.707027435302734 215.6951904296875 1475.02197265625
vertex -14.72578239440918 215.6577911376953 1475.3121337890625
endloop
endfacet
facet normal 0.3731931447982788 0.873340368270874 -0.31305503845214844
outer loop
vertex -14.261675834655762 214.93357849121094 1475.280029296875
vertex -14.380793571472168 215.0677490234375 1475.5123291015625
vertex -14.256978988647461 215.02000427246094 1475.5267333984375
endloop
endfacet
facet normal 0.5654883980751038 0.7749535441398621 -0.2822583317756653
outer loop
vertex -14.50480842590332 215.14877319335938 1475.486328125
vertex -14.380793571472168 215.0677490234375 1475.5123291015625
vertex -14.531754493713379 214.6529083251953 1474.0709228515625
endloop
endfacet
facet normal 0.5654883980751038 0.7749535441398621 -0.2822583317756653
outer loop
vertex -14.531754493713379 214.6529083251953 1474.0709228515625
vertex -14.380793571472168 215.0677490234375 1475.5123291015625
vertex -14.407739639282227 214.57188415527344 1474.096923828125
endloop
endfacet
facet normal 0.9842509031295776 -0.1718442589044571 0.041469138115644455
outer loop
vertex -14.72578239440918 215.6577911376953 1475.3121337890625
vertex -14.707027435302734 215.6951904296875 1475.02197265625
vertex -14.702335357666016 215.7815399169922 1475.2684326171875
endloop
endfacet
facet normal 0.9842507243156433 -0.17184758186340332 0.04145966097712517
outer loop
vertex -14.729281425476074 215.2856903076172 1473.85302734375
vertex -14.724589347839355 215.3720245361328 1474.0994873046875
vertex -14.752728462219238 215.1619415283203 1473.896728515625
endloop
endfacet
facet normal 0.9989594221115112 0.0336369052529335 -0.030799036845564842
outer loop
vertex -14.752728462219238 215.1619415283203 1473.896728515625
vertex -14.719477653503418 215.51593017578125 1475.36181640625
vertex -14.746423721313477 215.02008056640625 1473.9462890625
endloop
endfacet
facet normal 0.9989604949951172 0.03361250460147858 -0.030793162062764168
outer loop
vertex -14.72578239440918 215.6577911376953 1475.3121337890625
vertex -14.719477653503418 215.51593017578125 1475.36181640625
vertex -14.752728462219238 215.1619415283203 1473.896728515625
endloop
endfacet
facet normal 0.9625927209854126 0.2494753897190094 -0.10572262108325958
outer loop
vertex -14.746423721313477 215.02008056640625 1473.9462890625
vertex -14.678808212280273 215.3790283203125 1475.408935546875
vertex -14.705754280090332 214.8831787109375 1473.9935302734375
endloop
endfacet
facet normal 0.9625695943832397 0.24955631792545319 -0.10574141889810562
outer loop
vertex -14.719477653503418 215.51593017578125 1475.36181640625
vertex -14.678808212280273 215.3790283203125 1475.408935546875
vertex -14.746423721313477 215.02008056640625 1473.9462890625
endloop
endfacet
facet normal 0.8746581673622131 0.4520419239997864 -0.17501723766326904
outer loop
vertex -14.705754280090332 214.8831787109375 1473.9935302734375
vertex -14.605951309204102 215.25442504882812 1475.451171875
vertex -14.63289737701416 214.75856018066406 1474.0357666015625
endloop
endfacet
facet normal 0.8746361136436462 0.45208150148391724 -0.1750257909297943
outer loop
vertex -14.678808212280273 215.3790283203125 1475.408935546875
vertex -14.605951309204102 215.25442504882812 1475.451171875
vertex -14.705754280090332 214.8831787109375 1473.9935302734375
endloop
endfacet
facet normal 0.74000084400177 0.6302586793899536 -0.23488909006118774
outer loop
vertex -14.63289737701416 214.75856018066406 1474.0357666015625
vertex -14.50480842590332 215.14877319335938 1475.486328125
vertex -14.531754493713379 214.6529083251953 1474.0709228515625
endloop
endfacet
facet normal 0.74000084400177 0.6302586793899536 -0.23488909006118774
outer loop
vertex -14.605951309204102 215.25442504882812 1475.451171875
vertex -14.50480842590332 215.14877319335938 1475.486328125
vertex -14.63289737701416 214.75856018066406 1474.0357666015625
endloop
endfacet
facet normal 0.3731897473335266 0.8733410239219666 -0.31305718421936035
outer loop
vertex -14.279228210449219 214.61058044433594 1474.3580322265625
vertex -14.380793571472168 215.0677490234375 1475.5123291015625
vertex -14.261675834655762 214.93357849121094 1475.280029296875
endloop
endfacet
facet normal 0.3731187582015991 0.8733656406402588 -0.31307315826416016
outer loop
vertex -14.407739639282227 214.57188415527344 1474.096923828125
vertex -14.380793571472168 215.0677490234375 1475.5123291015625
vertex -14.279228210449219 214.61058044433594 1474.3580322265625
endloop
endfacet
facet normal 0.9842494130134583 -0.171853706240654 0.04146618768572807
outer loop
vertex -14.724589347839355 215.3720245361328 1474.0994873046875
vertex -14.707027435302734 215.6951904296875 1475.02197265625
vertex -14.752728462219238 215.1619415283203 1473.896728515625
endloop
endfacet
endsolid