solid ascii
facet normal -0.9968284964561462 0.0790998712182045 -0.008734066039323807
outer loop
vertex -13.439909934997559 215.48678588867188 1475.34765625
vertex -13.42824935913086 215.62823486328125 1475.2978515625
vertex -13.466856002807617 214.9909210205078 1473.9322509765625
endloop
endfacet
facet normal -0.33973610401153564 0.8896355032920837 -0.30516892671585083
outer loop
vertex -13.942874908447266 214.6028594970703 1474.35400390625
vertex -13.822175025939941 214.5585479736328 1474.0904541015625
vertex -13.947566986083984 214.5165252685547 1474.1075439453125
endloop
endfacet
facet normal -0.9898930788040161 -0.12690287828445435 0.06330371648073196
outer loop
vertex -13.42824935913086 215.62823486328125 1475.2978515625
vertex -13.451728820800781 215.66664123535156 1475.0076904296875
vertex -13.455195426940918 215.1323699951172 1473.8824462890625
endloop
endfacet
facet normal -0.33983272314071655 0.8895865678787231 -0.30520370602607727
outer loop
vertex -13.920620918273926 215.0123748779297 1475.52294921875
vertex -13.795228958129883 215.05441284179688 1475.505859375
vertex -13.925313949584961 214.926025390625 1475.2764892578125
endloop
endfacet
facet normal -0.9968284964561462 0.07909988611936569 -0.008734067901968956
outer loop
vertex -13.466856002807617 214.9909210205078 1473.9322509765625
vertex -13.42824935913086 215.62823486328125 1475.2978515625
vertex -13.455195426940918 215.1323699951172 1473.8824462890625
endloop
endfacet
facet normal -0.33988821506500244 0.8895778656005859 -0.30516740679740906
outer loop
vertex -13.925313949584961 214.926025390625 1475.2764892578125
vertex -13.795228958129883 215.05441284179688 1475.505859375
vertex -13.942874908447266 214.6028594970703 1474.35400390625
endloop
endfacet
facet normal -0.3397940397262573 0.8896059393882751 -0.3051905035972595
outer loop
vertex -13.942874908447266 214.6028594970703 1474.35400390625
vertex -13.795228958129883 215.05441284179688 1475.505859375
vertex -13.822175025939941 214.5585479736328 1474.0904541015625
endloop
endfacet
facet normal -0.5358317494392395 0.7999737858772278 -0.2700485289096832
outer loop
vertex -13.822175025939941 214.5585479736328 1474.0904541015625
vertex -13.668264389038086 215.1297149658203 1475.47705078125
vertex -13.695210456848145 214.6338653564453 1474.0616455078125
endloop
endfacet
facet normal -0.5357633829116821 0.8000116944313049 -0.27007177472114563
outer loop
vertex -13.795228958129883 215.05441284179688 1475.505859375
vertex -13.668264389038086 215.1297149658203 1475.47705078125
vertex -13.822175025939941 214.5585479736328 1474.0904541015625
endloop
endfacet
facet normal -0.7154564261436462 0.6635054349899292 -0.21882085502147675
outer loop
vertex -13.695210456848145 214.6338653564453 1474.0616455078125
vertex -13.563218116760254 215.2306671142578 1475.439697265625
vertex -13.590164184570312 214.7348175048828 1474.0242919921875
endloop
endfacet
facet normal -0.7154564261436462 0.6635054349899292 -0.21882085502147675
outer loop
vertex -13.668264389038086 215.1297149658203 1475.47705078125
vertex -13.563218116760254 215.2306671142578 1475.439697265625
vertex -13.695210456848145 214.6338653564453 1474.0616455078125
endloop
endfacet
facet normal -0.8568171858787537 0.491494745016098 -0.15587559342384338
outer loop
vertex -13.590164184570312 214.7348175048828 1474.0242919921875
vertex -13.485716819763184 215.3518524169922 1475.395751953125
vertex -13.512662887573242 214.85598754882812 1473.9803466796875
endloop
endfacet
facet normal -0.8568428158760071 0.4914562702178955 -0.15585632622241974
outer loop
vertex -13.563218116760254 215.2306671142578 1475.439697265625
vertex -13.485716819763184 215.3518524169922 1475.395751953125
vertex -13.590164184570312 214.7348175048828 1474.0242919921875
endloop
endfacet
facet normal -0.9523197412490845 0.2931472063064575 -0.08456950634717941
outer loop
vertex -13.512662887573242 214.85598754882812 1473.9803466796875
vertex -13.439909934997559 215.48678588867188 1475.34765625
vertex -13.466856002807617 214.9909210205078 1473.9322509765625
endloop
endfacet
facet normal -0.9523197412490845 0.2931472361087799 -0.08456950634717941
outer loop
vertex -13.485716819763184 215.3518524169922 1475.395751953125
vertex -13.439909934997559 215.48678588867188 1475.34765625
vertex -13.512662887573242 214.85598754882812 1473.9803466796875
endloop
endfacet
facet normal -0.9898852109909058 -0.12696866691112518 0.06329436600208282
outer loop
vertex -13.44703197479248 215.75306701660156 1475.2545166015625
vertex -13.451728820800781 215.66664123535156 1475.0076904296875
vertex -13.42824935913086 215.62823486328125 1475.2978515625
endloop
endfacet
facet normal -0.9898931980133057 -0.12691211700439453 0.0632825493812561
outer loop
vertex -13.455195426940918 215.1323699951172 1473.8824462890625
vertex -13.469281196594238 215.34364318847656 1474.0858154296875
vertex -13.473978042602539 215.2572021484375 1473.8389892578125
endloop
endfacet
facet normal -0.9898845553398132 -0.1269562691450119 0.06332903355360031
outer loop
vertex -13.455195426940918 215.1323699951172 1473.8824462890625
vertex -13.451728820800781 215.66664123535156 1475.0076904296875
vertex -13.469281196594238 215.34364318847656 1474.0858154296875
endloop
endfacet
endsolid