solid ascii
facet normal -0.9968290328979492 0.07909238338470459 -0.00873124785721302
outer loop
vertex -13.403982162475586 216.14791870117188 1477.23486328125
vertex -13.392321586608887 216.2893829345703 1477.18505859375
vertex -13.430927276611328 215.65206909179688 1475.8194580078125
endloop
endfacet
facet normal -0.33983275294303894 0.8895862698554993 -0.30520492792129517
outer loop
vertex -13.906947135925293 215.26400756835938 1476.2412109375
vertex -13.786247253417969 215.21969604492188 1475.9776611328125
vertex -13.911639213562012 215.1776580810547 1475.9947509765625
endloop
endfacet
facet normal -0.9898828268051147 -0.12697060406208038 0.06332724541425705
outer loop
vertex -13.392321586608887 216.2893829345703 1477.18505859375
vertex -13.415801048278809 216.32777404785156 1476.89501953125
vertex -13.419267654418945 215.79351806640625 1475.7696533203125
endloop
endfacet
facet normal -0.33973705768585205 0.8896182775497437 -0.3052179515361786
outer loop
vertex -13.884693145751953 215.67352294921875 1477.41015625
vertex -13.75930118560791 215.71554565429688 1477.39306640625
vertex -13.889385223388672 215.58717346191406 1477.1636962890625
endloop
endfacet
facet normal -0.9968289136886597 0.07909393310546875 -0.008731972426176071
outer loop
vertex -13.430927276611328 215.65206909179688 1475.8194580078125
vertex -13.392321586608887 216.2893829345703 1477.18505859375
vertex -13.419267654418945 215.79351806640625 1475.7696533203125
endloop
endfacet
facet normal -0.33979538083076477 0.889609158039093 -0.30517980456352234
outer loop
vertex -13.889385223388672 215.58717346191406 1477.1636962890625
vertex -13.75930118560791 215.71554565429688 1477.39306640625
vertex -13.906947135925293 215.26400756835938 1476.2412109375
endloop
endfacet
facet normal -0.3397772014141083 0.8896145224571228 -0.3051842451095581
outer loop
vertex -13.906947135925293 215.26400756835938 1476.2412109375
vertex -13.75930118560791 215.71554565429688 1477.39306640625
vertex -13.786247253417969 215.21969604492188 1475.9776611328125
endloop
endfacet
facet normal -0.5357605814933777 0.8000133633613586 -0.27007272839546204
outer loop
vertex -13.786247253417969 215.21969604492188 1475.9776611328125
vertex -13.632336616516113 215.79086303710938 1477.3642578125
vertex -13.659281730651855 215.2949981689453 1475.9488525390625
endloop
endfacet
facet normal -0.5358317494392395 0.7999737858772278 -0.2700485587120056
outer loop
vertex -13.75930118560791 215.71554565429688 1477.39306640625
vertex -13.632336616516113 215.79086303710938 1477.3642578125
vertex -13.786247253417969 215.21969604492188 1475.9776611328125
endloop
endfacet
facet normal -0.7154597043991089 0.663500189781189 -0.21882611513137817
outer loop
vertex -13.659281730651855 215.2949981689453 1475.9488525390625
vertex -13.527290344238281 215.89181518554688 1477.326904296875
vertex -13.55423641204834 215.3959503173828 1475.9114990234375
endloop
endfacet
facet normal -0.7154566049575806 0.6635031700134277 -0.21882767975330353
outer loop
vertex -13.632336616516113 215.79086303710938 1477.3642578125
vertex -13.527290344238281 215.89181518554688 1477.326904296875
vertex -13.659281730651855 215.2949981689453 1475.9488525390625
endloop
endfacet
facet normal -0.8568428158760071 0.4914562702178955 -0.15585632622241974
outer loop
vertex -13.55423641204834 215.3959503173828 1475.9114990234375
vertex -13.449789047241211 216.0129852294922 1477.282958984375
vertex -13.47673511505127 215.5171356201172 1475.8675537109375
endloop
endfacet
facet normal -0.8568171858787537 0.491494745016098 -0.1558755785226822
outer loop
vertex -13.527290344238281 215.89181518554688 1477.326904296875
vertex -13.449789047241211 216.0129852294922 1477.282958984375
vertex -13.55423641204834 215.3959503173828 1475.9114990234375
endloop
endfacet
facet normal -0.9523178339004517 0.29315340518951416 -0.08456920087337494
outer loop
vertex -13.47673511505127 215.5171356201172 1475.8675537109375
vertex -13.403982162475586 216.14791870117188 1477.23486328125
vertex -13.430927276611328 215.65206909179688 1475.8194580078125
endloop
endfacet
facet normal -0.9523195624351501 0.2931481897830963 -0.08456668257713318
outer loop
vertex -13.449789047241211 216.0129852294922 1477.282958984375
vertex -13.403982162475586 216.14791870117188 1477.23486328125
vertex -13.47673511505127 215.5171356201172 1475.8675537109375
endloop
endfacet
facet normal -0.9898844957351685 -0.12695646286010742 0.06332924216985703
outer loop
vertex -13.411104202270508 216.41421508789062 1477.1417236328125
vertex -13.415801048278809 216.32777404785156 1476.89501953125
vertex -13.392321586608887 216.2893829345703 1477.18505859375
endloop
endfacet
facet normal -0.9898857474327087 -0.12695351243019104 0.06331655383110046
outer loop
vertex -13.419267654418945 215.79351806640625 1475.7696533203125
vertex -13.433353424072266 216.00477600097656 1475.9730224609375
vertex -13.43804931640625 215.91835021972656 1475.726318359375
endloop
endfacet
facet normal -0.9898849725723267 -0.126957967877388 0.06332125514745712
outer loop
vertex -13.419267654418945 215.79351806640625 1475.7696533203125
vertex -13.415801048278809 216.32777404785156 1476.89501953125
vertex -13.433353424072266 216.00477600097656 1475.9730224609375
endloop
endfacet
endsolid