solid ascii
facet normal 0.018116317689418793 0.330684632062912 0.9435673952102661
outer loop
vertex -13.956549644470215 214.35122680664062 1473.6357421875
vertex -14.113595008850098 214.9474334716797 1473.4298095703125
vertex -14.292906761169434 214.35885620117188 1473.6395263671875
endloop
endfacet
facet normal 0.01802198588848114 0.3307931423187256 0.9435312151908875
outer loop
vertex -14.738263130187988 215.12039184570312 1473.381103515625
vertex -14.759331703186035 214.88198852539062 1473.465087890625
vertex -14.113595008850098 214.9474334716797 1473.4298095703125
endloop
endfacet
facet normal 0.018022019416093826 0.3307928442955017 0.943531334400177
outer loop
vertex -14.759331703186035 214.88198852539062 1473.465087890625
vertex -14.682092666625977 214.65354919433594 1473.543701171875
vertex -14.113595008850098 214.9474334716797 1473.4298095703125
endloop
endfacet
facet normal 0.017762912437319756 0.3307824730873108 0.9435398578643799
outer loop
vertex -14.113595008850098 214.9474334716797 1473.4298095703125
vertex -14.518305778503418 214.4698486328125 1473.6048583984375
vertex -14.292906761169434 214.35885620117188 1473.6395263671875
endloop
endfacet
facet normal 0.018238846212625504 0.33042213320732117 0.9436569809913635
outer loop
vertex -14.682092666625977 214.65354919433594 1473.543701171875
vertex -14.518305778503418 214.4698486328125 1473.6048583984375
vertex -14.113595008850098 214.9474334716797 1473.4298095703125
endloop
endfacet
facet normal 0.018041541799902916 0.33066749572753906 0.9435749053955078
outer loop
vertex -13.956549644470215 214.35122680664062 1473.6357421875
vertex -13.727163314819336 214.45191955566406 1473.5960693359375
vertex -14.113595008850098 214.9474334716797 1473.4298095703125
endloop
endfacet
facet normal 0.0179252028465271 0.3305869698524475 0.9436052441596985
outer loop
vertex -13.727163314819336 214.45191955566406 1473.5960693359375
vertex -13.55661678314209 214.62803649902344 1473.5311279296875
vertex -14.113595008850098 214.9474334716797 1473.4298095703125
endloop
endfacet
facet normal 0.017901023849844933 0.33080634474754333 0.9435288310050964
outer loop
vertex -14.113595008850098 214.9474334716797 1473.4298095703125
vertex -13.470864295959473 214.85276794433594 1473.4508056640625
vertex -13.482959747314453 215.0919189453125 1473.3671875
endloop
endfacet
facet normal 0.017846673727035522 0.3304641544818878 0.9436497688293457
outer loop
vertex -13.55661678314209 214.62803649902344 1473.5311279296875
vertex -13.470864295959473 214.85276794433594 1473.4508056640625
vertex -14.113595008850098 214.9474334716797 1473.4298095703125
endloop
endfacet
facet normal 0.01794520951807499 0.33054110407829285 0.9436209797859192
outer loop
vertex -14.113595008850098 214.9474334716797 1473.4298095703125
vertex -14.56491756439209 215.39151000976562 1473.2828369140625
vertex -14.738263130187988 215.12039184570312 1473.381103515625
endloop
endfacet
facet normal 0.018009934574365616 0.33039289712905884 0.9436717629432678
outer loop
vertex -13.482959747314453 215.0919189453125 1473.3671875
vertex -13.645971298217773 215.37066650390625 1473.272705078125
vertex -14.113595008850098 214.9474334716797 1473.4298095703125
endloop
endfacet
facet normal 0.017832230776548386 0.33056777715682983 0.9436137676239014
outer loop
vertex -13.645971298217773 215.37066650390625 1473.272705078125
vertex -13.854288101196289 215.50839233398438 1473.2283935546875
vertex -14.113595008850098 214.9474334716797 1473.4298095703125
endloop
endfacet
facet normal 0.01817031390964985 0.3304268419742584 0.9436566233634949
outer loop
vertex -13.854288101196289 215.50839233398438 1473.2283935546875
vertex -14.10207462310791 215.5607147216797 1473.21484375
vertex -14.113595008850098 214.9474334716797 1473.4298095703125
endloop
endfacet
facet normal 0.01794804446399212 0.3305436968803406 0.9436200857162476
outer loop
vertex -14.113595008850098 214.9474334716797 1473.4298095703125
vertex -14.351613998413086 215.51966857910156 1473.23388671875
vertex -14.56491756439209 215.39151000976562 1473.2828369140625
endloop
endfacet
facet normal 0.017660176381468773 0.33043843507766724 0.9436622262001038
outer loop
vertex -14.10207462310791 215.5607147216797 1473.21484375
vertex -14.351613998413086 215.51966857910156 1473.23388671875
vertex -14.113595008850098 214.9474334716797 1473.4298095703125
endloop
endfacet
facet normal -0.04782257601618767 0.9429637789726257 -0.3294420540332794
outer loop
vertex -14.12507152557373 214.3341522216797 1473.6448974609375
vertex -14.040140151977539 214.3374786376953 1473.64208984375
vertex -14.152016639709473 213.83828735351562 1472.2294921875
endloop
endfacet
facet normal 0.21265652775764465 0.920957624912262 -0.3265184462070465
outer loop
vertex -14.315155982971191 213.94943237304688 1472.4708251953125
vertex -14.23667049407959 213.84544372558594 1472.2286376953125
vertex -14.319852828979492 213.86300659179688 1472.2239990234375
endloop
endfacet
facet normal -0.047991372644901276 0.9429604411125183 -0.32942748069763184
outer loop
vertex -14.152016639709473 213.83828735351562 1472.2294921875
vertex -14.040140151977539 214.3374786376953 1473.64208984375
vertex -14.067085266113281 213.8416290283203 1472.2266845703125
endloop
endfacet
facet normal -0.1774812489748001 0.929829478263855 -0.3223623037338257
outer loop
vertex -14.040140151977539 214.3374786376953 1473.64208984375
vertex -13.961241722106934 214.264892578125 1473.3892822265625
vertex -14.067085266113281 213.8416290283203 1472.2266845703125
endloop
endfacet
facet normal 0.2120378166437149 0.9210882186889648 -0.3265523910522461
outer loop
vertex -14.292906761169434 214.35885620117188 1473.6395263671875
vertex -14.209724426269531 214.34130859375 1473.64404296875
vertex -14.297603607177734 214.27243041992188 1473.3927001953125
endloop
endfacet
facet normal 0.21262092888355255 0.9208998084068298 -0.32670462131500244
outer loop
vertex -14.297603607177734 214.27243041992188 1473.3927001953125
vertex -14.209724426269531 214.34130859375 1473.64404296875
vertex -14.315155982971191 213.94943237304688 1472.4708251953125
endloop
endfacet
facet normal 0.21216370165348053 0.9210070967674255 -0.3266993761062622
outer loop
vertex -14.315155982971191 213.94943237304688 1472.4708251953125
vertex -14.209724426269531 214.34130859375 1473.64404296875
vertex -14.23667049407959 213.84544372558594 1472.2286376953125
endloop
endfacet
facet normal 0.08280692994594574 0.940025806427002 -0.33089956641197205
outer loop
vertex -14.23667049407959 213.84544372558594 1472.2286376953125
vertex -14.12507152557373 214.3341522216797 1473.6448974609375
vertex -14.152016639709473 213.83828735351562 1472.2294921875
endloop
endfacet
facet normal 0.08280785381793976 0.9400257468223572 -0.3308996558189392
outer loop
vertex -14.209724426269531 214.34130859375 1473.64404296875
vertex -14.12507152557373 214.3341522216797 1473.6448974609375
vertex -14.23667049407959 213.84544372558594 1472.2286376953125
endloop
endfacet
facet normal -0.1774107813835144 0.9298486709594727 -0.3223458230495453
outer loop
vertex -13.956549644470215 214.35122680664062 1473.6357421875
vertex -13.961241722106934 214.264892578125 1473.3892822265625
vertex -14.040140151977539 214.3374786376953 1473.64208984375
endloop
endfacet
facet normal -0.17741170525550842 0.9298306703567505 -0.3223970830440521
outer loop
vertex -14.067085266113281 213.8416290283203 1472.2266845703125
vertex -13.978802680969238 213.9417266845703 1472.466796875
vertex -13.983494758605957 213.85537719726562 1472.2203369140625
endloop
endfacet
facet normal -0.17751187086105347 0.9298251867294312 -0.3223579525947571
outer loop
vertex -14.067085266113281 213.8416290283203 1472.2266845703125
vertex -13.961241722106934 214.264892578125 1473.3892822265625
vertex -13.978802680969238 213.9417266845703 1472.466796875
endloop
endfacet
facet normal -0.9610474705696106 0.2660495936870575 -0.07486909627914429
outer loop
vertex -14.297603607177734 214.27243041992188 1473.3927001953125
vertex -14.292906761169434 214.35885620117188 1473.6395263671875
vertex -14.256333351135254 214.47891235351562 1473.5966796875
endloop
endfacet
facet normal -0.961029052734375 0.26610442996025085 -0.07490945607423782
outer loop
vertex -14.315155982971191 213.94943237304688 1472.4708251953125
vertex -14.14054012298584 214.45156860351562 1472.014404296875
vertex -14.283278465270996 213.98304748535156 1472.1812744140625
endloop
endfacet
facet normal -0.9610289931297302 0.266099750995636 -0.07492871582508087
outer loop
vertex -14.113595008850098 214.9474334716797 1473.4298095703125
vertex -14.14054012298584 214.45156860351562 1472.014404296875
vertex -14.297603607177734 214.27243041992188 1473.3927001953125
endloop
endfacet
facet normal -0.9610294699668884 0.26609957218170166 -0.07492335140705109
outer loop
vertex -14.113595008850098 214.9474334716797 1473.4298095703125
vertex -14.297603607177734 214.27243041992188 1473.3927001953125
vertex -14.256333351135254 214.47891235351562 1473.5966796875
endloop
endfacet
facet normal -0.9610180258750916 0.2661460041999817 -0.07490341365337372
outer loop
vertex -14.319852828979492 213.86300659179688 1472.2239990234375
vertex -14.315155982971191 213.94943237304688 1472.4708251953125
vertex -14.283278465270996 213.98304748535156 1472.1812744140625
endloop
endfacet
facet normal -0.9610325694084167 0.2660861909389496 -0.07493088394403458
outer loop
vertex -14.14054012298584 214.45156860351562 1472.014404296875
vertex -14.315155982971191 213.94943237304688 1472.4708251953125
vertex -14.297603607177734 214.27243041992188 1473.3927001953125
endloop
endfacet
facet normal 0.37293025851249695 0.8734909892082214 -0.3129478991031647
outer loop
vertex -14.319852828979492 213.86300659179688 1472.2239990234375
vertex -14.4436674118042 213.91075134277344 1472.209716796875
vertex -14.315155982971191 213.94943237304688 1472.4708251953125
endloop
endfacet
facet normal 0.9842593669891357 -0.17180070281028748 0.04144776985049248
outer loop
vertex -14.788656234741211 214.50079345703125 1472.009521484375
vertex -14.760517120361328 214.7108917236328 1472.212158203125
vertex -14.761710166931152 214.99664306640625 1473.4249267578125
endloop
endfacet
facet normal 0.37319329380989075 0.8733896017074585 -0.31291744112968445
outer loop
vertex -14.297603607177734 214.27243041992188 1473.3927001953125
vertex -14.416722297668457 214.40660095214844 1473.6251220703125
vertex -14.292906761169434 214.35885620117188 1473.6395263671875
endloop
endfacet
facet normal 0.9989594221115112 0.033636078238487244 -0.030801400542259216
outer loop
vertex -14.788656234741211 214.50079345703125 1472.009521484375
vertex -14.761710166931152 214.99664306640625 1473.4249267578125
vertex -14.78235149383545 214.3589324951172 1472.05908203125
endloop
endfacet
facet normal 0.5654915571212769 0.7749544382095337 -0.28224998712539673
outer loop
vertex -14.540736198425293 214.4876251220703 1473.59912109375
vertex -14.416722297668457 214.40660095214844 1473.6251220703125
vertex -14.4436674118042 213.91075134277344 1472.209716796875
endloop
endfacet
facet normal 0.5654885768890381 0.774956226348877 -0.28225091099739075
outer loop
vertex -14.567682266235352 213.9917755126953 1472.1837158203125
vertex -14.540736198425293 214.4876251220703 1473.59912109375
vertex -14.4436674118042 213.91075134277344 1472.209716796875
endloop
endfacet
facet normal 0.9842574000358582 -0.17181235551834106 0.04144719988107681
outer loop
vertex -14.761710166931152 214.99664306640625 1473.4249267578125
vertex -14.742955207824707 215.0340576171875 1473.1346435546875
vertex -14.738263130187988 215.12039184570312 1473.381103515625
endloop
endfacet
facet normal 0.9842575788497925 -0.17180903255939484 0.0414566695690155
outer loop
vertex -14.765209197998047 214.62454223632812 1471.9656982421875
vertex -14.760517120361328 214.7108917236328 1472.212158203125
vertex -14.788656234741211 214.50079345703125 1472.009521484375
endloop
endfacet
facet normal 0.9625927209854126 0.2494753897190094 -0.10572262108325958
outer loop
vertex -14.78235149383545 214.3589324951172 1472.05908203125
vertex -14.75540542602539 214.8547821044922 1473.4744873046875
vertex -14.741682052612305 214.22203063964844 1472.1063232421875
endloop
endfacet
facet normal 0.998959481716156 0.033636078238487244 -0.030801402404904366
outer loop
vertex -14.761710166931152 214.99664306640625 1473.4249267578125
vertex -14.75540542602539 214.8547821044922 1473.4744873046875
vertex -14.78235149383545 214.3589324951172 1472.05908203125
endloop
endfacet
facet normal 0.8746361136436462 0.45208150148391724 -0.1750257909297943
outer loop
vertex -14.741682052612305 214.22203063964844 1472.1063232421875
vertex -14.714735984802246 214.71788024902344 1473.521728515625
vertex -14.668825149536133 214.09742736816406 1472.1485595703125
endloop
endfacet
facet normal 0.9625927209854126 0.2494753897190094 -0.10572262108325958
outer loop
vertex -14.75540542602539 214.8547821044922 1473.4744873046875
vertex -14.714735984802246 214.71788024902344 1473.521728515625
vertex -14.741682052612305 214.22203063964844 1472.1063232421875
endloop
endfacet
facet normal 0.8746361136436462 0.45208150148391724 -0.1750257909297943
outer loop
vertex -14.714735984802246 214.71788024902344 1473.521728515625
vertex -14.641879081726074 214.59327697753906 1473.56396484375
vertex -14.668825149536133 214.09742736816406 1472.1485595703125
endloop
endfacet
facet normal 0.7400009036064148 0.6302607655525208 -0.23488304018974304
outer loop
vertex -14.668825149536133 214.09742736816406 1472.1485595703125
vertex -14.540736198425293 214.4876251220703 1473.59912109375
vertex -14.567682266235352 213.9917755126953 1472.1837158203125
endloop
endfacet
facet normal 0.7400009036064148 0.6302607655525208 -0.23488304018974304
outer loop
vertex -14.641879081726074 214.59327697753906 1473.56396484375
vertex -14.540736198425293 214.4876251220703 1473.59912109375
vertex -14.668825149536133 214.09742736816406 1472.1485595703125
endloop
endfacet
facet normal 0.37284979224205017 0.873458981513977 -0.31313347816467285
outer loop
vertex -14.315155982971191 213.94943237304688 1472.4708251953125
vertex -14.416722297668457 214.40660095214844 1473.6251220703125
vertex -14.297603607177734 214.27243041992188 1473.3927001953125
endloop
endfacet
facet normal 0.37319502234458923 0.8733393549919128 -0.31305578351020813
outer loop
vertex -14.4436674118042 213.91075134277344 1472.209716796875
vertex -14.416722297668457 214.40660095214844 1473.6251220703125
vertex -14.315155982971191 213.94943237304688 1472.4708251953125
endloop
endfacet
facet normal 0.9842588305473328 -0.1718035191297531 0.041448429226875305
outer loop
vertex -14.760517120361328 214.7108917236328 1472.212158203125
vertex -14.742955207824707 215.0340576171875 1473.1346435546875
vertex -14.761710166931152 214.99664306640625 1473.4249267578125
endloop
endfacet
facet normal 0.017183775082230568 0.3306114971637726 0.943610429763794
outer loop
vertex -14.23667049407959 213.84544372558594 1472.2286376953125
vertex -14.283278465270996 213.98304748535156 1472.1812744140625
vertex -14.319852828979492 213.86300659179688 1472.2239990234375
endloop
endfacet
facet normal 0.018457602709531784 0.33098912239074707 0.9434539675712585
outer loop
vertex -14.152016639709473 213.83828735351562 1472.2294921875
vertex -14.283278465270996 213.98304748535156 1472.1812744140625
vertex -14.23667049407959 213.84544372558594 1472.2286376953125
endloop
endfacet
facet normal 0.018008500337600708 0.3305903375148773 0.9436025619506836
outer loop
vertex -14.283278465270996 213.98304748535156 1472.1812744140625
vertex -14.015483856201172 213.97682189941406 1472.1783447265625
vertex -14.14054012298584 214.45156860351562 1472.014404296875
endloop
endfacet
facet normal 0.01724466308951378 0.33079394698143005 0.943545401096344
outer loop
vertex -13.983494758605957 213.85537719726562 1472.2203369140625
vertex -14.015483856201172 213.97682189941406 1472.1783447265625
vertex -14.067085266113281 213.8416290283203 1472.2266845703125
endloop
endfacet
facet normal 0.01819201558828354 0.3304670453071594 0.943642258644104
outer loop
vertex -14.067085266113281 213.8416290283203 1472.2266845703125
vertex -14.015483856201172 213.97682189941406 1472.1783447265625
vertex -14.152016639709473 213.83828735351562 1472.2294921875
endloop
endfacet
facet normal 0.01800922304391861 0.3306276500225067 0.943589448928833
outer loop
vertex -14.152016639709473 213.83828735351562 1472.2294921875
vertex -14.015483856201172 213.97682189941406 1472.1783447265625
vertex -14.283278465270996 213.98304748535156 1472.1812744140625
endloop
endfacet
facet normal 0.01738305576145649 0.3308383524417877 0.9435272812843323
outer loop
vertex -14.788656234741211 214.50079345703125 1472.009521484375
vertex -14.637970924377441 214.5893096923828 1471.9757080078125
vertex -14.765209197998047 214.62454223632812 1471.9656982421875
endloop
endfacet
facet normal 0.017634540796279907 0.33045920729637146 0.9436554312705994
outer loop
vertex -14.78235149383545 214.3589324951172 1472.05908203125
vertex -14.637970924377441 214.5893096923828 1471.9757080078125
vertex -14.788656234741211 214.50079345703125 1472.009521484375
endloop
endfacet
facet normal 0.018008403480052948 0.3305903971195221 0.9436025619506836
outer loop
vertex -14.14054012298584 214.45156860351562 1472.014404296875
vertex -14.668825149536133 214.09742736816406 1472.1485595703125
vertex -14.283278465270996 213.98304748535156 1472.1812744140625
endloop
endfacet
facet normal 0.018110929057002068 0.3304547369480133 0.943648099899292
outer loop
vertex -14.741682052612305 214.22203063964844 1472.1063232421875
vertex -14.668825149536133 214.09742736816406 1472.1485595703125
vertex -14.14054012298584 214.45156860351562 1472.014404296875
endloop
endfacet
facet normal 0.018267491832375526 0.33138275146484375 0.9433194994926453
outer loop
vertex -14.668825149536133 214.09742736816406 1472.1485595703125
vertex -14.567682266235352 213.9917755126953 1472.1837158203125
vertex -14.283278465270996 213.98304748535156 1472.1812744140625
endloop
endfacet
facet normal 0.01849036104977131 0.33024975657463074 0.9437125325202942
outer loop
vertex -14.283278465270996 213.98304748535156 1472.1812744140625
vertex -14.4436674118042 213.91075134277344 1472.209716796875
vertex -14.319852828979492 213.86300659179688 1472.2239990234375
endloop
endfacet
facet normal 0.01824919506907463 0.33072158694267273 0.9435518980026245
outer loop
vertex -14.567682266235352 213.9917755126953 1472.1837158203125
vertex -14.4436674118042 213.91075134277344 1472.209716796875
vertex -14.283278465270996 213.98304748535156 1472.1812744140625
endloop
endfacet
facet normal 0.018102146685123444 0.33047494292259216 0.9436411261558533
outer loop
vertex -14.14054012298584 214.45156860351562 1472.014404296875
vertex -14.637970924377441 214.5893096923828 1471.9757080078125
vertex -14.741682052612305 214.22203063964844 1472.1063232421875
endloop
endfacet
facet normal 0.017189232632517815 0.3307095468044281 0.9435759782791138
outer loop
vertex -14.741682052612305 214.22203063964844 1472.1063232421875
vertex -14.637970924377441 214.5893096923828 1471.9757080078125
vertex -14.78235149383545 214.3589324951172 1472.05908203125
endloop
endfacet
facet normal -0.01860635168850422 -0.331033319234848 -0.9434356093406677
outer loop
vertex -14.209724426269531 214.34130859375 1473.64404296875
vertex -14.292906761169434 214.35885620117188 1473.6395263671875
vertex -14.256333351135254 214.47891235351562 1473.5966796875
endloop
endfacet
facet normal -0.01845782808959484 -0.3309893310070038 -0.9434539675712585
outer loop
vertex -14.12507152557373 214.3341522216797 1473.6448974609375
vertex -14.209724426269531 214.34130859375 1473.64404296875
vertex -14.256333351135254 214.47891235351562 1473.5966796875
endloop
endfacet
facet normal -0.0180271677672863 -0.33058518171310425 -0.9436039924621582
outer loop
vertex -14.256333351135254 214.47891235351562 1473.5966796875
vertex -14.113595008850098 214.9474334716797 1473.4298095703125
vertex -13.988537788391113 214.47267150878906 1473.59375
endloop
endfacet
facet normal -0.01724468730390072 -0.3307938575744629 -0.9435454607009888
outer loop
vertex -13.956549644470215 214.35122680664062 1473.6357421875
vertex -14.040140151977539 214.3374786376953 1473.64208984375
vertex -13.988537788391113 214.47267150878906 1473.59375
endloop
endfacet
facet normal -0.018252411857247353 -0.3304460048675537 -0.9436482787132263
outer loop
vertex -14.040140151977539 214.3374786376953 1473.64208984375
vertex -14.12507152557373 214.3341522216797 1473.6448974609375
vertex -13.988537788391113 214.47267150878906 1473.59375
endloop
endfacet
facet normal -0.018028292804956436 -0.33064302802085876 -0.943583607673645
outer loop
vertex -14.12507152557373 214.3341522216797 1473.6448974609375
vertex -14.256333351135254 214.47891235351562 1473.5966796875
vertex -13.988537788391113 214.47267150878906 1473.59375
endloop
endfacet
facet normal -0.01738305576145649 -0.3308383524417877 -0.9435272812843323
outer loop
vertex -14.761710166931152 214.99664306640625 1473.4249267578125
vertex -14.738263130187988 215.12039184570312 1473.381103515625
vertex -14.611024856567383 215.0851593017578 1473.39111328125
endloop
endfacet
facet normal -0.017634540796279907 -0.33045920729637146 -0.9436554312705994
outer loop
vertex -14.75540542602539 214.8547821044922 1473.4744873046875
vertex -14.761710166931152 214.99664306640625 1473.4249267578125
vertex -14.611024856567383 215.0851593017578 1473.39111328125
endloop
endfacet
facet normal -0.01799643598496914 -0.33059370517730713 -0.943601667881012
outer loop
vertex -14.113595008850098 214.9474334716797 1473.4298095703125
vertex -14.256333351135254 214.47891235351562 1473.5966796875
vertex -14.641879081726074 214.59327697753906 1473.56396484375
endloop
endfacet
facet normal -0.018104122951626778 -0.33045122027397156 -0.9436495304107666
outer loop
vertex -14.714735984802246 214.71788024902344 1473.521728515625
vertex -14.113595008850098 214.9474334716797 1473.4298095703125
vertex -14.641879081726074 214.59327697753906 1473.56396484375
endloop
endfacet
facet normal -0.018249351531267166 -0.3313673436641693 -0.9433252811431885
outer loop
vertex -14.641879081726074 214.59327697753906 1473.56396484375
vertex -14.256333351135254 214.47891235351562 1473.5966796875
vertex -14.540736198425293 214.4876251220703 1473.59912109375
endloop
endfacet
facet normal -0.01796809211373329 -0.33121007680892944 -0.9433859586715698
outer loop
vertex -14.256333351135254 214.47891235351562 1473.5966796875
vertex -14.292906761169434 214.35885620117188 1473.6395263671875
vertex -14.416722297668457 214.40660095214844 1473.6251220703125
endloop
endfacet
facet normal -0.01823081448674202 -0.3306961953639984 -0.9435611367225647
outer loop
vertex -14.540736198425293 214.4876251220703 1473.59912109375
vertex -14.256333351135254 214.47891235351562 1473.5966796875
vertex -14.416722297668457 214.40660095214844 1473.6251220703125
endloop
endfacet
facet normal -0.018092764541506767 -0.33047735691070557 -0.9436405301094055
outer loop
vertex -14.113595008850098 214.9474334716797 1473.4298095703125
vertex -14.714735984802246 214.71788024902344 1473.521728515625
vertex -14.611024856567383 215.0851593017578 1473.39111328125
endloop
endfacet
facet normal -0.017189232632517815 -0.3307095468044281 -0.9435759782791138
outer loop
vertex -14.714735984802246 214.71788024902344 1473.521728515625
vertex -14.75540542602539 214.8547821044922 1473.4744873046875
vertex -14.611024856567383 215.0851593017578 1473.39111328125
endloop
endfacet
facet normal -0.9702206254005432 -0.22224700450897217 0.09632345288991928
outer loop
vertex -13.961241722106934 214.264892578125 1473.3892822265625
vertex -13.956549644470215 214.35122680664062 1473.6357421875
vertex -13.988537788391113 214.47267150878906 1473.59375
endloop
endfacet
facet normal -0.9702069759368896 -0.2223040759563446 0.09632974863052368
outer loop
vertex -13.978802680969238 213.9417266845703 1472.466796875
vertex -14.14054012298584 214.45156860351562 1472.014404296875
vertex -14.015483856201172 213.97682189941406 1472.1783447265625
endloop
endfacet
facet normal -0.9702096581459045 -0.22228588163852692 0.09634425491094589
outer loop
vertex -14.113595008850098 214.9474334716797 1473.4298095703125
vertex -14.14054012298584 214.45156860351562 1472.014404296875
vertex -13.961241722106934 214.264892578125 1473.3892822265625
endloop
endfacet
facet normal -0.9702074527740479 -0.2222866266965866 0.09636546671390533
outer loop
vertex -14.113595008850098 214.9474334716797 1473.4298095703125
vertex -13.961241722106934 214.264892578125 1473.3892822265625
vertex -13.988537788391113 214.47267150878906 1473.59375
endloop
endfacet
facet normal -0.9702187180519104 -0.22224916517734528 0.0963379293680191
outer loop
vertex -13.983494758605957 213.85537719726562 1472.2203369140625
vertex -13.978802680969238 213.9417266845703 1472.466796875
vertex -14.015483856201172 213.97682189941406 1472.1783447265625
endloop
endfacet
facet normal -0.9702082276344299 -0.22229255735874176 0.09634316712617874
outer loop
vertex -14.14054012298584 214.45156860351562 1472.014404296875
vertex -13.978802680969238 213.9417266845703 1472.466796875
vertex -13.961241722106934 214.264892578125 1473.3892822265625
endloop
endfacet
facet normal -0.9968284368515015 0.079100102186203 -0.008733395487070084
outer loop
vertex -13.475837707519531 214.8256378173828 1473.46044921875
vertex -13.464177131652832 214.9670867919922 1473.41064453125
vertex -13.50278377532959 214.32977294921875 1472.044921875
endloop
endfacet
facet normal -0.33983275294303894 0.8895862698554993 -0.30520492792129517
outer loop
vertex -13.978802680969238 213.9417266845703 1472.466796875
vertex -13.858102798461914 213.8974151611328 1472.2032470703125
vertex -13.983494758605957 213.85537719726562 1472.2203369140625
endloop
endfacet
facet normal -0.9898927211761475 -0.1269056648015976 0.06330331414937973
outer loop
vertex -13.464177131652832 214.9670867919922 1473.41064453125
vertex -13.487656593322754 215.0054931640625 1473.1204833984375
vertex -13.49112319946289 214.4712371826172 1471.9952392578125
endloop
endfacet
facet normal -0.33982956409454346 0.8896041512489319 -0.3051561713218689
outer loop
vertex -13.956549644470215 214.35122680664062 1473.6357421875
vertex -13.831156730651855 214.3932647705078 1473.61865234375
vertex -13.961241722106934 214.264892578125 1473.3892822265625
endloop
endfacet
facet normal -0.9968284368515015 0.07909925282001495 -0.008732996881008148
outer loop
vertex -13.50278377532959 214.32977294921875 1472.044921875
vertex -13.464177131652832 214.9670867919922 1473.41064453125
vertex -13.49112319946289 214.4712371826172 1471.9952392578125
endloop
endfacet
facet normal -0.3397924304008484 0.8896099328994751 -0.30518046021461487
outer loop
vertex -13.961241722106934 214.264892578125 1473.3892822265625
vertex -13.831156730651855 214.3932647705078 1473.61865234375
vertex -13.978802680969238 213.9417266845703 1472.466796875
endloop
endfacet
facet normal -0.3397772014141083 0.8896145224571228 -0.3051842451095581
outer loop
vertex -13.978802680969238 213.9417266845703 1472.466796875
vertex -13.831156730651855 214.3932647705078 1473.61865234375
vertex -13.858102798461914 213.8974151611328 1472.2032470703125
endloop
endfacet
facet normal -0.5357633829116821 0.8000116944313049 -0.27007174491882324
outer loop
vertex -13.858102798461914 213.8974151611328 1472.2032470703125
vertex -13.704192161560059 214.4685821533203 1473.58984375
vertex -13.731138229370117 213.97271728515625 1472.1744384765625
endloop
endfacet
facet normal -0.5358317494392395 0.7999737858772278 -0.2700485587120056
outer loop
vertex -13.831156730651855 214.3932647705078 1473.61865234375
vertex -13.704192161560059 214.4685821533203 1473.58984375
vertex -13.858102798461914 213.8974151611328 1472.2032470703125
endloop
endfacet
facet normal -0.7154564261436462 0.6635053157806396 -0.21882128715515137
outer loop
vertex -13.731138229370117 213.97271728515625 1472.1744384765625
vertex -13.599146842956543 214.56951904296875 1473.552490234375
vertex -13.626091957092285 214.07366943359375 1472.1370849609375
endloop
endfacet
facet normal -0.7154127359390259 0.6635453701019287 -0.21884281933307648
outer loop
vertex -13.704192161560059 214.4685821533203 1473.58984375
vertex -13.599146842956543 214.56951904296875 1473.552490234375
vertex -13.731138229370117 213.97271728515625 1472.1744384765625
endloop
endfacet
facet normal -0.8568428158760071 0.4914560616016388 -0.15585683286190033
outer loop
vertex -13.626091957092285 214.07366943359375 1472.1370849609375
vertex -13.521645545959473 214.69070434570312 1473.508544921875
vertex -13.548590660095215 214.19485473632812 1472.0931396484375
endloop
endfacet
facet normal -0.8568428158760071 0.4914560914039612 -0.15585683286190033
outer loop
vertex -13.599146842956543 214.56951904296875 1473.552490234375
vertex -13.521645545959473 214.69070434570312 1473.508544921875
vertex -13.626091957092285 214.07366943359375 1472.1370849609375
endloop
endfacet
facet normal -0.9523313641548157 0.293114572763443 -0.08455056697130203
outer loop
vertex -13.548590660095215 214.19485473632812 1472.0931396484375
vertex -13.475837707519531 214.8256378173828 1473.46044921875
vertex -13.50278377532959 214.32977294921875 1472.044921875
endloop
endfacet
facet normal -0.9523178339004517 0.29315340518951416 -0.08456920087337494
outer loop
vertex -13.521645545959473 214.69070434570312 1473.508544921875
vertex -13.475837707519531 214.8256378173828 1473.46044921875
vertex -13.548590660095215 214.19485473632812 1472.0931396484375
endloop
endfacet
facet normal -0.989892840385437 -0.12690480053424835 0.06330344825983047
outer loop
vertex -13.482959747314453 215.0919189453125 1473.3671875
vertex -13.487656593322754 215.0054931640625 1473.1204833984375
vertex -13.464177131652832 214.9670867919922 1473.41064453125
endloop
endfacet
facet normal -0.989892840385437 -0.12690480053424835 0.06330344825983047
outer loop
vertex -13.49112319946289 214.4712371826172 1471.9952392578125
vertex -13.505208969116211 214.6824951171875 1472.198486328125
vertex -13.509905815124512 214.5960693359375 1471.9517822265625
endloop
endfacet
facet normal -0.9898929595947266 -0.12690381705760956 0.06330244243144989
outer loop
vertex -13.49112319946289 214.4712371826172 1471.9952392578125
vertex -13.487656593322754 215.0054931640625 1473.1204833984375
vertex -13.505208969116211 214.6824951171875 1472.198486328125
endloop
endfacet
facet normal 0.01773938536643982 0.33103036880493164 0.943453311920166
outer loop
vertex -13.858102798461914 213.8974151611328 1472.2032470703125
vertex -13.731138229370117 213.97271728515625 1472.1744384765625
vertex -14.015483856201172 213.97682189941406 1472.1783447265625
endloop
endfacet
facet normal 0.01766008883714676 0.33088919520378113 0.9435043931007385
outer loop
vertex -13.983494758605957 213.85537719726562 1472.2203369140625
vertex -13.858102798461914 213.8974151611328 1472.2032470703125
vertex -14.015483856201172 213.97682189941406 1472.1783447265625
endloop
endfacet
facet normal 0.017776576802134514 0.33053719997406006 0.9436255693435669
outer loop
vertex -14.015483856201172 213.97682189941406 1472.1783447265625
vertex -13.626091957092285 214.07366943359375 1472.1370849609375
vertex -14.14054012298584 214.45156860351562 1472.014404296875
endloop
endfacet
facet normal 0.017736012116074562 0.33067944645881653 0.9435765147209167
outer loop
vertex -13.731138229370117 213.97271728515625 1472.1744384765625
vertex -13.626091957092285 214.07366943359375 1472.1370849609375
vertex -14.015483856201172 213.97682189941406 1472.1783447265625
endloop
endfacet
facet normal 0.017915459349751472 0.3307061791419983 0.94356369972229
outer loop
vertex -13.626091957092285 214.07366943359375 1472.1370849609375
vertex -13.548590660095215 214.19485473632812 1472.0931396484375
vertex -14.14054012298584 214.45156860351562 1472.014404296875
endloop
endfacet
facet normal 0.01731320098042488 0.33004075288772583 0.94380784034729
outer loop
vertex -13.49112319946289 214.4712371826172 1471.9952392578125
vertex -13.638534545898438 214.56658935546875 1471.964599609375
vertex -13.50278377532959 214.32977294921875 1472.044921875
endloop
endfacet
facet normal 0.018112439662218094 0.33114704489707947 0.9434053301811218
outer loop
vertex -13.509905815124512 214.5960693359375 1471.9517822265625
vertex -13.638534545898438 214.56658935546875 1471.964599609375
vertex -13.49112319946289 214.4712371826172 1471.9952392578125
endloop
endfacet
facet normal 0.017866825684905052 0.3306051790714264 0.9435999989509583
outer loop
vertex -13.548590660095215 214.19485473632812 1472.0931396484375
vertex -13.638534545898438 214.56658935546875 1471.964599609375
vertex -14.14054012298584 214.45156860351562 1472.014404296875
endloop
endfacet
facet normal 0.018823690712451935 0.3308059275150299 0.9435110688209534
outer loop
vertex -13.50278377532959 214.32977294921875 1472.044921875
vertex -13.638534545898438 214.56658935546875 1471.964599609375
vertex -13.548590660095215 214.19485473632812 1472.0931396484375
endloop
endfacet
facet normal -0.01772131957113743 -0.3309982120990753 -0.943464994430542
outer loop
vertex -13.831156730651855 214.3932647705078 1473.61865234375
vertex -13.988537788391113 214.47267150878906 1473.59375
vertex -13.704192161560059 214.4685821533203 1473.58984375
endloop
endfacet
facet normal -0.017660008743405342 -0.3308890759944916 -0.9435043931007385
outer loop
vertex -13.956549644470215 214.35122680664062 1473.6357421875
vertex -13.988537788391113 214.47267150878906 1473.59375
vertex -13.831156730651855 214.3932647705078 1473.61865234375
endloop
endfacet
facet normal -0.017779147252440453 -0.3305283486843109 -0.9436286091804504
outer loop
vertex -13.988537788391113 214.47267150878906 1473.59375
vertex -14.113595008850098 214.9474334716797 1473.4298095703125
vertex -13.599146842956543 214.56951904296875 1473.552490234375
endloop
endfacet
facet normal -0.01771884597837925 -0.33073973655700684 -0.9435555934906006
outer loop
vertex -13.704192161560059 214.4685821533203 1473.58984375
vertex -13.988537788391113 214.47267150878906 1473.59375
vertex -13.599146842956543 214.56951904296875 1473.552490234375
endloop
endfacet
facet normal -0.017922155559062958 -0.33070236444473267 -0.9435648918151855
outer loop
vertex -13.599146842956543 214.56951904296875 1473.552490234375
vertex -14.113595008850098 214.9474334716797 1473.4298095703125
vertex -13.521645545959473 214.69070434570312 1473.508544921875
endloop
endfacet
facet normal -0.017862843349575996 -0.33075401186943054 -0.9435479640960693
outer loop
vertex -13.464177131652832 214.9670867919922 1473.41064453125
vertex -13.475837707519531 214.8256378173828 1473.46044921875
vertex -13.611588478088379 215.0624542236328 1473.3800048828125
endloop
endfacet
facet normal -0.018150363117456436 -0.3311518430709839 -0.9434028267860413
outer loop
vertex -13.482959747314453 215.0919189453125 1473.3671875
vertex -13.464177131652832 214.9670867919922 1473.41064453125
vertex -13.611588478088379 215.0624542236328 1473.3800048828125
endloop
endfacet
facet normal -0.017869815230369568 -0.33059364557266235 -0.9436039328575134
outer loop
vertex -13.521645545959473 214.69070434570312 1473.508544921875
vertex -14.113595008850098 214.9474334716797 1473.4298095703125
vertex -13.611588478088379 215.0624542236328 1473.3800048828125
endloop
endfacet
facet normal -0.01731715351343155 -0.33047759532928467 -0.9436550140380859
outer loop
vertex -13.475837707519531 214.8256378173828 1473.46044921875
vertex -13.521645545959473 214.69070434570312 1473.508544921875
vertex -13.611588478088379 215.0624542236328 1473.3800048828125
endloop
endfacet
facet normal 0.275820791721344 0.9054470658302307 -0.322627454996109
outer loop
vertex -14.14054012298584 214.45156860351562 1472.014404296875
vertex -14.637970924377441 214.5893096923828 1471.9757080078125
vertex -14.760517120361328 214.7108917236328 1472.212158203125
endloop
endfacet
facet normal 0.27608296275138855 0.9054381251335144 -0.3224284052848816
outer loop
vertex -14.738263130187988 215.12039184570312 1473.381103515625
vertex -14.611024856567383 215.0851593017578 1473.39111328125
vertex -14.742955207824707 215.0340576171875 1473.1346435546875
endloop
endfacet
facet normal 0.27608203887939453 0.9054206013679504 -0.32247835397720337
outer loop
vertex -14.637970924377441 214.5893096923828 1471.9757080078125
vertex -14.765209197998047 214.62454223632812 1471.9656982421875
vertex -14.760517120361328 214.7108917236328 1472.212158203125
endloop
endfacet
facet normal 0.27588924765586853 0.9054850339889526 -0.32246261835098267
outer loop
vertex -14.14054012298584 214.45156860351562 1472.014404296875
vertex -14.760517120361328 214.7108917236328 1472.212158203125
vertex -14.742955207824707 215.0340576171875 1473.1346435546875
endloop
endfacet
facet normal 0.2758684456348419 0.9054870009422302 -0.32247474789619446
outer loop
vertex -14.113595008850098 214.9474334716797 1473.4298095703125
vertex -14.14054012298584 214.45156860351562 1472.014404296875
vertex -14.742955207824707 215.0340576171875 1473.1346435546875
endloop
endfacet
facet normal 0.27580174803733826 0.9055661559104919 -0.322309285402298
outer loop
vertex -14.611024856567383 215.0851593017578 1473.39111328125
vertex -14.113595008850098 214.9474334716797 1473.4298095703125
vertex -14.742955207824707 215.0340576171875 1473.1346435546875
endloop
endfacet
facet normal 0.24158406257629395 -0.9172036647796631 0.3168193995952606
outer loop
vertex -14.14054012298584 214.45156860351562 1472.014404296875
vertex -13.638534545898438 214.56658935546875 1471.964599609375
vertex -13.505208969116211 214.6824951171875 1472.198486328125
endloop
endfacet
facet normal 0.24166494607925415 -0.9172167181968689 0.3167199492454529
outer loop
vertex -13.482959747314453 215.0919189453125 1473.3671875
vertex -13.611588478088379 215.0624542236328 1473.3800048828125
vertex -13.487656593322754 215.0054931640625 1473.1204833984375
endloop
endfacet
facet normal 0.24176736176013947 -0.9171932935714722 0.3167097568511963
outer loop
vertex -13.638534545898438 214.56658935546875 1471.964599609375
vertex -13.509905815124512 214.5960693359375 1471.9517822265625
vertex -13.505208969116211 214.6824951171875 1472.198486328125
endloop
endfacet
facet normal 0.24161911010742188 -0.9172263741493225 0.3167269825935364
outer loop
vertex -14.14054012298584 214.45156860351562 1472.014404296875
vertex -13.505208969116211 214.6824951171875 1472.198486328125
vertex -13.487656593322754 215.0054931640625 1473.1204833984375
endloop
endfacet
facet normal 0.24160341918468475 -0.9172271490097046 0.3167366683483124
outer loop
vertex -14.113595008850098 214.9474334716797 1473.4298095703125
vertex -14.14054012298584 214.45156860351562 1472.014404296875
vertex -13.487656593322754 215.0054931640625 1473.1204833984375
endloop
endfacet
facet normal 0.24158114194869995 -0.9172501564025879 0.3166872560977936
outer loop
vertex -13.611588478088379 215.0624542236328 1473.3800048828125
vertex -14.113595008850098 214.9474334716797 1473.4298095703125
vertex -13.487656593322754 215.0054931640625 1473.1204833984375
endloop
endfacet
facet normal -0.7194792628288269 -0.6510692834854126 0.24178138375282288
outer loop
vertex -14.472862243652344 215.30093383789062 1473.3128662109375
vertex -14.56491756439209 215.39151000976562 1473.2828369140625
vertex -14.56961441040039 215.30508422851562 1473.0361328125
endloop
endfacet
facet normal -0.7193996906280518 -0.6511146426200867 0.24189628660678864
outer loop
vertex -14.499808311462402 214.80506896972656 1471.8974609375
vertex -14.14054012298584 214.45156860351562 1472.014404296875
vertex -14.587166786193848 214.98208618164062 1472.1141357421875
endloop
endfacet
facet normal -0.7194786071777344 -0.6510567665100098 0.24181725084781647
outer loop
vertex -14.591863632202148 214.89564514160156 1471.867431640625
vertex -14.499808311462402 214.80506896972656 1471.8974609375
vertex -14.587166786193848 214.98208618164062 1472.1141357421875
endloop
endfacet
facet normal -0.7194033265113831 -0.651163637638092 0.2417534738779068
outer loop
vertex -14.113595008850098 214.9474334716797 1473.4298095703125
vertex -14.472862243652344 215.30093383789062 1473.3128662109375
vertex -14.56961441040039 215.30508422851562 1473.0361328125
endloop
endfacet
facet normal -0.7194198369979858 -0.6511256098747253 0.24180717766284943
outer loop
vertex -14.14054012298584 214.45156860351562 1472.014404296875
vertex -14.113595008850098 214.9474334716797 1473.4298095703125
vertex -14.56961441040039 215.30508422851562 1473.0361328125
endloop
endfacet
facet normal -0.7194275856018066 -0.6511198282241821 0.24179914593696594
outer loop
vertex -14.587166786193848 214.98208618164062 1472.1141357421875
vertex -14.14054012298584 214.45156860351562 1472.014404296875
vertex -14.56961441040039 215.30508422851562 1473.0361328125
endloop
endfacet
facet normal 0.6943427324295044 -0.6832074522972107 0.22608812153339386
outer loop
vertex -14.14054012298584 214.45156860351562 1472.014404296875
vertex -13.768167495727539 214.78860473632812 1471.8892822265625
vertex -13.668225288391113 214.96115112304688 1472.103759765625
endloop
endfacet
facet normal 0.6943186521530151 -0.6832109689712524 0.22615081071853638
outer loop
vertex -13.645971298217773 215.37066650390625 1473.272705078125
vertex -13.74122142791748 215.28445434570312 1473.3046875
vertex -13.650663375854492 215.28431701660156 1473.0262451171875
endloop
endfacet
facet normal 0.6942620277404785 -0.683262288570404 0.2261698693037033
outer loop
vertex -13.768167495727539 214.78860473632812 1471.8892822265625
vertex -13.672917366027832 214.8748016357422 1471.8572998046875
vertex -13.668225288391113 214.96115112304688 1472.103759765625
endloop
endfacet
facet normal 0.6943337917327881 -0.6832051873207092 0.22612260282039642
outer loop
vertex -14.14054012298584 214.45156860351562 1472.014404296875
vertex -13.668225288391113 214.96115112304688 1472.103759765625
vertex -13.650663375854492 215.28431701660156 1473.0262451171875
endloop
endfacet
facet normal 0.6943215727806091 -0.6832132935523987 0.22613514959812164
outer loop
vertex -14.113595008850098 214.9474334716797 1473.4298095703125
vertex -14.14054012298584 214.45156860351562 1472.014404296875
vertex -13.650663375854492 215.28431701660156 1473.0262451171875
endloop
endfacet
facet normal 0.6943283677101135 -0.6832001209259033 0.22615395486354828
outer loop
vertex -13.74122142791748 215.28445434570312 1473.3046875
vertex -14.113595008850098 214.9474334716797 1473.4298095703125
vertex -13.650663375854492 215.28431701660156 1473.0262451171875
endloop
endfacet
facet normal 0.01813741959631443 0.33059072494506836 0.9435998797416687
outer loop
vertex -14.14054012298584 214.45156860351562 1472.014404296875
vertex -14.499808311462402 214.80506896972656 1471.8974609375
vertex -14.637970924377441 214.5893096923828 1471.9757080078125
endloop
endfacet
facet normal 0.018113190308213234 0.3311784863471985 0.9433942437171936
outer loop
vertex -14.591863632202148 214.89564514160156 1471.867431640625
vertex -14.649109840393066 214.83653259277344 1471.8892822265625
vertex -14.499808311462402 214.80506896972656 1471.8974609375
endloop
endfacet
facet normal 0.018070273101329803 0.33062925934791565 0.9435876607894897
outer loop
vertex -14.499808311462402 214.80506896972656 1471.8974609375
vertex -14.697540283203125 214.77093505859375 1471.9132080078125
vertex -14.637970924377441 214.5893096923828 1471.9757080078125
endloop
endfacet
facet normal 0.018031423911452293 0.33082330226898193 0.9435204863548279
outer loop
vertex -14.649109840393066 214.83653259277344 1471.8892822265625
vertex -14.697540283203125 214.77093505859375 1471.9132080078125
vertex -14.499808311462402 214.80506896972656 1471.8974609375
endloop
endfacet
facet normal 0.017160937190055847 0.3301098346710205 0.9437865018844604
outer loop
vertex -14.637970924377441 214.5893096923828 1471.9757080078125
vertex -14.73648738861084 214.6998291015625 1471.9388427734375
vertex -14.765209197998047 214.62454223632812 1471.9656982421875
endloop
endfacet
facet normal 0.01767212711274624 0.3305150866508484 0.9436352849006653
outer loop
vertex -14.697540283203125 214.77093505859375 1471.9132080078125
vertex -14.73648738861084 214.6998291015625 1471.9388427734375
vertex -14.637970924377441 214.5893096923828 1471.9757080078125
endloop
endfacet
facet normal 0.017879730090498924 0.330556184053421 0.9436169266700745
outer loop
vertex -13.638534545898438 214.56658935546875 1471.964599609375
vertex -13.768167495727539 214.78860473632812 1471.8892822265625
vertex -14.14054012298584 214.45156860351562 1472.014404296875
endloop
endfacet
facet normal 0.018243758007884026 0.33064886927604675 0.9435774683952332
outer loop
vertex -13.509905815124512 214.5960693359375 1471.9517822265625
vertex -13.53584098815918 214.67274475097656 1471.9254150390625
vertex -13.638534545898438 214.56658935546875 1471.964599609375
endloop
endfacet
facet normal 0.018085507676005363 0.33066239953041077 0.9435758590698242
outer loop
vertex -13.638534545898438 214.56658935546875 1471.964599609375
vertex -13.572064399719238 214.7454833984375 1471.900634765625
vertex -13.768167495727539 214.78860473632812 1471.8892822265625
endloop
endfacet
facet normal 0.018319156020879745 0.3305838108062744 0.9435988068580627
outer loop
vertex -13.53584098815918 214.67274475097656 1471.9254150390625
vertex -13.572064399719238 214.7454833984375 1471.900634765625
vertex -13.638534545898438 214.56658935546875 1471.964599609375
endloop
endfacet
facet normal 0.017818616703152657 0.33044373989105225 0.9436574578285217
outer loop
vertex -13.768167495727539 214.78860473632812 1471.8892822265625
vertex -13.618048667907715 214.8132781982422 1471.8778076171875
vertex -13.672917366027832 214.8748016357422 1471.8572998046875
endloop
endfacet
facet normal 0.0179134551435709 0.3299467861652374 0.9438295960426331
outer loop
vertex -13.572064399719238 214.7454833984375 1471.900634765625
vertex -13.618048667907715 214.8132781982422 1471.8778076171875
vertex -13.768167495727539 214.78860473632812 1471.8892822265625
endloop
endfacet
facet normal 0.018172822892665863 0.3306548595428467 0.9435766935348511
outer loop
vertex -13.774862289428711 214.95652770996094 1471.83056640625
vertex -13.908132553100586 215.0230712890625 1471.809814453125
vertex -13.768167495727539 214.78860473632812 1471.8892822265625
endloop
endfacet
facet normal 0.017620697617530823 0.3306385278701782 0.9435930252075195
outer loop
vertex -13.672917366027832 214.8748016357422 1471.8572998046875
vertex -13.774862289428711 214.95652770996094 1471.83056640625
vertex -13.768167495727539 214.78860473632812 1471.8892822265625
endloop
endfacet
facet normal 0.018013618886470795 0.3304244875907898 0.9436606168746948
outer loop
vertex -13.768167495727539 214.78860473632812 1471.8892822265625
vertex -14.05384635925293 215.05902099609375 1471.800048828125
vertex -14.14054012298584 214.45156860351562 1472.014404296875
endloop
endfacet
facet normal 0.018367594107985497 0.33075764775276184 0.9435369968414307
outer loop
vertex -13.908132553100586 215.0230712890625 1471.809814453125
vertex -14.05384635925293 215.05902099609375 1471.800048828125
vertex -13.768167495727539 214.78860473632812 1471.8892822265625
endloop
endfacet
facet normal 0.018083835020661354 0.3305422365665436 0.9436179399490356
outer loop
vertex -14.14054012298584 214.45156860351562 1472.014404296875
vertex -14.204202651977539 215.0624542236328 1471.8016357421875
vertex -14.499808311462402 214.80506896972656 1471.8974609375
endloop
endfacet
facet normal 0.017506016418337822 0.33049190044403076 0.9436464309692383
outer loop
vertex -14.05384635925293 215.05902099609375 1471.800048828125
vertex -14.204202651977539 215.0624542236328 1471.8016357421875
vertex -14.14054012298584 214.45156860351562 1472.014404296875
endloop
endfacet
facet normal 0.017985064536333084 0.3306431770324707 0.9435844421386719
outer loop
vertex -14.204202651977539 215.0624542236328 1471.8016357421875
vertex -14.351151466369629 215.03317260742188 1471.814697265625
vertex -14.499808311462402 214.80506896972656 1471.8974609375
endloop
endfacet
facet normal 0.017331354320049286 0.330471009016037 0.9436569809913635
outer loop
vertex -14.499808311462402 214.80506896972656 1471.8974609375
vertex -14.48682689666748 214.97274780273438 1471.8385009765625
vertex -14.591863632202148 214.89564514160156 1471.867431640625
endloop
endfacet
facet normal 0.01841895468533039 0.3303896188735962 0.9436649084091187
outer loop
vertex -14.351151466369629 215.03317260742188 1471.814697265625
vertex -14.48682689666748 214.97274780273438 1471.8385009765625
vertex -14.499808311462402 214.80506896972656 1471.8974609375
endloop
endfacet
facet normal -0.018123429268598557 -0.3305780291557312 -0.9436046481132507
outer loop
vertex -14.113595008850098 214.9474334716797 1473.4298095703125
vertex -14.611024856567383 215.0851593017578 1473.39111328125
vertex -14.472862243652344 215.30093383789062 1473.3128662109375
endloop
endfacet
facet normal -0.01807039976119995 -0.33113980293273926 -0.9434086680412292
outer loop
vertex -14.56491756439209 215.39151000976562 1473.2828369140625
vertex -14.472862243652344 215.30093383789062 1473.3128662109375
vertex -14.622163772583008 215.33238220214844 1473.3046875
endloop
endfacet
facet normal -0.018074965104460716 -0.33060580492019653 -0.9435957074165344
outer loop
vertex -14.472862243652344 215.30093383789062 1473.3128662109375
vertex -14.611024856567383 215.0851593017578 1473.39111328125
vertex -14.670594215393066 215.2667999267578 1473.32861328125
endloop
endfacet
facet normal -0.018015675246715546 -0.33090198040008545 -0.9434931874275208
outer loop
vertex -14.622163772583008 215.33238220214844 1473.3046875
vertex -14.472862243652344 215.30093383789062 1473.3128662109375
vertex -14.670594215393066 215.2667999267578 1473.32861328125
endloop
endfacet
facet normal -0.017160937190055847 -0.3301098346710205 -0.9437865018844604
outer loop
vertex -14.611024856567383 215.0851593017578 1473.39111328125
vertex -14.738263130187988 215.12039184570312 1473.381103515625
vertex -14.709541320800781 215.1956787109375 1473.354248046875
endloop
endfacet
facet normal -0.017623120918869972 -0.3304762542247772 -0.9436498284339905
outer loop
vertex -14.670594215393066 215.2667999267578 1473.32861328125
vertex -14.611024856567383 215.0851593017578 1473.39111328125
vertex -14.709541320800781 215.1956787109375 1473.354248046875
endloop
endfacet
facet normal -0.01787499152123928 -0.33057406544685364 -0.9436107277870178
outer loop
vertex -13.611588478088379 215.0624542236328 1473.3800048828125
vertex -14.113595008850098 214.9474334716797 1473.4298095703125
vertex -13.74122142791748 215.28445434570312 1473.3046875
endloop
endfacet
facet normal -0.018294427543878555 -0.3306051790714264 -0.943591833114624
outer loop
vertex -13.482959747314453 215.0919189453125 1473.3671875
vertex -13.611588478088379 215.0624542236328 1473.3800048828125
vertex -13.508894920349121 215.16860961914062 1473.3408203125
endloop
endfacet
facet normal -0.018061675131320953 -0.33067041635513306 -0.9435734748840332
outer loop
vertex -13.611588478088379 215.0624542236328 1473.3800048828125
vertex -13.74122142791748 215.28445434570312 1473.3046875
vertex -13.54511833190918 215.24134826660156 1473.3160400390625
endloop
endfacet
facet normal -0.018319156020879745 -0.3305838108062744 -0.9435988068580627
outer loop
vertex -13.508894920349121 215.16860961914062 1473.3408203125
vertex -13.611588478088379 215.0624542236328 1473.3800048828125
vertex -13.54511833190918 215.24134826660156 1473.3160400390625
endloop
endfacet
facet normal -0.017830779775977135 -0.33037999272346497 -0.9436795711517334
outer loop
vertex -13.74122142791748 215.28445434570312 1473.3046875
vertex -13.645971298217773 215.37066650390625 1473.272705078125
vertex -13.591102600097656 215.3091278076172 1473.293212890625
endloop
endfacet
facet normal -0.017902078106999397 -0.3300063908100128 -0.9438088536262512
outer loop
vertex -13.54511833190918 215.24134826660156 1473.3160400390625
vertex -13.74122142791748 215.28445434570312 1473.3046875
vertex -13.591102600097656 215.3091278076172 1473.293212890625
endloop
endfacet
facet normal -0.018211426213383675 -0.330655962228775 -0.9435755610466003
outer loop
vertex -13.747916221618652 215.45237731933594 1473.2459716796875
vertex -13.74122142791748 215.28445434570312 1473.3046875
vertex -13.881186485290527 215.51893615722656 1473.2252197265625
endloop
endfacet
facet normal -0.01756960339844227 -0.33063700795173645 -0.9435944557189941
outer loop
vertex -13.645971298217773 215.37066650390625 1473.272705078125
vertex -13.74122142791748 215.28445434570312 1473.3046875
vertex -13.747916221618652 215.45237731933594 1473.2459716796875
endloop
endfacet
facet normal -0.01802912913262844 -0.33042237162590027 -0.9436609148979187
outer loop
vertex -13.74122142791748 215.28445434570312 1473.3046875
vertex -14.113595008850098 214.9474334716797 1473.4298095703125
vertex -14.026901245117188 215.5548858642578 1473.2154541015625
endloop
endfacet
facet normal -0.01836138218641281 -0.33073511719703674 -0.9435450434684753
outer loop
vertex -13.881186485290527 215.51893615722656 1473.2252197265625
vertex -13.74122142791748 215.28445434570312 1473.3046875
vertex -14.026901245117188 215.5548858642578 1473.2154541015625
endloop
endfacet
facet normal -0.01809283159673214 -0.33055034279823303 -0.9436148405075073
outer loop
vertex -14.113595008850098 214.9474334716797 1473.4298095703125
vertex -14.472862243652344 215.30093383789062 1473.3128662109375
vertex -14.17725658416748 215.5583038330078 1473.217041015625
endloop
endfacet
facet normal -0.017472678795456886 -0.3304963707923889 -0.9436454772949219
outer loop
vertex -14.026901245117188 215.5548858642578 1473.2154541015625
vertex -14.113595008850098 214.9474334716797 1473.4298095703125
vertex -14.17725658416748 215.5583038330078 1473.217041015625
endloop
endfacet
facet normal -0.017979850992560387 -0.3306658864021301 -0.9435766935348511
outer loop
vertex -14.17725658416748 215.5583038330078 1473.217041015625
vertex -14.472862243652344 215.30093383789062 1473.3128662109375
vertex -14.32420539855957 215.52902221679688 1473.2301025390625
endloop
endfacet
facet normal -0.017358772456645966 -0.33049583435058594 -0.9436478018760681
outer loop
vertex -14.472862243652344 215.30093383789062 1473.3128662109375
vertex -14.56491756439209 215.39151000976562 1473.2828369140625
vertex -14.459881782531738 215.46859741210938 1473.25390625
endloop
endfacet
facet normal -0.01840471848845482 -0.3304175138473511 -0.9436553716659546
outer loop
vertex -14.32420539855957 215.52902221679688 1473.2301025390625
vertex -14.472862243652344 215.30093383789062 1473.3128662109375
vertex -14.459881782531738 215.46859741210938 1473.25390625
endloop
endfacet
facet normal 0.9409236311912537 -0.3247693181037903 0.0958525687456131
outer loop
vertex -14.742955207824707 215.0340576171875 1473.1346435546875
vertex -14.709541320800781 215.1956787109375 1473.354248046875
vertex -14.738263130187988 215.12039184570312 1473.381103515625
endloop
endfacet
facet normal 0.740063488483429 -0.6389877796173096 0.2097632884979248
outer loop
vertex -14.649109840393066 214.83653259277344 1471.8892822265625
vertex -14.56961441040039 215.30508422851562 1473.0361328125
vertex -14.622163772583008 215.33238220214844 1473.3046875
endloop
endfacet
facet normal 0.9409238696098328 -0.3247630000114441 0.09587046504020691
outer loop
vertex -14.765209197998047 214.62454223632812 1471.9656982421875
vertex -14.73648738861084 214.6998291015625 1471.9388427734375
vertex -14.760517120361328 214.7108917236328 1472.212158203125
endloop
endfacet
facet normal 0.8887876272201538 -0.4375605881214142 0.13637197017669678
outer loop
vertex -14.670594215393066 215.2667999267578 1473.32861328125
vertex -14.709541320800781 215.1956787109375 1473.354248046875
vertex -14.697540283203125 214.77093505859375 1471.9132080078125
endloop
endfacet
facet normal 0.8887515664100647 -0.43762773275375366 0.13639144599437714
outer loop
vertex -14.697540283203125 214.77093505859375 1471.9132080078125
vertex -14.709541320800781 215.1956787109375 1473.354248046875
vertex -14.73648738861084 214.6998291015625 1471.9388427734375
endloop
endfacet
facet normal 0.7400601506233215 -0.6389918923377991 0.20976312458515167
outer loop
vertex -14.622163772583008 215.33238220214844 1473.3046875
vertex -14.56961441040039 215.30508422851562 1473.0361328125
vertex -14.56491756439209 215.39151000976562 1473.2828369140625
endloop
endfacet
facet normal 0.7399837374687195 -0.6390590071678162 0.20982763171195984
outer loop
vertex -14.591863632202148 214.89564514160156 1471.867431640625
vertex -14.587166786193848 214.98208618164062 1472.1141357421875
vertex -14.649109840393066 214.83653259277344 1471.8892822265625
endloop
endfacet
facet normal 0.8214948773384094 -0.5428465604782104 0.17453832924365997
outer loop
vertex -14.649109840393066 214.83653259277344 1471.8892822265625
vertex -14.670594215393066 215.2667999267578 1473.32861328125
vertex -14.697540283203125 214.77093505859375 1471.9132080078125
endloop
endfacet
facet normal 0.8214392066001892 -0.5429235696792603 0.1745605319738388
outer loop
vertex -14.622163772583008 215.33238220214844 1473.3046875
vertex -14.670594215393066 215.2667999267578 1473.32861328125
vertex -14.649109840393066 214.83653259277344 1471.8892822265625
endloop
endfacet
facet normal 0.9409159421920776 -0.32478734850883484 0.09586700052022934
outer loop
vertex -14.760517120361328 214.7108917236328 1472.212158203125
vertex -14.709541320800781 215.1956787109375 1473.354248046875
vertex -14.742955207824707 215.0340576171875 1473.1346435546875
endloop
endfacet
facet normal 0.9409124851226807 -0.3247959017753601 0.09587080776691437
outer loop
vertex -14.73648738861084 214.6998291015625 1471.9388427734375
vertex -14.709541320800781 215.1956787109375 1473.354248046875
vertex -14.760517120361328 214.7108917236328 1472.212158203125
endloop
endfacet
facet normal 0.7400551438331604 -0.6389961242675781 0.20976723730564117
outer loop
vertex -14.587166786193848 214.98208618164062 1472.1141357421875
vertex -14.56961441040039 215.30508422851562 1473.0361328125
vertex -14.649109840393066 214.83653259277344 1471.8892822265625
endloop
endfacet
facet normal -0.8409438133239746 -0.5054949522018433 0.19310182332992554
outer loop
vertex -13.54511833190918 215.24134826660156 1473.3160400390625
vertex -13.591102600097656 215.3091278076172 1473.293212890625
vertex -13.572064399719238 214.7454833984375 1471.900634765625
endloop
endfacet
facet normal -0.952292799949646 -0.281913161277771 0.11689038574695587
outer loop
vertex -13.505208969116211 214.6824951171875 1472.198486328125
vertex -13.53584098815918 214.67274475097656 1471.9254150390625
vertex -13.509905815124512 214.5960693359375 1471.9517822265625
endloop
endfacet
facet normal -0.8409929871559143 -0.5054243803024292 0.1930726021528244
outer loop
vertex -13.572064399719238 214.7454833984375 1471.900634765625
vertex -13.591102600097656 215.3091278076172 1473.293212890625
vertex -13.618048667907715 214.8132781982422 1471.8778076171875
endloop
endfacet
facet normal -0.7632365226745605 -0.6051122546195984 0.2265152484178543
outer loop
vertex -13.591102600097656 215.3091278076172 1473.293212890625
vertex -13.650663375854492 215.28431701660156 1473.0262451171875
vertex -13.618048667907715 214.8132781982422 1471.8778076171875
endloop
endfacet
facet normal -0.9523082375526428 -0.281867653131485 0.11687473952770233
outer loop
vertex -13.482959747314453 215.0919189453125 1473.3671875
vertex -13.508894920349121 215.16860961914062 1473.3408203125
vertex -13.487656593322754 215.0054931640625 1473.1204833984375
endloop
endfacet
facet normal -0.9523084163665771 -0.2818671762943268 0.11687437444925308
outer loop
vertex -13.487656593322754 215.0054931640625 1473.1204833984375
vertex -13.508894920349121 215.16860961914062 1473.3408203125
vertex -13.505208969116211 214.6824951171875 1472.198486328125
endloop
endfacet
facet normal -0.9522953033447266 -0.2819046676158905 0.11689036339521408
outer loop
vertex -13.505208969116211 214.6824951171875 1472.198486328125
vertex -13.508894920349121 215.16860961914062 1473.3408203125
vertex -13.53584098815918 214.67274475097656 1471.9254150390625
endloop
endfacet
facet normal -0.9043594598770142 -0.3971055746078491 0.15633659064769745
outer loop
vertex -13.53584098815918 214.67274475097656 1471.9254150390625
vertex -13.54511833190918 215.24134826660156 1473.3160400390625
vertex -13.572064399719238 214.7454833984375 1471.900634765625
endloop
endfacet
facet normal -0.9043594598770142 -0.3971055746078491 0.15633659064769745
outer loop
vertex -13.508894920349121 215.16860961914062 1473.3408203125
vertex -13.54511833190918 215.24134826660156 1473.3160400390625
vertex -13.53584098815918 214.67274475097656 1471.9254150390625
endloop
endfacet
facet normal -0.7632769346237183 -0.6050598621368408 0.2265193909406662
outer loop
vertex -13.645971298217773 215.37066650390625 1473.272705078125
vertex -13.650663375854492 215.28431701660156 1473.0262451171875
vertex -13.591102600097656 215.3091278076172 1473.293212890625
endloop
endfacet
facet normal -0.7632066607475281 -0.6051384806632996 0.22654561698436737
outer loop
vertex -13.618048667907715 214.8132781982422 1471.8778076171875
vertex -13.668225288391113 214.96115112304688 1472.103759765625
vertex -13.672917366027832 214.8748016357422 1471.8572998046875
endloop
endfacet
facet normal -0.7632507681846619 -0.6050967574119568 0.2265084981918335
outer loop
vertex -13.618048667907715 214.8132781982422 1471.8778076171875
vertex -13.650663375854492 215.28431701660156 1473.0262451171875
vertex -13.668225288391113 214.96115112304688 1472.103759765625
endloop
endfacet
facet normal 0.616752564907074 -0.7464667558670044 0.24980764091014862
outer loop
vertex -14.591863632202148 214.89564514160156 1471.867431640625
vertex -14.48682689666748 214.97274780273438 1471.8385009765625
vertex -14.587166786193848 214.98208618164062 1472.1141357421875
endloop
endfacet
facet normal -0.644474983215332 -0.7177140116691589 0.26370134949684143
outer loop
vertex -13.774862289428711 214.95652770996094 1471.83056640625
vertex -13.650663375854492 215.28431701660156 1473.0262451171875
vertex -13.747916221618652 215.45237731933594 1473.2459716796875
endloop
endfacet
facet normal 0.6166880130767822 -0.7465278506278992 0.24978409707546234
outer loop
vertex -14.56961441040039 215.30508422851562 1473.0361328125
vertex -14.459881782531738 215.46859741210938 1473.25390625
vertex -14.56491756439209 215.39151000976562 1473.2828369140625
endloop
endfacet
facet normal 0.4313703775405884 -0.8539705276489258 0.29095354676246643
outer loop
vertex -14.32420539855957 215.52902221679688 1473.2301025390625
vertex -14.459881782531738 215.46859741210938 1473.25390625
vertex -14.351151466369629 215.03317260742188 1471.814697265625
endloop
endfacet
facet normal 0.43137288093566895 -0.8539693355560303 0.2909533977508545
outer loop
vertex -14.351151466369629 215.03317260742188 1471.814697265625
vertex -14.459881782531738 215.46859741210938 1473.25390625
vertex -14.48682689666748 214.97274780273438 1471.8385009765625
endloop
endfacet
facet normal -0.6444383859634399 -0.7177350521087646 0.26373377442359924
outer loop
vertex -13.747916221618652 215.45237731933594 1473.2459716796875
vertex -13.650663375854492 215.28431701660156 1473.0262451171875
vertex -13.645971298217773 215.37066650390625 1473.272705078125
endloop
endfacet
facet normal -0.6445012092590332 -0.717684805393219 0.2637173533439636
outer loop
vertex -13.672917366027832 214.8748016357422 1471.8572998046875
vertex -13.668225288391113 214.96115112304688 1472.103759765625
vertex -13.774862289428711 214.95652770996094 1471.83056640625
endloop
endfacet
facet normal -0.46311140060424805 -0.8336666226387024 0.30087849497795105
outer loop
vertex -13.774862289428711 214.95652770996094 1471.83056640625
vertex -13.881186485290527 215.51893615722656 1473.2252197265625
vertex -13.908132553100586 215.0230712890625 1471.809814453125
endloop
endfacet
facet normal -0.46318650245666504 -0.8336319923400879 0.30085882544517517
outer loop
vertex -13.747916221618652 215.45237731933594 1473.2459716796875
vertex -13.881186485290527 215.51893615722656 1473.2252197265625
vertex -13.774862289428711 214.95652770996094 1471.83056640625
endloop
endfacet
facet normal -0.24701222777366638 -0.9130381941795349 0.324570894241333
outer loop
vertex -13.908132553100586 215.0230712890625 1471.809814453125
vertex -14.026901245117188 215.5548858642578 1473.2154541015625
vertex -14.05384635925293 215.05902099609375 1471.800048828125
endloop
endfacet
facet normal -0.2470107078552246 -0.9130384922027588 0.3245711028575897
outer loop
vertex -13.881186485290527 215.51893615722656 1473.2252197265625
vertex -14.026901245117188 215.5548858642578 1473.2154541015625
vertex -13.908132553100586 215.0230712890625 1471.809814453125
endloop
endfacet
facet normal -0.018051709979772568 -0.9435021281242371 0.33087456226348877
outer loop
vertex -14.05384635925293 215.05902099609375 1471.800048828125
vertex -14.17725658416748 215.5583038330078 1473.217041015625
vertex -14.204202651977539 215.0624542236328 1471.8016357421875
endloop
endfacet
facet normal -0.0179559625685215 -0.9435010552406311 0.3308825194835663
outer loop
vertex -14.026901245117188 215.5548858642578 1473.2154541015625
vertex -14.17725658416748 215.5583038330078 1473.217041015625
vertex -14.05384635925293 215.05902099609375 1471.800048828125
endloop
endfacet
facet normal 0.21241293847560883 -0.9234812259674072 0.3194732367992401
outer loop
vertex -14.204202651977539 215.0624542236328 1471.8016357421875
vertex -14.32420539855957 215.52902221679688 1473.2301025390625
vertex -14.351151466369629 215.03317260742188 1471.814697265625
endloop
endfacet
facet normal 0.21241293847560883 -0.9234812259674072 0.3194732367992401
outer loop
vertex -14.17725658416748 215.5583038330078 1473.217041015625
vertex -14.32420539855957 215.52902221679688 1473.2301025390625
vertex -14.204202651977539 215.0624542236328 1471.8016357421875
endloop
endfacet
facet normal 0.6166842579841614 -0.7465298175811768 0.2497875839471817
outer loop
vertex -14.587166786193848 214.98208618164062 1472.1141357421875
vertex -14.459881782531738 215.46859741210938 1473.25390625
vertex -14.56961441040039 215.30508422851562 1473.0361328125
endloop
endfacet
facet normal 0.6166877150535583 -0.7465273141860962 0.2497861087322235
outer loop
vertex -14.48682689666748 214.97274780273438 1471.8385009765625
vertex -14.459881782531738 215.46859741210938 1473.25390625
vertex -14.587166786193848 214.98208618164062 1472.1141357421875
endloop
endfacet
facet normal -0.6444625854492188 -0.717724621295929 0.26370295882225037
outer loop
vertex -13.668225288391113 214.96115112304688 1472.103759765625
vertex -13.650663375854492 215.28431701660156 1473.0262451171875
vertex -13.774862289428711 214.95652770996094 1471.83056640625
endloop
endfacet
facet normal -0.017183775082230568 -0.3306114971637726 -0.943610429763794
outer loop
vertex -14.23667049407959 213.84544372558594 1472.2286376953125
vertex -14.319852828979492 213.86300659179688 1472.2239990234375
vertex -14.283278465270996 213.98304748535156 1472.1812744140625
endloop
endfacet
facet normal -0.018457602709531784 -0.33098912239074707 -0.9434539675712585
outer loop
vertex -14.152016639709473 213.83828735351562 1472.2294921875
vertex -14.23667049407959 213.84544372558594 1472.2286376953125
vertex -14.283278465270996 213.98304748535156 1472.1812744140625
endloop
endfacet
facet normal -0.018008500337600708 -0.3305903375148773 -0.9436025619506836
outer loop
vertex -14.283278465270996 213.98304748535156 1472.1812744140625
vertex -14.14054012298584 214.45156860351562 1472.014404296875
vertex -14.015483856201172 213.97682189941406 1472.1783447265625
endloop
endfacet
facet normal -0.01724466308951378 -0.33079394698143005 -0.943545401096344
outer loop
vertex -13.983494758605957 213.85537719726562 1472.2203369140625
vertex -14.067085266113281 213.8416290283203 1472.2266845703125
vertex -14.015483856201172 213.97682189941406 1472.1783447265625
endloop
endfacet
facet normal -0.01819201558828354 -0.3304670453071594 -0.943642258644104
outer loop
vertex -14.067085266113281 213.8416290283203 1472.2266845703125
vertex -14.152016639709473 213.83828735351562 1472.2294921875
vertex -14.015483856201172 213.97682189941406 1472.1783447265625
endloop
endfacet
facet normal -0.01800922304391861 -0.3306276500225067 -0.943589448928833
outer loop
vertex -14.152016639709473 213.83828735351562 1472.2294921875
vertex -14.283278465270996 213.98304748535156 1472.1812744140625
vertex -14.015483856201172 213.97682189941406 1472.1783447265625
endloop
endfacet
facet normal -0.01738305576145649 -0.3308383524417877 -0.9435272812843323
outer loop
vertex -14.788656234741211 214.50079345703125 1472.009521484375
vertex -14.765209197998047 214.62454223632812 1471.9656982421875
vertex -14.637970924377441 214.5893096923828 1471.9757080078125
endloop
endfacet
facet normal -0.017634540796279907 -0.33045920729637146 -0.9436554312705994
outer loop
vertex -14.78235149383545 214.3589324951172 1472.05908203125
vertex -14.788656234741211 214.50079345703125 1472.009521484375
vertex -14.637970924377441 214.5893096923828 1471.9757080078125
endloop
endfacet
facet normal -0.018008403480052948 -0.3305903971195221 -0.9436025619506836
outer loop
vertex -14.14054012298584 214.45156860351562 1472.014404296875
vertex -14.283278465270996 213.98304748535156 1472.1812744140625
vertex -14.668825149536133 214.09742736816406 1472.1485595703125
endloop
endfacet
facet normal -0.018110929057002068 -0.3304547369480133 -0.943648099899292
outer loop
vertex -14.741682052612305 214.22203063964844 1472.1063232421875
vertex -14.14054012298584 214.45156860351562 1472.014404296875
vertex -14.668825149536133 214.09742736816406 1472.1485595703125
endloop
endfacet
facet normal -0.018267491832375526 -0.33138275146484375 -0.9433194994926453
outer loop
vertex -14.668825149536133 214.09742736816406 1472.1485595703125
vertex -14.283278465270996 213.98304748535156 1472.1812744140625
vertex -14.567682266235352 213.9917755126953 1472.1837158203125
endloop
endfacet
facet normal -0.01849036104977131 -0.33024975657463074 -0.9437125325202942
outer loop
vertex -14.283278465270996 213.98304748535156 1472.1812744140625
vertex -14.319852828979492 213.86300659179688 1472.2239990234375
vertex -14.4436674118042 213.91075134277344 1472.209716796875
endloop
endfacet
facet normal -0.01824919506907463 -0.33072158694267273 -0.9435518980026245
outer loop
vertex -14.567682266235352 213.9917755126953 1472.1837158203125
vertex -14.283278465270996 213.98304748535156 1472.1812744140625
vertex -14.4436674118042 213.91075134277344 1472.209716796875
endloop
endfacet
facet normal -0.018102146685123444 -0.33047494292259216 -0.9436411261558533
outer loop
vertex -14.14054012298584 214.45156860351562 1472.014404296875
vertex -14.741682052612305 214.22203063964844 1472.1063232421875
vertex -14.637970924377441 214.5893096923828 1471.9757080078125
endloop
endfacet
facet normal -0.017189232632517815 -0.3307095468044281 -0.9435759782791138
outer loop
vertex -14.741682052612305 214.22203063964844 1472.1063232421875
vertex -14.78235149383545 214.3589324951172 1472.05908203125
vertex -14.637970924377441 214.5893096923828 1471.9757080078125
endloop
endfacet
facet normal -0.01773938536643982 -0.33103036880493164 -0.943453311920166
outer loop
vertex -13.858102798461914 213.8974151611328 1472.2032470703125
vertex -14.015483856201172 213.97682189941406 1472.1783447265625
vertex -13.731138229370117 213.97271728515625 1472.1744384765625
endloop
endfacet
facet normal -0.01766008883714676 -0.33088919520378113 -0.9435043931007385
outer loop
vertex -13.983494758605957 213.85537719726562 1472.2203369140625
vertex -14.015483856201172 213.97682189941406 1472.1783447265625
vertex -13.858102798461914 213.8974151611328 1472.2032470703125
endloop
endfacet
facet normal -0.017776576802134514 -0.33053719997406006 -0.9436255693435669
outer loop
vertex -14.015483856201172 213.97682189941406 1472.1783447265625
vertex -14.14054012298584 214.45156860351562 1472.014404296875
vertex -13.626091957092285 214.07366943359375 1472.1370849609375
endloop
endfacet
facet normal -0.017736012116074562 -0.33067944645881653 -0.9435765147209167
outer loop
vertex -13.731138229370117 213.97271728515625 1472.1744384765625
vertex -14.015483856201172 213.97682189941406 1472.1783447265625
vertex -13.626091957092285 214.07366943359375 1472.1370849609375
endloop
endfacet
facet normal -0.017915459349751472 -0.3307061791419983 -0.94356369972229
outer loop
vertex -13.626091957092285 214.07366943359375 1472.1370849609375
vertex -14.14054012298584 214.45156860351562 1472.014404296875
vertex -13.548590660095215 214.19485473632812 1472.0931396484375
endloop
endfacet
facet normal -0.01731320098042488 -0.33004075288772583 -0.94380784034729
outer loop
vertex -13.49112319946289 214.4712371826172 1471.9952392578125
vertex -13.50278377532959 214.32977294921875 1472.044921875
vertex -13.638534545898438 214.56658935546875 1471.964599609375
endloop
endfacet
facet normal -0.018112439662218094 -0.33114704489707947 -0.9434053301811218
outer loop
vertex -13.509905815124512 214.5960693359375 1471.9517822265625
vertex -13.49112319946289 214.4712371826172 1471.9952392578125
vertex -13.638534545898438 214.56658935546875 1471.964599609375
endloop
endfacet
facet normal -0.017866825684905052 -0.3306051790714264 -0.9435999989509583
outer loop
vertex -13.548590660095215 214.19485473632812 1472.0931396484375
vertex -14.14054012298584 214.45156860351562 1472.014404296875
vertex -13.638534545898438 214.56658935546875 1471.964599609375
endloop
endfacet
facet normal -0.018823690712451935 -0.3308059275150299 -0.9435110688209534
outer loop
vertex -13.50278377532959 214.32977294921875 1472.044921875
vertex -13.548590660095215 214.19485473632812 1472.0931396484375
vertex -13.638534545898438 214.56658935546875 1471.964599609375
endloop
endfacet
facet normal -0.01813741959631443 -0.33059072494506836 -0.9435998797416687
outer loop
vertex -14.14054012298584 214.45156860351562 1472.014404296875
vertex -14.637970924377441 214.5893096923828 1471.9757080078125
vertex -14.499808311462402 214.80506896972656 1471.8974609375
endloop
endfacet
facet normal -0.018113190308213234 -0.3311784863471985 -0.9433942437171936
outer loop
vertex -14.591863632202148 214.89564514160156 1471.867431640625
vertex -14.499808311462402 214.80506896972656 1471.8974609375
vertex -14.649109840393066 214.83653259277344 1471.8892822265625
endloop
endfacet
facet normal -0.018070273101329803 -0.33062925934791565 -0.9435876607894897
outer loop
vertex -14.499808311462402 214.80506896972656 1471.8974609375
vertex -14.637970924377441 214.5893096923828 1471.9757080078125
vertex -14.697540283203125 214.77093505859375 1471.9132080078125
endloop
endfacet
facet normal -0.018031423911452293 -0.33082330226898193 -0.9435204863548279
outer loop
vertex -14.649109840393066 214.83653259277344 1471.8892822265625
vertex -14.499808311462402 214.80506896972656 1471.8974609375
vertex -14.697540283203125 214.77093505859375 1471.9132080078125
endloop
endfacet
facet normal -0.017160937190055847 -0.3301098346710205 -0.9437865018844604
outer loop
vertex -14.637970924377441 214.5893096923828 1471.9757080078125
vertex -14.765209197998047 214.62454223632812 1471.9656982421875
vertex -14.73648738861084 214.6998291015625 1471.9388427734375
endloop
endfacet
facet normal -0.01767212711274624 -0.3305150866508484 -0.9436352849006653
outer loop
vertex -14.697540283203125 214.77093505859375 1471.9132080078125
vertex -14.637970924377441 214.5893096923828 1471.9757080078125
vertex -14.73648738861084 214.6998291015625 1471.9388427734375
endloop
endfacet
facet normal -0.017879730090498924 -0.330556184053421 -0.9436169266700745
outer loop
vertex -13.638534545898438 214.56658935546875 1471.964599609375
vertex -14.14054012298584 214.45156860351562 1472.014404296875
vertex -13.768167495727539 214.78860473632812 1471.8892822265625
endloop
endfacet
facet normal -0.018243758007884026 -0.33064886927604675 -0.9435774683952332
outer loop
vertex -13.509905815124512 214.5960693359375 1471.9517822265625
vertex -13.638534545898438 214.56658935546875 1471.964599609375
vertex -13.53584098815918 214.67274475097656 1471.9254150390625
endloop
endfacet
facet normal -0.018085507676005363 -0.33066239953041077 -0.9435758590698242
outer loop
vertex -13.638534545898438 214.56658935546875 1471.964599609375
vertex -13.768167495727539 214.78860473632812 1471.8892822265625
vertex -13.572064399719238 214.7454833984375 1471.900634765625
endloop
endfacet
facet normal -0.018319156020879745 -0.3305838108062744 -0.9435988068580627
outer loop
vertex -13.53584098815918 214.67274475097656 1471.9254150390625
vertex -13.638534545898438 214.56658935546875 1471.964599609375
vertex -13.572064399719238 214.7454833984375 1471.900634765625
endloop
endfacet
facet normal -0.017818616703152657 -0.33044373989105225 -0.9436574578285217
outer loop
vertex -13.768167495727539 214.78860473632812 1471.8892822265625
vertex -13.672917366027832 214.8748016357422 1471.8572998046875
vertex -13.618048667907715 214.8132781982422 1471.8778076171875
endloop
endfacet
facet normal -0.0179134551435709 -0.3299467861652374 -0.9438295960426331
outer loop
vertex -13.572064399719238 214.7454833984375 1471.900634765625
vertex -13.768167495727539 214.78860473632812 1471.8892822265625
vertex -13.618048667907715 214.8132781982422 1471.8778076171875
endloop
endfacet
facet normal -0.018172822892665863 -0.3306548595428467 -0.9435766935348511
outer loop
vertex -13.774862289428711 214.95652770996094 1471.83056640625
vertex -13.768167495727539 214.78860473632812 1471.8892822265625
vertex -13.908132553100586 215.0230712890625 1471.809814453125
endloop
endfacet
facet normal -0.017620697617530823 -0.3306385278701782 -0.9435930252075195
outer loop
vertex -13.672917366027832 214.8748016357422 1471.8572998046875
vertex -13.768167495727539 214.78860473632812 1471.8892822265625
vertex -13.774862289428711 214.95652770996094 1471.83056640625
endloop
endfacet
facet normal -0.018013618886470795 -0.3304244875907898 -0.9436606168746948
outer loop
vertex -13.768167495727539 214.78860473632812 1471.8892822265625
vertex -14.14054012298584 214.45156860351562 1472.014404296875
vertex -14.05384635925293 215.05902099609375 1471.800048828125
endloop
endfacet
facet normal -0.018367594107985497 -0.33075764775276184 -0.9435369968414307
outer loop
vertex -13.908132553100586 215.0230712890625 1471.809814453125
vertex -13.768167495727539 214.78860473632812 1471.8892822265625
vertex -14.05384635925293 215.05902099609375 1471.800048828125
endloop
endfacet
facet normal -0.018083835020661354 -0.3305422365665436 -0.9436179399490356
outer loop
vertex -14.14054012298584 214.45156860351562 1472.014404296875
vertex -14.499808311462402 214.80506896972656 1471.8974609375
vertex -14.204202651977539 215.0624542236328 1471.8016357421875
endloop
endfacet
facet normal -0.017506016418337822 -0.33049190044403076 -0.9436464309692383
outer loop
vertex -14.05384635925293 215.05902099609375 1471.800048828125
vertex -14.14054012298584 214.45156860351562 1472.014404296875
vertex -14.204202651977539 215.0624542236328 1471.8016357421875
endloop
endfacet
facet normal -0.017985064536333084 -0.3306431770324707 -0.9435844421386719
outer loop
vertex -14.204202651977539 215.0624542236328 1471.8016357421875
vertex -14.499808311462402 214.80506896972656 1471.8974609375
vertex -14.351151466369629 215.03317260742188 1471.814697265625
endloop
endfacet
facet normal -0.017331354320049286 -0.330471009016037 -0.9436569809913635
outer loop
vertex -14.499808311462402 214.80506896972656 1471.8974609375
vertex -14.591863632202148 214.89564514160156 1471.867431640625
vertex -14.48682689666748 214.97274780273438 1471.8385009765625
endloop
endfacet
facet normal -0.01841895468533039 -0.3303896188735962 -0.9436649084091187
outer loop
vertex -14.351151466369629 215.03317260742188 1471.814697265625
vertex -14.499808311462402 214.80506896972656 1471.8974609375
vertex -14.48682689666748 214.97274780273438 1471.8385009765625
endloop
endfacet
endsolid