solid ascii
facet normal 0.6166859865188599 -0.7465663552284241 0.24967408180236816
outer loop
vertex -14.55593490600586 215.55679321289062 1473.754638671875
vertex -14.450899124145508 215.63388061523438 1473.7257080078125
vertex -14.551238059997559 215.64321899414062 1474.00146484375
endloop
endfacet
facet normal -0.6444641351699829 -0.7177203297615051 0.2637110948562622
outer loop
vertex -13.738934516906738 215.61766052246094 1473.7177734375
vertex -13.61473560333252 215.94546508789062 1474.9134521484375
vertex -13.71198844909668 216.113525390625 1475.1331787109375
endloop
endfacet
facet normal 0.616866409778595 -0.7464200854301453 0.24966555833816528
outer loop
vertex -14.533686637878418 215.96621704101562 1474.92333984375
vertex -14.423954010009766 216.12974548339844 1475.14111328125
vertex -14.528989791870117 216.0526580810547 1475.170166015625
endloop
endfacet
facet normal 0.4313705563545227 -0.8539676666259766 0.29096177220344543
outer loop
vertex -14.288277626037598 216.19017028808594 1475.1173095703125
vertex -14.423954010009766 216.12974548339844 1475.14111328125
vertex -14.315223693847656 215.69430541992188 1473.701904296875
endloop
endfacet
facet normal 0.4313730001449585 -0.8539664149284363 0.2909615635871887
outer loop
vertex -14.315223693847656 215.69430541992188 1473.701904296875
vertex -14.423954010009766 216.12974548339844 1475.14111328125
vertex -14.450899124145508 215.63388061523438 1473.7257080078125
endloop
endfacet
facet normal -0.6445019245147705 -0.7176986336708069 0.26367777585983276
outer loop
vertex -13.71198844909668 216.113525390625 1475.1331787109375
vertex -13.61473560333252 215.94546508789062 1474.9134521484375
vertex -13.6100435256958 216.03179931640625 1475.159912109375
endloop
endfacet
facet normal -0.6444383859634399 -0.7177350521087646 0.26373377442359924
outer loop
vertex -13.63698959350586 215.53594970703125 1473.7445068359375
vertex -13.63229751586914 215.62229919433594 1473.990966796875
vertex -13.738934516906738 215.61766052246094 1473.7177734375
endloop
endfacet
facet normal -0.46318647265434265 -0.8336319923400879 0.30085882544517517
outer loop
vertex -13.738934516906738 215.61766052246094 1473.7177734375
vertex -13.845258712768555 216.18006896972656 1475.1124267578125
vertex -13.872204780578613 215.68421936035156 1473.697021484375
endloop
endfacet
facet normal -0.46311137080192566 -0.8336665630340576 0.30087846517562866
outer loop
vertex -13.71198844909668 216.113525390625 1475.1331787109375
vertex -13.845258712768555 216.18006896972656 1475.1124267578125
vertex -13.738934516906738 215.61766052246094 1473.7177734375
endloop
endfacet
facet normal -0.24701239168643951 -0.9130412340164185 0.3245622217655182
outer loop
vertex -13.872204780578613 215.68421936035156 1473.697021484375
vertex -13.990972518920898 216.2160186767578 1475.1026611328125
vertex -14.017918586730957 215.7201690673828 1473.687255859375
endloop
endfacet
facet normal -0.24701239168643951 -0.9130412340164185 0.3245622217655182
outer loop
vertex -13.845258712768555 216.18006896972656 1475.1124267578125
vertex -13.990972518920898 216.2160186767578 1475.1026611328125
vertex -13.872204780578613 215.68421936035156 1473.697021484375
endloop
endfacet
facet normal -0.017955852672457695 -0.9435011744499207 0.33088254928588867
outer loop
vertex -14.017918586730957 215.7201690673828 1473.687255859375
vertex -14.141328811645508 216.21945190429688 1475.104248046875
vertex -14.168274879455566 215.7235870361328 1473.6888427734375
endloop
endfacet
facet normal -0.01805170625448227 -0.9435020685195923 0.3308745324611664
outer loop
vertex -13.990972518920898 216.2160186767578 1475.1026611328125
vertex -14.141328811645508 216.21945190429688 1475.104248046875
vertex -14.017918586730957 215.7201690673828 1473.687255859375
endloop
endfacet
facet normal 0.21241310238838196 -0.9234780073165894 0.31948208808898926
outer loop
vertex -14.168274879455566 215.7235870361328 1473.6888427734375
vertex -14.288277626037598 216.19017028808594 1475.1173095703125
vertex -14.315223693847656 215.69430541992188 1473.701904296875
endloop
endfacet
facet normal 0.21241310238838196 -0.9234780073165894 0.31948208808898926
outer loop
vertex -14.141328811645508 216.21945190429688 1475.104248046875
vertex -14.288277626037598 216.19017028808594 1475.1173095703125
vertex -14.168274879455566 215.7235870361328 1473.6888427734375
endloop
endfacet
facet normal 0.6167027950286865 -0.7465059757232666 0.24981258809566498
outer loop
vertex -14.551238059997559 215.64321899414062 1474.00146484375
vertex -14.423954010009766 216.12974548339844 1475.14111328125
vertex -14.533686637878418 215.96621704101562 1474.92333984375
endloop
endfacet
facet normal 0.6168828010559082 -0.7463818192481995 0.24973945319652557
outer loop
vertex -14.450899124145508 215.63388061523438 1473.7257080078125
vertex -14.423954010009766 216.12974548339844 1475.14111328125
vertex -14.551238059997559 215.64321899414062 1474.00146484375
endloop
endfacet
facet normal -0.6443998217582703 -0.7177749872207642 0.2637194097042084
outer loop
vertex -13.63229751586914 215.62229919433594 1473.990966796875
vertex -13.61473560333252 215.94546508789062 1474.9134521484375
vertex -13.738934516906738 215.61766052246094 1473.7177734375
endloop
endfacet
endsolid